<svg xmlns="http://www.w3.org/2000/svg" viewBox="0 0 452.36981 99.04388"><defs><style>.a{fill:#182028;}</style></defs><path class="a" d="M146.24725,6.535,108.47571,91.082h10.704L131.021,62.53387h39.144L182.16919,91.082h9.426L155.69,6.535ZM134.71832,54.9577l16.41852-38.63678,16.048,38.63678ZM49.52185,0A49.52194,49.52194,0,1,0,99.0437,49.52191,49.52535,49.52535,0,0,0,49.52185,0Zm5.35638,57.72076a18.38562,18.38562,0,0,1-2.682,4.28663c-3.23981,3.85876-7.5188,5.37939-11.56861,4.64587l-2.8731,15.19043c-.06873.37439-.48127.3667-.53479-.00757L34.41547,63.4516a15.72093,15.72093,0,0,1-2.20075-2.55212,21.87694,21.87694,0,0,1-3.49188-14.47229c.11462-1.16138,1.41357-1.1919,1.55872-.03809a20.22223,20.22223,0,0,0,4.0498,9.9563c5.28,6.64013,13.77692,6.77759,19.27844.31323a1.52126,1.52126,0,0,0,.10706-.12219C54.351,55.77228,55.31372,56.75043,54.87823,57.72076ZM70.43549,80.08624c-.01526,1.77283-2.36872,2.98767-2.52161,1.30652L66.22522,63.30634c-.73346-7.855-6.98383-11.04126-14.23523-7.60279l-1.13855.54248c-9.559,4.58472-17.31482-.33618-17.31482-10.98779V23.43518a2.08653,2.08653,0,0,1,.023-.31323.84661.84661,0,0,1,.24457-.81763c.06878-.06879.14514-.12994.214-.19867a2.52885,2.52885,0,0,1,.58075-.53485,18.82434,18.82434,0,0,1,4.01153-2.7279,19.15445,19.15445,0,0,1,25.34546,8.0996A18.456,18.456,0,0,1,64.94922,41.705a1.23832,1.23832,0,0,1-2.39929-.489A18.35941,18.35941,0,0,0,60.525,31.72577,19.01535,19.01535,0,0,0,36.1499,23.11432l1.597,17.09314c.73358,7.855,6.98407,11.04126,14.23547,7.61047l1.13849-.5426c9.559-4.59229,17.31464.32861,17.31464,10.988Zm131.26117-8.54858V36.18146h14.49377V28.38531H201.69666V6.535h-8.345V72.96454q0,19.43555,22.83875,19.43494V85.48187Q201.69662,85.48187,201.69666,71.53766Zm46.88458-44.799q-13.946-.767-24.21137,9.38775a31.76,31.76,0,0,0-9.93658,24.21137,31.60345,31.60345,0,0,0,10.1015,22.89307q9.88266,9.61009,22.72888,9.38842a32.3706,32.3706,0,0,0,30.415-22.07006h-8.8938q-6.36932,13.50549-21.19153,13.72509a23.91342,23.91342,0,0,1-16.58007-6.03906,23.19776,23.19776,0,0,1-8.01593-15.592h56.21807V58.14154q0-11.63672-8.89386-21.08148A32.13957,32.13957,0,0,0,248.58124,26.73871Zm-25.58386,28.219A24.65869,24.65869,0,0,1,262.7453,40.738a24.14016,24.14016,0,0,1,8.23505,14.21972ZM443.2561,37.00507a30.9488,30.9488,0,0,0-22.17932-10.04718A30.2229,30.2229,0,0,0,397.799,36.34631a32.21425,32.21425,0,0,0-9.7724,23.55182A31.89607,31.89607,0,0,0,397.08533,82.627a31.60565,31.60565,0,0,0,45.45709.49451,31.87971,31.87971,0,0,0,9.82739-23.33264A31.99011,31.99011,0,0,0,443.2561,37.00507Zm-6.33044,40.20971a21.74027,21.74027,0,0,1-17.66235,7.16944,22.33846,22.33846,0,0,1-16.39844-7.77539A24.268,24.268,0,0,1,396.37158,59.238a23.87871,23.87871,0,0,1,7.152-17.14966,22.75253,22.75253,0,0,1,17.06061-7.00464,21.81672,21.81672,0,0,1,16.34143,7.05957,24.92387,24.92387,0,0,1,7.09918,16.98291A24.64084,24.64084,0,0,1,436.92566,77.21478ZM304.4682,21.02887h8.345V6.42517h-8.345Zm50.9967,63.35535A24.08187,24.08187,0,0,1,337.751,77.17645a23.68191,23.68191,0,0,1-7.4798-17.55249q0-10.23229,8.03064-17.71728,7.70031-7.263,17.38293-7.04279,14.519.33473,21.56214,12.5174h9.46148l-1.20764-2.74488a29.3638,29.3638,0,0,0-11.63891-12.73736,34.26578,34.26578,0,0,0-42.21814,4.7763A30.73078,30.73078,0,0,0,321.92615,60.008a30.91907,30.91907,0,0,0,9.99164,22.94873,33.25174,33.25174,0,0,0,23.49755,9.55261q20.642.22119,30.525-18.00745l.87793-1.86645h-9.46149Q370.09479,84.16467,355.4649,84.38422ZM304.4682,91.082h8.345V28.49524h-8.345Zm-17.78638,0h8.345V6.42517h-8.345Z"/></svg>