<svg xmlns="http://www.w3.org/2000/svg" viewBox="0 0 137.6068 150"><defs><style>.a{fill:#2a96d2;}.b{fill:#f9bb3a;}.c{fill:#fcd718;}.d{fill:#6fb647;}.e{fill:#dd2d8a;}</style></defs><path class="a" d="M137.58036,137.63129q-.47366-6.29371-1.14851-12.57177c-.39547-3.65924-.44128-3.544-4.18209-3.03439-2.10408.28665-3.23324,1.14568-3.71567,3.27659a65.86933,65.86933,0,0,1-2.7646,7.76724c-.98977,2.72647-3.81022,4.41617-4.01233,7.60711-.04874.76932-1.36841,1.1662-2.34577.93475a1.61279,1.61279,0,0,1-1.19743-1.95461c.082-.91124.19843-1.82281.36379-2.72248.51085-2.77886,1.37691-5.509,1.33779-8.36475-.05169-3.7793-2.6217-5.80989-6.22957-5.05518-1.56407.32715-2.74427,1.0878-4.81551.4993-4.60149-1.30742-5.18444-.50745-6.13494,4.104-.0463.2247-.073.4537-.10272.68148-.23191,1.77634-1.71114,1.73908-2.94629,1.94742-1.59085.26837-1.12467-1.08382-1.29109-1.85041-.87365-4.02476-3.28361-5.60814-7.39654-4.83844-5.6445,1.0563-7.98268,5.26017-9.4593,10.13118a46.12711,46.12711,0,0,0-.90419,5.88383c-.27225,1.65369-2.15805,3.28937-3.52941,2.98768-2.08945-.45967-1.35723-2.13649-1.1748-3.36705.51566-3.47877,1.23245-6.92725,1.79671-10.39954.88027-5.41637,1.57534-4.44839-4.15172-4.4092a1.67845,1.67845,0,0,0-1.93332,1.70732c-.31634,2.34675-.77714,4.67688-1.25263,6.99864-.53469,2.6109-.5863,5.351-1.882,7.76642-.67686,1.26177-1.647,2.45458-3.24842,1.90524-1.63038-.55925-1.20853-2.02583-1.00284-3.33676.48529-3.0933,1.53516-6.09258,1.54994-9.26342.02058-4.43735-2.97993-6.56949-7.17549-5.18334-1.10246.36423-2.01972,2.02669-3.59784.20559-.58156-.67119-2.63174-.02229-4.00881-.06908-1.2612-.04287-1.75343.523-1.8956,1.7364a44.27512,44.27512,0,0,1-.84205,4.74118c-.74986,3.26594-.71794,6.71711-2.16711,9.80866-.73941,1.57738-2.114,2.70719-3.8878,2.04623-1.6356-.60947-.68437-2.24633-.71075-3.45871a3.70006,3.70006,0,0,1,.14241-.67247q1.08376-6.21431,2.16-12.43c.0957-.55476.45148-1.11563-.55478-1.37223-3.81578-.97311-5.84056.23927-6.44932,3.98092-.1843,1.13233-.31,2.27911-.57577,3.3923-.74235,3.10973-.68037,6.41394-2.22966,9.328-.66828,1.257-1.67,2.13212-3.14635,1.731-1.53238-.41634-1.12622-1.78693-1.04513-2.89361.05561-.75889.252-1.50689.37342-2.26168.42429-2.6364,1.276-5.19917,1.17913-7.92572-.13244-3.72811-2.34765-5.53049-6.05254-4.9574-2.172.336-3.56566,1.82013-5.03541,3.22868-2.19234-3.26707-4.79118-3.89443-8.15743-2.12658-.47027.247-1.00243,1.08371-1.496.50131-1.81933-2.14656-4.02768-.57274-6.03523-.73514-.71965-.05819-.79314.78068-.89513,1.39868-.29911,1.811-.5645,3.63061-.95155,5.42348C1.77573,138.62065,1.54178,143.29323,0,147.70072V150c.60182-.05954,1.2029-.16123,1.80553-.17194,4.79289-.08531,4.79167-.08024,5.57321-4.85776.17279-1.05671.30124-2.125.5498-3.1642.67458-2.82038.67833-5.80143,1.89-8.48287.56466-1.24967,1.39618-2.71829,3.06126-2.14042,1.50846.52351.97679,2.09321.79371,3.23438-.56924,3.54763-1.224,7.08265-1.90711,10.61065-.87913,4.54014-.90608,4.44487,3.63425,4.381,1.7656-.02482,2.34659-.62556,2.597-2.33621.59781-4.08275,1.451-8.12808,2.19561-12.18949a5.79093,5.79093,0,0,1,2.057-3.73294c1.24267-.95947,2.42156-.49677,2.63819,1.04848a13.03251,13.03251,0,0,1-.26947,4.10571c-.46936,2.63075-1.28055,5.2153-1.19808,7.92584.09244,3.0375,1.89724,4.77583,4.92428,4.91824,2.79579.13151,4.75084-1.32194,6.52673-3.44956a4.98135,4.98135,0,0,0,4.84139,3.02819,9.94944,9.94944,0,0,0,5.87078-2.37356c-.20913,1.5743.35153,2.07087,1.62686,1.83768a6.22554,6.22554,0,0,1,1.83517-.01912c2.21741.26648,3.22107-.50176,3.50034-2.90561.45752-3.93942,1.31338-7.83907,2.13649-11.72689.39767-1.87792,1.17848-4.3592,3.36641-3.90643,2.37558.49161,1.28921,3.028,1.0711,4.74062-.32793,2.57442-.96013,5.11261-1.23752,7.69043-.4407,4.09479,2.3154,6.49447,6.39657,5.8459,2.18532-.34727,3.54247-1.87058,4.98756-3.31069,2.04895,3.06336,3.9822,3.72144,7.32126,2.63624a6.3607,6.3607,0,0,0,3.08061-1.92372c1.20788-1.525,2.0256-1.50229,3.08323.10881a4.091,4.091,0,0,0,2.376,1.31534c4.09235,1.24108,8.21581-.43352,10.67338-4.29394a17.96882,17.96882,0,0,0,2.6092-7.99661c.18071-1.78852,1.76095-1.78324,2.74737-1.74818,1.18028.042.53363,1.33034.42519,2.013-.55208,3.47356-1.15864,6.94063-1.85567,10.38787-.24031,1.18847.13343,1.46426,1.23189,1.51861,4.89292.24215,5.02692.15486,5.87575-4.78427.14233-.82851.249-1.66685.45271-2.48046.7782-3.10671.71875-6.40735,2.109-9.3658.56311-1.19829,1.35242-2.52524,2.90113-2.0358,1.5635.4941,1.33837,2.041,1.12835,3.31667-.4225,2.56524-.95335,5.11242-1.40541,7.67307-.56989,3.22749.25069,5.62094,2.25538,6.70455a6.53341,6.53341,0,0,0,7.44766-1.19082c.93686-.86447,1.384-.81077,2.38816-.04968,2.97879,2.25778,6.22068,1.76415,9.34155.27818A6.75661,6.75661,0,0,0,137.58036,137.63129Zm-43.35005-3.95445c1.08319,1.79818-1.56709,8.07672-3.5552,8.8846-1.26864.51555-2.4699.4119-2.87656-1.21951a20.17794,20.17794,0,0,1-.3374-2.08794,24.26939,24.26939,0,0,1,2.44123-9.64511,5.9539,5.9539,0,0,1,2.02-2.45523,1.61727,1.61727,0,0,1,2.36938,2.14949C93.17162,130.77978,93.25034,132.05,94.23031,133.67684Zm32.42925,8.49562a1.95329,1.95329,0,0,1-1.82627-1.49007c-.2765-1.289.89211-.64105,1.3783-.89616.904-.4743,1.73677-1.34327,1.32783-2.15183-1.18648-2.34563.37236-4.0601,1.009-5.99194.28376-.86093.65049-1.69453.97957-2.54052l.44356.01572c.37064,3.00232.89031,5.9959,1.06767,9.00959A3.6816,3.6816,0,0,1,126.65956,142.17246Z"/><path class="a" d="M44.61468,115.804a11.14208,11.14208,0,0,0,5.69047-3.28309c1.54513,3.67538,4.29421,4.39494,7.44717,2.03651.30483-.228.55993-.52106.85226-.76721.34762-.29277.51338-.18363.86492.15765,2.63313,2.557,3.87424,2.59053,6.83947.31447.38216-.2933.55969-.87469,1.26774-.26777,2.93126,2.51274,3.61906,2.51378,6.83621.22707.59659-.42407.95376-.833,1.65258.01812,1.41823,1.72737,3.3883,1.898,5.44926,1.44682,4.14861-.90818,6.70784-4.48348,7.206-10.04207.42168-4.70506-1.45048-6.56176-6.22924-5.931.20112-1.01927.35545-1.84519.52881-2.66711.17336-.82205.376-1.638.54564-2.46077.08843-.42886.30907-.88833-.18316-1.24383-.97883-.70694-4.42993.60167-4.7083,1.82625-.49149,2.16188-.86761,4.35146-1.40712,6.50056-.78032,3.10782-.98765,6.36127-2.28208,9.33238-.40037.91888-1.13259,1.84327-2.276,1.51294-1.33086-.38448-.92633-1.54686-.7221-2.516.6148-2.91745,1.24323-5.832,1.8555-8.75.11767-.5608.54817-1.17994-.16274-1.652-1.45155-.964-4.27453.221-4.66,1.94784-.666,2.98328-1.26144,5.98491-2.03384,8.94036-.26563,1.01633-.98226,2.18691-2.25236,1.85892-1.37152-.35423-.77289-1.64782-.60027-2.54214.56483-2.92751,1.22887-5.8359,1.84849-8.75295.12069-.56785.46847-1.1651-.40935-1.52216a3.17585,3.17585,0,0,0-4.52522,2.35415c-.16813.746-.30891,1.49894-.50171,2.23842-.57691,2.213-.69221,4.54361-1.65095,6.65659-.51346,1.13182-1.44575,2.03327-2.67616,1.69458-1.49932-.41269-.81984-1.70827-.60827-2.71494,1.02195-4.86192,2.0581-9.72089,3.06755-14.58538.1291-.62191.63334-1.3778-.1981-1.85192-1.38336-.78887-4.3054.65948-4.64942,2.26345-.91383,4.26007-1.805,8.52511-2.73782,12.781a5.89266,5.89266,0,0,1-5.81745,4.57854c-1.42018-.03215-2.13934-.66194-2.18156-2.06715a15.082,15.082,0,0,1,2.33957-8.50542c.39792-.64668.92461-1.3641,1.82644-1.05615.88476.30212.57,1.138.52,1.79276-.047.61381-.26432,1.26545.664,1.39847a1.55562,1.55562,0,0,0,1.59959-.65346,2.89573,2.89573,0,0,0-1.64075-4.41559A6.64656,6.64656,0,0,0,41.205,101.828a13.17331,13.17331,0,0,0-3.00949,8.70506C38.19942,114.55865,40.6186,116.55118,44.61468,115.804ZM80.28,109.777c.37114-1.7823.80711-3.55212,1.13676-5.34171.24767-1.34445.54261-2.76731,2.2495-2.54759,1.56048.20087,1.51516,1.65877,1.53884,2.89348.00441.228.00065.45617.00155.68457a10.2978,10.2978,0,0,1-1.6009,5.61983c-.56613.90807-1.27679,1.83736-2.554,1.39005C79.61981,111.97417,80.06583,110.80571,80.28,109.777Z"/><path class="a" d="M94.90848,112.64906c.46675-.23254.80661-1.12476,1.52259-.44533,1.622,1.53946,3.04191-.00939,4.54269-.08317,1.40492-.06906,2.96246,1.63278,4.64468.72838,1.64842-.88626,3.05685-1.27708,4.623.12963.34059.306,1.19163.16666,1.77556.05906,2.62-.48279,3.18709-1.61712,2.95127-5.88331a22.27714,22.27714,0,0,0-.02679-2.74948c-.09374-.74909.27895-1.976-.92869-2.01664-1.06751-.03587-2.3047.01761-2.74655,1.51023a16.0975,16.0975,0,0,1-1.50258,3.58606c-.87847,1.49186-1.69382,3.13-3.56485,3.6977a1.54476,1.54476,0,0,1-2.07532-.91662c-.42389-1.046.4434-1.28542,1.16386-1.5657a7.4728,7.4728,0,0,0,1.05584-.42707,4.05421,4.05421,0,0,0,2.25652-3.72094,1.63845,1.63845,0,0,0-1.3066-1.67221,4.12871,4.12871,0,0,0-4.186,1.2216,6.94146,6.94146,0,0,0-1.88033,3.61132c-.11294.52295-.196,1.05316-.27233,1.583-.11391.79026-.29054,1.71484-1.26659,1.58331-1.22144-.1646-.62975-1.15117-.495-1.82533.53869-2.69665,1.15113-5.37915,1.64932-8.08289.12012-.65195,1.0306-1.788-.46733-1.92075-.97066-.086-2.21725-.11475-2.41853,1.45707-.19,1.484-.2894,2.92365-2.66187,2.364-1.1793-.27816-2.40106.82646-3.19845,1.93846a8.13446,8.13446,0,0,0-1.5065,5.41219C90.75064,112.80738,92.566,113.816,94.90848,112.64906Zm15.61375-2.97387a4.82746,4.82746,0,0,1,1.148-3.60361,7.35622,7.35622,0,0,1,.552,3.51889c-.10762,1.09511-.62631,2.10144-1.892,1.66647C108.73719,110.70945,110.61254,110.25809,110.52223,109.67519Zm-3.766-5.751a3.17966,3.17966,0,0,1-2.19782,3.82441A3.72154,3.72154,0,0,1,106.75618,103.9242Zm-11.49763.85245c.36378-.389.83413-.72775,1.4001-.35772.46969.30712.351.7753.242,1.23329-.33406,1.403-.58712,2.82941-1.00529,4.2062a1.28852,1.28852,0,0,1-1.55149,1.03789c-.735-.18684-.691-.89906-.78987-1.4725C93.817,107.74867,94.04479,106.07432,95.25855,104.77665Z"/><path class="a" d="M23.08419,106.17047c.99557-.0147.61905-.87514.66355-1.40011.12608-1.48619.416-2.83909,2.02584-3.49824.08419.2372.19614.38592.17091.50575-.75648,3.58907-1.53737,7.17305-2.28421,10.7641-.12836.61734-.61472,1.578.37081,1.74008,2.67812.44052,4.35856,2.45286,6.46524,3.79046a2.99291,2.99291,0,0,0,2.607.56918,2.24863,2.24863,0,0,0,1.44052-2.15576c.04165-.52027-.12837-.84155-.79445-.74512-2.21831.32114-3.90013-1.0541-5.78209-1.84153a1.65523,1.65523,0,0,1-1.12018-2.30039q1.02987-4.23051,1.84334-8.51239c.23256-1.224,1.35927-2.88687.38273-3.60945-1.35633-1.00357-3.04958.15254-4.47957.84662a5.67537,5.67537,0,0,0-2.56193,2.5475,2.85138,2.85138,0,0,0-.32728,1.992C21.86594,105.59958,22.295,106.18215,23.08419,106.17047Z"/><path class="a" d="M30.94144,113.80959c1.849.30377,3.31334-.05785,4.27159-2.5361-.78375.23583-1.12279.3414-1.46379.43974-.81511.235-1.59894.21127-1.86457-.74135-.25232-.90515.52424-1.1181,1.1677-1.3939a7.62867,7.62867,0,0,0,1.61127-.8375c1.59861-1.20735,2.16948-3.32569,1.24054-4.38809-.94126-1.0764-3.15492-.94261-4.602.30432a7.47836,7.47836,0,0,0-2.56373,5.91178C28.7331,112.07361,29.04119,113.4974,30.94144,113.80959Zm1.29591-5.9541c.40192-1.00458.47451-2.26785,1.81027-2.60459.41514-.10467.483.30914.48251.57737a2.76838,2.76838,0,0,1-2.1805,2.77686C32.29288,108.26675,32.17023,108.02322,32.23735,107.85549Z"/><path class="a" d="M41.9025,116.47353a3.62118,3.62118,0,1,0,3.5842,3.67584A3.647,3.647,0,0,0,41.9025,116.47353Z"/><path class="a" d="M75.01122,118.675c-.58573-.52393-.911-1.91714-1.68288-1.50294-.96437.5176-.85634,1.88586-.54539,2.91645A3.50765,3.50765,0,0,0,76.28132,122.59c.54188-.20515,1.47131.01017,1.70706-.7329.21092-.66464-.68331-.84358-1.06694-1.25439C76.30394,119.9416,75.68449,119.27714,75.01122,118.675Z"/><path class="b" d="M88.38085,0q-1.63164.01488-3.26336.0297A23.994,23.994,0,0,0,68.4386,8.67049c-1.08269,1.24781-1.48592,1.893.39449,2.98876,9.39022,5.47218,13.69863,15.45283,11.50139,26.08-.15041.72771-.67163,1.57894.056,2.14292.84589.65565,1.53491-.131,2.23742-.57868,6.71323-4.27795,13.84365-4.59554,21.09452-1.799,2.00747.77427,2.79881.3688,3.79438-1.29077C116.76054,20.805,106.58494,1.50536,88.38085,0ZM98.51872,23.54468c.90379,1.91726,2.08872,3.83849.41466,5.91361a7.429,7.429,0,0,1-6.99185,2.59831c-5.22812-.55694-9.25458-4.41776-9.69912-9.12721-.51608-5.468,2.43862-9.69573,7.924-11.33983.28107-.08424.5596-.17695,1.04391-.33064-1.27345-1.53342-.867-3.19416-.81935-4.867.0463-1.62808.83764-1.40224,1.75841-.95338,1.33666.65155,2.52543,1.49988,2.64938,3.17994a3.66017,3.66017,0,0,0,1.2234,2.65146c3.42072,2.54646,2.79726,6.74025,4.2573,10.07027C100.89112,22.735,100.53975,23.98465,98.51872,23.54468Z"/><path class="b" d="M93.62441,10.81534c-.67881.34331-.47181.88171-.25763,1.37373a33.38088,33.38088,0,0,0,5.52185,9.15408,35.30434,35.30434,0,0,0-4.30433-10.179A.686.686,0,0,0,93.62441,10.81534Z"/><path class="b" d="M87.88348,19.93344a1.39574,1.39574,0,0,0-1.37463-1.5047,1.35119,1.35119,0,0,0-1.63339,1.45689,1.33185,1.33185,0,0,0,1.46306,1.4136A1.41239,1.41239,0,0,0,87.88348,19.93344Z"/><path class="b" d="M87.01162,23.774a1.34609,1.34609,0,0,0-1.408,1.46982,1.4521,1.4521,0,1,0,2.9017.11916A1.34492,1.34492,0,0,0,87.01162,23.774Z"/><path class="b" d="M91.569,15.763a1.47643,1.47643,0,1,0-1.49156,1.38335C90.98826,17.18448,91.43542,16.64454,91.569,15.763Z"/><path class="b" d="M91.63777,26.70409a1.42332,1.42332,0,0,0-.03422,2.84616,1.26929,1.26929,0,0,0,1.45947-1.3755A1.31206,1.31206,0,0,0,91.63777,26.70409Z"/><path class="b" d="M96.14559,20.5053c-.02637-.01473-.45557.43266-.44438.65161.0886,1.735,1.50479,1.94387,2.7535,2.334A5.17395,5.17395,0,0,0,96.14559,20.5053Zm.52947,1.31891c.45508.39762.89366.81267,1.32318,1.23706A4.89635,4.89635,0,0,1,96.67506,21.82421Z"/><path class="b" d="M98.47079,23.53513l.029-.03038-.04507-.01381Z"/><path class="c" d="M69.88525,39.81023a26.575,26.575,0,0,0-26.453,26.25584A26.24743,26.24743,0,0,0,69.70634,92.58634c14.85947.01171,26.51993-11.35693,26.5419-25.87763C96.2711,51.57207,84.64984,39.71474,69.88525,39.81023Zm11.234,10.91291c1.02105-.04268,3.04068,3.1646,3.02419,4.80243a3.44306,3.44306,0,0,1-3.46694,3.28306A3.56619,3.56619,0,0,1,77.507,55.43494C77.53248,54.0737,80.06746,50.7671,81.11921,50.72314Zm-20.505-4.12728c1.17366.03463,4.19058,4.0757,4.24341,5.684A3.98405,3.98405,0,0,1,61.072,56.355a3.89223,3.89223,0,0,1-4.167-3.8715C56.88618,50.4717,59.35142,46.55859,60.61418,46.59586Zm11.19419,31.171c.114,1.05734-.02581,2.14006-.015,3.211a1.97215,1.97215,0,0,1-2.02715,2.277c-1.39046.017-1.9882-1.00989-2.0336-2.30049-.0512-1.45318-.055-2.91062-.00873-4.36395.05511-1.73108-.99508-2.83326-2.122-3.88891a1.41163,1.41163,0,0,0-1.71685-.13771c-.555.29407-.60361.79942-.54147,1.38074.17034,1.59518.29544,3.19519.4385,4.79328l-.21149.00875c0,1.60662.00261,3.21327-.00082,4.81988-.003,1.37773-.43131,2.505-2.03074,2.47786C59.98729,86.018,59.50665,84.879,59.443,83.5348c-.12992-2.74476.44144-5.48091-.037-8.2422-.70413-4.06466-1.28292-8.15133-1.88833-12.2326-.199-1.34127-1.27664-2.06272-2.05222-2.96848-1.34294-1.56827-2.84683-2.99773-4.2368-4.52748-.66968-.737-1.426-1.59162-.44471-2.58447,1.00194-1.0138,1.93512-.54336,2.75643.343,1.35274,1.45983,2.71406,2.91206,4.04548,4.39106.70381.78182,1.39194,1.467,2.52706.7437a.74742.74742,0,0,1,.44283-.10644c3.99991.4,5.54169-2.17992,6.60626-5.38623a22.18887,22.18887,0,0,1,.96282-2.07965c.47974-1.06016,1.25663-1.61719,2.37616-1.08435,1.05232.50085.986,1.44923.56858,2.369-.88476,1.949-1.7184,3.92719-2.72165,5.81448a8.08754,8.08754,0,0,0-.76284,5.50742c.59912,3.37191.681,6.82368,3.50278,9.42172C72.47192,74.18767,71.63191,76.132,71.80837,77.76689ZM88.97524,57.94063a1.6454,1.6454,0,0,1-.31716.3319c-6.36235,4.64161-5.97309,11.75674-6.719,18.43437a39.64787,39.64787,0,0,0-.02474,4.59542c.00612,1.118-.33978,2.0448-1.58914,2.12-1.44411.08693-1.76707-.9644-1.793-2.13746-.02875-1.30216-.00662-2.60545-.00662-3.90824l-.07071-.00438c.08606-1.29827.18095-2.596.25338-3.89508.02433-.43773.17344-.9552-.40118-1.18257a1.35565,1.35565,0,0,0-1.50748.15362,4.55486,4.55486,0,0,0-1.78275,3.799c.05013,1.22014.00947,2.4474-.06125,3.66743a.97691.97691,0,0,1-.8721.93415c-.67506.05032-.58565-.55825-.61219-.9773-.15841-2.50392.15924-5.005-.521-7.52482-.33937-1.2571,1.35388-2.18568,1.69-3.61787.98537-4.199.92788-8.14551-1.54618-11.85a7.01091,7.01091,0,0,1-.775-1.66188c-.25682-.76623-.30369-1.56744.57446-1.98945.92028-.4422,1.43782.15135,1.80267.89043.67719,1.37169,1.31836,2.76107,1.98493,4.138,1.15195,2.3793,5.42158,3.101,7.20547,1.21277,1.05207-1.11354,2.057-2.27253,3.13107-3.36385.54915-.55792,1.22569-1.03136,2.01131-.36993C89.898,56.4665,89.53043,57.21937,88.97524,57.94063Z"/><path class="d" d="M43.11822,51.89848c-5.11478-3.76037-8.70682-8.60871-9.55369-15.05614-.28776-2.19067-1.05118-2.30184-2.88512-1.60749-8.99255,3.40466-14.75406,13.58384-13.11544,23.372A21.29371,21.29371,0,0,0,38.33815,75.96292c.45957-.00034.9193.00718,1.37871-.00154,3.3865-.06422,3.35359-.05927,2.74524-3.40893-1.0733-5.90985-.916-11.75255,1.53084-17.324C44.67992,53.66407,44.48827,52.90576,43.11822,51.89848ZM22.56411,50.5353a1.04251,1.04251,0,0,1,1.33347.88915c.33863,1.31529.64714,2.63832.925,3.78119.07365.96784-.2511,1.59283-1.02276,1.69746a1.17071,1.17071,0,0,1-1.26635-1.0496c-.30491-1.32368-.62746-2.64443-.88353-3.97774A1.07383,1.07383,0,0,1,22.56411,50.5353Zm4.897,15.91327c-.469,1.24447-1.31453,1.751-2.4187.65218a10.27778,10.27778,0,0,1-3.1123-5.74c-.213-1.38275.27347-1.76469,1.59045-1.51626l.42919-.46943c.03936-.55851-.47982-1.27437.15352-1.6383.54677-.31421.68665.31634.81592.73553l.89676.04075c1.36164.01694,1.86294,1.01332,2.08219,2.07114A10.43647,10.43647,0,0,1,27.46112,66.44857Zm10.00248-.86181c-3.60878,1.665-4.88174,1.15853-6.24746-2.54333-1.13349-3.07242-1.13349-3.07242,1.894-4.06753l.00514-.0059-.00253.0001-.00237.00548a8.86354,8.86354,0,0,0-2.8741-.02213c-1.12859.18649-1.378-.8165-1.57771-1.59876-.24285-.95131.72953-.76034,1.192-1.01353.96021-.52567,2.59361.229,2.90456-1.53532-.31438-.57207-.68927-1.05869-1.4384-1.01651l-.00008,0a4.08435,4.08435,0,0,1-2.21039.23628,3.58112,3.58112,0,0,1-2.68572-2.48955c-.18177-.551.19157-.866.62452-1.03834a3.41138,3.41138,0,0,1,3.81472.3995,6.98926,6.98926,0,0,1,1.54471,2.47288h0v0c.15066-.4278.32214-.84971.44569-1.2852.10411-.36683.1478-.75042.22635-1.12489a3.14482,3.14482,0,0,1,3.30444-2.6075A1.055,1.055,0,0,1,37.63336,49.398a3.39137,3.39137,0,0,1-2.4218,3.51222c-1.01565.35466-2.19422.37415-2.08659,1.89917.86679.94791,1.82553.32606,2.772.1878.81837-.11956,1.85126-.81458,2.22884.64263.38673,1.49238-.54025,1.8672-1.72649,2.01843l.9429.41247-.00032.00016.00049-.00007c1.35086,1.95584.67318,4.26337,1.07861,6.38479C38.52294,64.989,38.00066,65.339,37.4636,65.58676Z"/><path class="d" d="M32.75506,54.80584q.185-.00113.36991.00353C33.00387,54.58292,32.8804,54.59287,32.75506,54.80584Z"/><path class="d" d="M31.31658,53.78933h.00008l1.08776-.41921C31.89635,53.13291,31.43907,53.02746,31.31658,53.78933Z"/><path class="d" d="M24.91773,61.21818c.95866-.13906.78269-.93518.82866-1.58467.02637-.37326.04654-.74694.06957-1.12044-.7626.44824-.45165,2.74436-2.29539,1.33145h0v0C23.69442,60.60062,23.89219,61.36692,24.91773,61.21818Z"/><path class="d" d="M35.51794,58.20661c-.79681.25856-1.727.18361-2.39771.75779l-.005.0056a9.94178,9.94178,0,0,0,4.2266-.89914A12.23967,12.23967,0,0,1,35.51794,58.20661Z"/><path class="d" d="M33.34005,58.71575a4.52059,4.52059,0,0,1,2.17789-.50914,1.93285,1.93285,0,0,0,.88133-.54838h0v0c-1.10221.42064-2.60953-.17231-3.28655,1.31188l.00751-.0057C33.19381,58.882,33.26738,58.79954,33.34005,58.71575Z"/><path class="d" d="M24.70836,59.95858c.27821-.30775.15727-.97575.21084-1.48626-.5209.08889-.07251,1.21707-.96944.90274v0C24.28994,59.494,24.44207,60.25313,24.70836,59.95858Z"/><path class="d" d="M31.02253,56.98905c1.31632.91046,1.99351-.04935,2.76321-.26549C32.94181,56.34409,32.18533,56.66667,31.02253,56.98905Z"/><path class="d" d="M29.719,57.758a.64059.64059,0,0,0,.57895.14526c.16617-.049.2769-.286.47247-.50946a2.34428,2.34428,0,0,0-.68061-.22231C29.7321,57.1849,29.52836,57.42435,29.719,57.758Z"/><path class="a" d="M79.057,32.701c.06794-11.46864-7.97011-20.596-19.48424-22.15563A22.093,22.093,0,0,0,43.72722,50.26325c1.472,1.08448,2.18426,1.13324,3.37973-.46573,6.618-8.85123,15.55152-12.61393,26.50883-11.3356,5.06481.59088,5.04946.74543,5.43651-4.38256C79.08683,33.62241,79.057,33.16059,79.057,32.701ZM65.412,26.04244a1.593,1.593,0,0,1-1.9005.88768.39574.39574,0,0,1-.17793-.69252A1.711,1.711,0,0,1,65.412,26.04244Zm-3.02631-.80184c-.1162-.02853-.275-.46692-.21885-.52425a2.30093,2.30093,0,0,1,2.92073-.40606C64.08789,25.08769,63.32643,25.47167,62.38574,25.2406Zm2.14449-2.84635c-.6829.82-1.30554,1.07281-2.092.7024a.59389.59389,0,0,1-.05544-.55315C62.92745,22.00185,63.57312,21.95694,64.53023,22.39425ZM44.27155,29.93294c.86606-1.34285,1.86359-1.46357,3.577-1.09493A4.68753,4.68753,0,0,1,44.27155,29.93294Zm-.094-2.3366c.17287-.58592.705-.72747,1.2545-.737.3637-.0063.506.26144.58157.57468a1.30543,1.30543,0,0,1-1.30587.699C44.35133,28.12641,44.07925,27.92961,44.17757,27.59634Zm.97311,3.64914c.1687-.5622.79363-.61351,1.29223-.71407.41466-.08366.8414.11784.696.56569a1.26337,1.26337,0,0,1-1.28464.724C45.45085,31.82591,45.00582,31.72821,45.15068,31.24548Zm.62011,2.33428a.62042.62042,0,0,1-.12355-.54152.99479.99479,0,0,1,1.54374-.09461C46.957,33.707,46.38665,33.745,45.77079,33.57976Zm19.282-.89076c-1.482,1.43583-3.11891,2.71151-4.60965,4.13894-.88909.85127-1.0751-.11317-1.52822-.43718q-.1825.23432-.36517.46863c.045.759-.17842,1.28335-1.04457,1.39862-1.0773.14337-1.1463-.70093-1.426-1.35607q-.21608.48135-.43213.96279l-.00017-.00025.00008.00038c-2.87157.86515-5.44664-.37364-8.00048-1.30807a1.47149,1.47149,0,0,1-.18781-2.36146c1.09315-1.26415.92069-5.45632-.03593-6.86266-.48692-.71588-.89333-1.37486-1.89666-1.43935-1.811-.11638-1.66328-1.82374-1.62556-2.77809.045-1.139,1.34474-.2656,2.0603-.45844l.00343.00128-.00334-.00136c.46961-.13109,1.04562.08891,1.40034-.42274-.37007-.08222-.74553-.14561-1.109-.25046-.84124-.2427-1.75752-.64467-1.52079-1.64141.25722-1.08338,1.29444-.497,1.91544-.3761a38.59531,38.59531,0,0,1,4.373,1.18674c.741.23734,1.92206.41145,1.70232,1.40723-.19141.86712-1.29714.40671-2.01409.4614l-.00065-.00013.00049.00028q-.49056.23463-.98144.46955c1.69953.15866,2.465,1.248,2.78,2.78606q.22365-.47455.44724-.9491c.02947-.69193-.38567-1.55821.73467-1.81582,1.155-.26555,1.402.5343,1.62907,1.36544q.20932-.4857.4189-.97159l.00008.00026v-.00047c.082-1.32974,1.19122-2.07576,1.77516-3.12021l-.01723.00165-.00025.00022.00008-.0002-.00024,0,.00024-.00027c.0018-.01222.00523-.02293.00719-.035-.79094-.08348-1.15366.57834-1.68019.96642-.47263.34838-1.00667.91008-1.59967.42053-.71434-.5896.049-1.10379.33733-1.53307a18.45162,18.45162,0,0,1,4.00032-4.00615c.47835-.38105,1.04032-.83333,1.53753-.09554a1.27808,1.27808,0,0,1-.25861,1.64339c-.75157.89387-2.11852,1.2446-2.33671,2.60442l.02874.00205-.01853.03151c1.212-.05749,1.703-1.19006,2.58666-1.73231.6255-.38377,1.20356-1.68871,1.93284-.84936a2.573,2.573,0,0,1,.36027,3.18341A5.525,5.525,0,0,0,64.45,29.60305,1.78345,1.78345,0,0,1,65.05275,32.689Zm-.304-3.892c-.44634.1405-.78595-.08075-.73328-.53827.0472-.41042.45148-.5701.84981-.60492.36648-.032.75909-.08622.87708.381C65.69777,28.70717,65.14666,28.67175,64.74874,28.797Z"/><path class="a" d="M57.095,30.74335c.03536.12391.07341.247.11873.36847.02384.08.04581.16047.06916.24062a2.48447,2.48447,0,0,1,.22244-.44911A1.81122,1.81122,0,0,1,57.095,30.74335Z"/><path class="a" d="M53.85154,29.07481c.08737.18773.16993.37685.24979.56674.00065-.03128.00016-.06237.00131-.09373a1.91577,1.91577,0,0,0-.15164-.62272c-.035-.04567-.06721-.09283-.09824-.14063.0009.09685.004.19315.00082.291Z"/><polygon class="a" points="57.494 20.787 57.494 20.787 57.494 20.787 57.53 20.754 57.494 20.787"/><path class="a" d="M53.84035,29.07139l-.02188-.00667a1.68523,1.68523,0,0,0-.3357,1.45275c.80768,2.42345,1.10883,4.99606,2.16409,7.347-.07814-.88188-.17662-1.75493-.34075-2.62186A31.0934,31.0934,0,0,1,53.84035,29.07139Z"/><path class="a" d="M54.10133,29.64155a13.36553,13.36553,0,0,0,.83944,4.08268,15.11847,15.11847,0,0,1,.36534,1.51839,13.511,13.511,0,0,0,.77305,1.65932h0v0A43.01583,43.01583,0,0,0,54.10133,29.64155Z"/><path class="a" d="M55.82316,25.756c.75411,1.63792.74709,3.5558,1.69766,5.12146l.00057-.001v0l.00009.00013.01714.02085a32.45831,32.45831,0,0,0-1.8021-6.99119A8.26749,8.26749,0,0,0,55.82316,25.756Z"/><path class="a" d="M56.14791,28.1367c.344.8399-.02417,2.07255.94707,2.60665-.02556-.08959-.05014-.17944-.07308-.27-.34974-1.58237-.95622-3.1145-1.19874-4.71726a5.14379,5.14379,0,0,0-.50562-.87838v0A22.62335,22.62335,0,0,0,56.14791,28.1367Z"/><path class="a" d="M49.72653,23.49107h0a1.7803,1.7803,0,0,0-.73051-.56072,2.85847,2.85847,0,0,1-.85284-.1547,6.06082,6.06082,0,0,1-2.179-.11758,11.226,11.226,0,0,0,3.7623.833Z"/><path class="a" d="M48.14318,22.77565a2.36866,2.36866,0,0,1,.85284.1547,10.11267,10.11267,0,0,1,1.71146.09089,9.7991,9.7991,0,0,0-3.34625-.78727A1.88494,1.88494,0,0,0,48.14318,22.77565Z"/><path class="a" d="M53.81847,29.06472,53.831,29.043a3.64069,3.64069,0,0,1-.63448-1.81353,2.27381,2.27381,0,0,0-.69-.95233v0C52.86332,27.24508,52.33826,28.63685,53.81847,29.06472Z"/><path class="a" d="M53.85276,28.78447a7.62614,7.62614,0,0,0-.899-3.45644,15.84115,15.84115,0,0,1,.24276,1.90144A10.01942,10.01942,0,0,0,53.85276,28.78447Z"/><path class="a" d="M53.83455,29.037l-.00351.006.006.00856.00335.01983.01119.00342Z"/><path class="a" d="M58.38378,33.68648l-.25649.56229q.05389.18821.10755.37646c.11048.4654.29454.92041.35954,1.39206a1.92672,1.92672,0,0,0,.3205.37347C59.08742,35.42078,58.51778,34.59635,58.38378,33.68648Z"/><path class="a" d="M58.59438,36.01729a4.88474,4.88474,0,0,1-.53756-1.61413l-.09284.20346c-.0503-.13548-.10591-.27033-.16364-.40494a2.73777,2.73777,0,0,0,.16364.405l.58573,2.25271A2.048,2.048,0,0,0,58.59438,36.01729Z"/><path class="a" d="M57.52139,30.90787a10.00116,10.00116,0,0,0,.46153,2.8315,1.107,1.107,0,0,1,.40086-.05289,4.8386,4.8386,0,0,0-.84516-2.789l.00245.0159Z"/><path class="a" d="M57.89359,33.78478c-.17066-.81838-.37677-1.62852-.61072-2.43234-.37628,1.01478.12167,1.926.51747,2.84924C57.75175,34.0264,57.75983,33.877,57.89359,33.78478Z"/><path class="a" d="M57.52139,30.90787c.00017-.00978-.00016-.01948,0-.02927l-.00057-.00109-.01551.02582Z"/><path class="a" d="M57.54107,30.91341l-.01959-.03675-.00009-.00008v.002C57.52834,30.89005,57.534,30.902,57.54107,30.91341Z"/><path class="a" d="M57.89359,33.78478c.0116.0557.02466.11107.03593.16685.0503.14741.09056.29876.1273.45153l.07047-.15439c-.04866-.1697-.09717-.33944-.14437-.5094A.41532.41532,0,0,0,57.89359,33.78478Z"/><path class="e" d="M100.63464,56.778c-1.89936-2.24534-1.91251-2.24917-3.96619-.17548,1.59314.45386,3.27389.40692,4.86981.84491.048.04139.09733.08048.147.11891l.008-.00043-.01167-.01636A7.49253,7.49253,0,0,1,100.63464,56.778Z"/><polygon class="e" points="96.618 56.59 96.618 56.59 96.618 56.59 96.618 56.59"/><path class="e" d="M101.69847,57.57321v0l.01347.00133-.00073-.001-.00988-.008-.00809.00042Z"/><path class="e" d="M108.84873,61.31948c-1.38042-.89188-2.93142-1.45688-4.37815-2.22168.03887.02827.07807.05607.116.086C105.97929,59.94949,107.49281,60.48148,108.84873,61.31948Z"/><path class="e" d="M101.73122,57.60166c.82163.61565,1.8497.86958,2.68694,1.45738-.79086-.69546-1.902-.81259-2.70556-1.48448l-.00066-.00006Z"/><path class="e" d="M105.19872,40.22866c-6.99862-4.09205-16.88458-3.61993-21.71879,1.03722,8.62786,6.70963,9.67838,7.93025,13.14883,15.32583l-.011-.003.00024.001.02858.03266c.30663-1.00314.40012-2.20827,1.81451-2.29548a2.18012,2.18012,0,0,1,2.404,1.94964,4.64752,4.64752,0,0,0,.8165,1.273l.01976.01594.00416-.00022-.00008.00005.0058.0082.00057.00042.00082.00064a4.04763,4.04763,0,0,1,2.78134,1.306,25.26728,25.26728,0,0,1,5.16647,2.27939c.39335.19557.93212.40333.55609.9717-.25673.38809-.69523.18172-1.02562-.007-1.58138-.90329-3.1546-1.82081-4.73075-2.73328v0c-.95768-.52412-2.07386-.80963-2.72891-1.78971l-.046-.03534c-1.75466.07743-3.61971.73041-5.03868-.944l-.00139.00471-.02719-.03734a31.85077,31.85077,0,0,1-.7942,21.33092,19.935,19.935,0,0,0,18.76908-15.13834A20.43185,20.43185,0,0,0,105.19872,40.22866Zm-3.38054,22.94927c.65424-1.683.72365-1.74129,2.68139-2.25218A4.18442,4.18442,0,0,1,101.81818,63.17793Zm1.74919-7.59071a4.98255,4.98255,0,0,1,3.26344-.64039C105.72215,55.87922,104.77565,55.736,103.56737,55.58722Zm4.50823-2.05948c-.00131.35944-.40518.62618-.85887.36607l-.8797.0105c-.97507.40983-.85594-.41612-1.03019-.91073h0c-.47558.2954-.25935,1.082-.84761,1.29734a.4415.4415,0,0,1-.09644.03c-.33463-.39276-.66926-.78551-1.02072-1.19789-.62868.223.05782,1.29621-1.01729,1.33046-.62892-1.45876-1.12883-3.10846-3.06126-3.69217-.54849-.16568-.90542-1.19347-.49231-2.02837.4051-.81875,1.04571-1.51913,1.94917-1.26707,1.17913.32894,1.91274-.49078,2.79456-.66853a14.70265,14.70265,0,0,1,5.90834.11487,1.58956,1.58956,0,0,1,.6,2.78117A4.55681,4.55681,0,0,0,108.0756,53.52774Zm5.45914,1.00545a2.21322,2.21322,0,0,1-2.44336,2.045c-.69589-.13784-1.64107.323-1.44322-.937.20986-1.337.49093-2.60784,2.17716-2.72726C112.9477,52.83443,113.67274,53.48059,113.53474,54.53319Z"/><path class="e" d="M104.57143,51.44378c-.23362.96634.26808,1.96348-.20864,2.87712a.76951.76951,0,0,0,.09644-.03c.55225-.2409-.27837-1.46385.84761-1.29734v0C105.25735,52.40348,105.65462,51.607,104.57143,51.44378Z"/><path class="e" d="M106.7899,52.69177c-.68976,0-.4171.75075-.45287,1.21254.28874-.3758.5823-.3537.8797-.0105h0C107.116,53.46265,107.51282,52.69178,106.7899,52.69177Z"/></svg>