<svg xmlns="http://www.w3.org/2000/svg" viewBox="0 0 122.38654 150.00001"><defs><style>.a{fill:#1e1e1e;}</style></defs><path class="a" d="M26.77374,92.74683c1.11176,3.07934.08539,3.25048-6.37286,4.31958-5.85932.98364-9.32367,2.224-10.09345,8.42559h2.90845c.25659-2.73724,1.36859-4.36212,6.07306-5.004.29956,4.23413-2.95093,9.324-8.34009,9.324-4.53338,0-6.80011-3.55023-6.80011-6.97143,0-3.89209,2.95093-6.886,6.2016-6.886a5.39942,5.39942,0,0,1,3.37879,1.19775l1.92443-2.82324a5.67228,5.67228,0,0,1-2.18109-4.66138,5.5542,5.5542,0,0,1,5.51709-5.81689c4.31983,0,5.34619,5.38892,2.395,6.33008a2.28368,2.28368,0,1,0-4.49072-.813c-.42755,2.05322,1.06934,4.19141,3.892,4.19141a5.8015,5.8015,0,0,0,5.64569-5.98755,7.16076,7.16076,0,0,0-7.48462-7.14209,9.05687,9.05687,0,0,0-9.19537,9.238,7.9208,7.9208,0,0,0,.47027,2.77979C4.833,92.27637,0,96.68176,0,102.96875A10.53752,10.53752,0,0,0,10.82062,113.661c7.3136,0,12.40313-6.62933,12.10388-13.51483,8.16876-.941,9.15247-4.19153,7.09967-8.5968Zm58.18549-.15491a19.31881,19.31881,0,0,0-.37274-3.80335,56.42325,56.42325,0,0,0,28.26672-15.13024,55.20992,55.20992,0,0,0,9.53333-12.6073q-1.39252-.243-2.7912-.45411a52.61849,52.61849,0,0,1-8.641,11.22705A53.74134,53.74134,0,0,1,83.88116,86.26453c-2.71923-7.52112-10.36737-12.22876-20.22491-12.22876a26.04239,26.04239,0,0,0-17.45074,6.3634A53.60107,53.60107,0,0,1,35.3053,72.2771,52.93954,52.93954,0,0,1,30.184,66.54028a48.04,48.04,0,0,0,7.79321-8.06555c.08374,7.30042,4.20746,11.13819,11.72815,11.13819,8.28833,0,14.89972-4.67273,19.90869-10.5304a20.80076,20.80076,0,0,0-.12262,2.10474c0,4.7395,2.40717,8.42566,7.22193,8.42566,6.0935,0,10.60748-6.01819,10.60748-6.01819s0,6.01819,6.84595,6.01819c7.74908,0,14.51977-8.80176,20.31244-18.88294a4.165,4.165,0,0,0-3.23511-2.332c-5.11566,8.72656-11.05859,16.17468-14.89545,16.17468-1.655,0-3.08441-1.42932.22553-9.62951l16.25006-40.24866h-7.89929L96.79968,34.70581s-1.12805-6.09363-7.44769-6.09363c-8.4624,0-14.42017,10.73694-17.48364,20.33435-5.615,9.25708-13.27619,15.6261-20.43268,15.6261-9.5542,0-5.191-11.35986-5.191-11.35986,9.62958,1.05334,16.09937-.9032,20.01154-9.10291,4.363-9.02783.60174-15.49768-6.77088-15.49768-9.451,0-16.79724,10.51673-19.90253,20.35169C35.08148,56.4054,29.17834,61.80811,23.60028,64.64124a16.25911,16.25911,0,0,1-4.074.51489,6.7392,6.7392,0,0,1-3.2323-.74134,7.63487,7.63487,0,0,1-2.38593-1.993,10.53387,10.53387,0,0,1-1.61627-2.8728,25.05933,25.05933,0,0,1-1.00067-3.29016,37.2137,37.2137,0,0,1-.69263-8.9906,45.77383,45.77383,0,0,1,1.19293-10.2876,64.10384,64.10384,0,0,1,3.194-10.05627,61.71229,61.71229,0,0,1,4.61786-9.08277,58.01047,58.01047,0,0,1,5.38757-7.41479,27.601,27.601,0,0,1,5.50293-5.00464,9.31493,9.31493,0,0,1,5.0412-1.8075,7.70306,7.70306,0,0,1,3.348.64905,6.64815,6.64815,0,0,1,2.15528,1.57556,5.39508,5.39508,0,0,1,1.116,1.89978,5.62189,5.62189,0,0,1,.30762,1.62207q0,6.6731-3.8482,6.67334a2.6258,2.6258,0,0,1-2.38593-1.06616,6.35039,6.35039,0,0,1-.92334-2.178,1.11221,1.11221,0,0,0-.76965-.92688,1.01353,1.01353,0,0,0-1.07764.2782,7.33974,7.33974,0,0,0-1.57764,2.13184,7.51779,7.51779,0,0,0-.73132,3.52185,7.5419,7.5419,0,0,0,.61566,3.24377A5.29035,5.29035,0,0,0,33.38,23.07812a6.62777,6.62777,0,0,0,2.11664,1.06568,7.77937,7.77937,0,0,0,2.1933.32446,10.38544,10.38544,0,0,0,2.65527-.46484,7.71119,7.71119,0,0,0,3.15558-1.86084,11.65156,11.65156,0,0,0,2.61695-3.99976,17.7544,17.7544,0,0,0,1.116-6.88623,11.81878,11.81878,0,0,0-1.42395-6.27917,9.82551,9.82551,0,0,0-3.23224-3.34937,9.46483,9.46483,0,0,0-3.425-1.30212Q37.53616.09339,37.15125,0a20.08551,20.08551,0,0,0-9.38947,2.32007A34.99819,34.99819,0,0,0,19.411,8.44568a48.90578,48.90578,0,0,0-7.04218,8.77038A64.90689,64.90689,0,0,0,7.01953,27.56323a69.63369,69.63369,0,0,0-3.42486,10.764,44.75093,44.75093,0,0,0-1.23133,9.93005,55.78111,55.78111,0,0,0,.73133,9.32789,21.93564,21.93564,0,0,0,2.53961,7.42333,13.10671,13.10671,0,0,0,4.8872,4.87293,15.47943,15.47943,0,0,0,7.7735,1.76245A14.47322,14.47322,0,0,0,23.69781,70.587c-.18463.09631-.36791.1958-.554.28869.31873-.13965.63385-.29211.94891-.4447a16.91265,16.91265,0,0,0,1.89875-.96521c.65265-.38489,1.29315-.804,1.924-1.25012.048-.03259.09717-.06214.14508-.09509a55.61706,55.61706,0,0,0,5.369,6.01306,56.27,56.27,0,0,0,10.82476,8.17456,23.58789,23.58789,0,0,0-6.3222,15.70984,18.554,18.554,0,0,0,2.61255,9.5794l4.75635-3.55023a14.43808,14.43808,0,0,1-1.60785-6.297c0-3.96386,2.07714-8.93359,5.9646-12.68188a56.58535,56.58535,0,0,0,8.736,3.059,16.79649,16.79649,0,0,0-2.30744,3.99573L40.00885,132.04919h7.03381l8.97675-22.174a33.79366,33.79366,0,0,0,5.42627,2.01014c4.42114,2.67926,5.158,6.29693,3.48328,15.60821l-1.74158,9.5127c-1.20587,8.03881,2.8136,13.66607,10.71863,12.92889V144.241c-4.01972,0-4.82349-1.94263-4.35456-6.69892l2.0763-11.52221c.804-4.55506,1.206-10.38361-3.28205-13.53174C78.528,111.55029,84.95923,102.3728,84.95923,92.59192Zm5.74695-57.28418c3.76147,0,3.68609,5.4165,3.68609,5.4165L88.14856,56.14648s-4.21307,6.92139-8.65161,6.92139c-1.655,0-2.48273-.978-2.48273-3.08447C77.01422,54.03992,83.63464,35.30774,90.70618,35.30774ZM58.95874,35.082c2.63318,0,2.934,2.18152.67706,6.99634-1.95587,4.213-4.81482,8.12475-12.037,6.84656C47.59882,48.92493,52.41364,35.082,58.95874,35.082ZM51.91614,83.189a19.65371,19.65371,0,0,1,11.60608-3.65991c6.78387,0,11.61609,3.14026,13.71,7.66992q-1.98376.15564-4.00647.16968-2.645.01575-5.22693-.21753A54.42389,54.42389,0,0,1,60.481,85.94946,53.93218,53.93218,0,0,1,51.91614,83.189Zm5.845,22.332,4.4884-11.12006a14.48177,14.48177,0,0,1,3.21234-4.90173,57.92892,57.92892,0,0,0,7.78034.4801c1.63275-.00977,3.24774-.09168,4.8443-.23474a13.269,13.269,0,0,1,.30761,2.84741C78.3941,101.76953,70.22144,111.751,57.76111,105.52094Zm57.20654,7.6369c-3.68457,6.23-7.83765,8.50781-11.38837,7.77069,2.88056-5.426,4.48865-11.78986,4.48865-15.94342,0-6.43079-3.75146-9.44568-8.7091-9.44568-12.25879,0-19.09211,18.35553-19.09211,26.99713,0,6.49823,3.81842,9.51263,8.77594,9.51263,4.957,0,9.0437-3.0144,12.125-7.2348,6.76593,1.74134,12.66132-2.546,16.68048-9.57953A3.70864,3.70864,0,0,0,114.96765,113.15784Zm-15.80957,1.87579a4.14626,4.14626,0,0,0-3.48334,7.03406c-1.94317,3.0813-4.1535,5.22528-6.23053,5.22528-1.80835,0-2.94744-1.54071-2.94744-4.08673,0-6.23,6.69891-22.91059,12.59442-22.91059,1.54065,0,2.74621,1.13929,2.74621,3.9524C101.8374,106.794,100.76569,110.94745,99.15808,115.03363Z"/></svg>