<svg xmlns="http://www.w3.org/2000/svg" xmlns:xlink="http://www.w3.org/1999/xlink" viewBox="0 0 197.42406 150"><defs><style>.a{fill:#a85210;}.b{fill:url(#a);}.c{fill:url(#b);}.d{fill:url(#c);}</style><radialGradient id="a" cx="108.63465" cy="26.59821" r="35.85773" gradientUnits="userSpaceOnUse"><stop offset="0" stop-color="#f7931e"/><stop offset="0.53352" stop-color="#f7941f"/><stop offset="0.80446" stop-color="#f79621"/><stop offset="0.90203" stop-color="#f89d28"/><stop offset="0.97136" stop-color="#faa833"/><stop offset="1" stop-color="#fbb03b"/></radialGradient><radialGradient id="b" cx="122.88324" cy="47.70217" r="0.00946" xlink:href="#a"/><radialGradient id="c" cx="122.89314" cy="47.7256" r="0.00856" xlink:href="#a"/></defs><path class="a" d="M24.17069,141.0583q.45777-.04873.89611-.07292.43815-.02437,1.00312-.02457a3.80479,3.80479,0,0,1,1.50964.27267,2.90726,2.90726,0,0,1,1.05227.75026,3.06106,3.06106,0,0,1,.61828,1.11014,4.44515,4.44515,0,0,1,.19975,1.34436,4.39309,4.39309,0,0,1-.20451,1.34912,3.07429,3.07429,0,0,1-.62819,1.11529,2.961,2.961,0,0,1-1.0812.75462,4.032,4.032,0,0,1-1.573.27783q-.55526,0-.969-.02457-.41436-.02437-.82318-.07293Zm1.8699.70112q-.28239,0-.516.01466c-.15576.00991-.29884.02141-.42844.03409v5.26966q.20451.02913.42844.03884.22412.01011.46767.00991a2.9146,2.9146,0,0,0,1.12955-.19976,2.07256,2.07256,0,0,0,.78435-.55526,2.26524,2.26524,0,0,0,.453-.84736,3.81463,3.81463,0,0,0,.14585-1.086,3.46773,3.46773,0,0,0-.14585-1.00827,2.51169,2.51169,0,0,0-.44826-.85688,2.13437,2.13437,0,0,0-.76928-.5945A2.57673,2.57673,0,0,0,26.04059,141.75942Z"/><path class="a" d="M31.27141,145.68511a1.80239,1.80239,0,0,0,.49661,1.11013,1.48143,1.48143,0,0,0,1.0812.39951,3.08871,3.08871,0,0,0,.7891-.09275,4.19588,4.19588,0,0,0,.67218-.23859l.20451.75026a3.74646,3.74646,0,0,1-.7891.26277,4.54425,4.54425,0,0,1-.9837.0975,2.56507,2.56507,0,0,1-.9837-.18033,2.04656,2.04656,0,0,1-.74511-.516,2.29637,2.29637,0,0,1-.47243-.82794,3.51557,3.51557,0,0,1-.16567-1.12519,3.24207,3.24207,0,0,1,.16567-1.05188,2.55366,2.55366,0,0,1,.46728-.8426,2.10823,2.10823,0,0,1,1.65588-.75462,2.29262,2.29262,0,0,1,.95477.18509,1.91559,1.91559,0,0,1,.68169.50611,2.15245,2.15245,0,0,1,.409.75027,2.97467,2.97467,0,0,1,.13634.90562q0,.34124-.02893.66267Zm1.3733-2.25039a1.22914,1.22914,0,0,0-.93971.39,1.92176,1.92176,0,0,0-.4435,1.14937h2.77593a1.61755,1.61755,0,0,0-.36978-1.13986A1.3259,1.3259,0,0,0,32.64471,143.43472Z"/><path class="a" d="M39.76446,146.18172a1.16779,1.16779,0,0,0,.21917.77919.7627.7627,0,0,0,.60877.25326,1.475,1.475,0,0,0,.36027-.044,2.01418,2.01418,0,0,0,.31191-.10225l.214.711a2.31949,2.31949,0,0,1-.43319.13634,2.56963,2.56963,0,0,1-.56993.05866,1.94229,1.94229,0,0,1-.62819-.0975,1.33315,1.33315,0,0,1-.50176-.302,1.39967,1.39967,0,0,1-.33609-.52593,2.20346,2.20346,0,0,1-.12167-.77919v-5.62h.87669Z"/><path class="a" d="M41.81985,145.35377a3.12662,3.12662,0,0,1,.17518-1.057,2.60062,2.60062,0,0,1,.49185-.85212,2.26327,2.26327,0,0,1,.75977-.56477,2.2864,2.2864,0,0,1,.96943-.20451,2.02029,2.02029,0,0,1,.79386.1506,2.39409,2.39409,0,0,1,.61828.37533v-.40941h.79861v3.8377q0,.37038.18034.48234a.73435.73435,0,0,0,.39435.11217l-.18509.68169a1.01515,1.01515,0,0,1-1.12955-.75977,2.89711,2.89711,0,0,1-.26792.30676,1.76589,1.76589,0,0,1-.78435.453,1.99163,1.99163,0,0,1-.53545.06817,2.1603,2.1603,0,0,1-.89135-.18509,2.12225,2.12225,0,0,1-.72093-.52593,2.54647,2.54647,0,0,1-.4867-.82319A3.07587,3.07587,0,0,1,41.81985,145.35377Zm2.47391,1.841a1.47779,1.47779,0,0,0,.70151-.17558,1.7357,1.7357,0,0,0,.55527-.45777v-2.71726a2.40447,2.40447,0,0,0-.57984-.29725,1.98735,1.98735,0,0,0-.667-.11217,1.4969,1.4969,0,0,0-.64285.13674,1.45116,1.45116,0,0,0-.50176.38444,1.8,1.8,0,0,0-.32618.59926,2.41655,2.41655,0,0,0-.11692.76929,2.33973,2.33973,0,0,0,.11692.755,1.75886,1.75886,0,0,0,.33093.59411,1.51658,1.51658,0,0,0,.50176.38484A1.44846,1.44846,0,0,0,44.29376,147.19475Z"/><path class="a" d="M53.01113,147.97394a2.13227,2.13227,0,0,1-1.60238-.711,2.48274,2.48274,0,0,1-.48233-.82319,3.16063,3.16063,0,0,1-.17518-1.086,3.06791,3.06791,0,0,1,.18033-1.06653,2.70814,2.70814,0,0,1,.4867-.84736,2.294,2.294,0,0,1,.71617-.56,1.91258,1.91258,0,0,1,.86679-.20451,1.75865,1.75865,0,0,1,.87193.20451,2.426,2.426,0,0,1,.56953.41853v-2.6491h.87669v5.98028q0,.37038.18034.48234a.73336.73336,0,0,0,.39435.11217l-.18509.68169a1.02276,1.02276,0,0,1-1.12995-.74035,2.237,2.237,0,0,1-.60362.56A1.72864,1.72864,0,0,1,53.01113,147.97394Zm.1946-.77919a1.46274,1.46274,0,0,0,.68685-.17043,1.76293,1.76293,0,0,0,.55011-.4431v-2.51315a1.92133,1.92133,0,0,0-.51127-.43359,1.45846,1.45846,0,0,0-1.3733-.05351,1.49824,1.49824,0,0,0-.49185.39951,1.78135,1.78135,0,0,0-.31191.59886,2.51007,2.51007,0,0,0-.107.74511,2.29854,2.29854,0,0,0,.11692.75026,1.81216,1.81216,0,0,0,.32618.58895,1.51746,1.51746,0,0,0,.49661.3896A1.38282,1.38282,0,0,0,53.20573,147.19475Z"/><path class="a" d="M56.57616,145.32445a2.977,2.977,0,0,1,.195-1.10538,2.45518,2.45518,0,0,1,.53069-.8327,2.30822,2.30822,0,0,1,.79861-.52593,2.75946,2.75946,0,0,1,1.98722,0,2.358,2.358,0,0,1,.80337.52593,2.42866,2.42866,0,0,1,.53584.82794,2.91832,2.91832,0,0,1,.1946,1.09072,3.01533,3.01533,0,0,1-.18984,1.09586,2.46854,2.46854,0,0,1-.53069.84261,2.3607,2.3607,0,0,1-.80377.5406,2.60655,2.60655,0,0,1-.99836.18984,2.56705,2.56705,0,0,1-1.00788-.195,2.3583,2.3583,0,0,1-.799-.54535,2.52157,2.52157,0,0,1-.52594-.83746A2.93,2.93,0,0,1,56.57616,145.32445Zm4.14922,0a2.12265,2.12265,0,0,0-.12167-.72054,1.84887,1.84887,0,0,0-.34085-.5945,1.69747,1.69747,0,0,0-.516-.40387,1.41012,1.41012,0,0,0-.648-.151,1.48431,1.48431,0,0,0-1.19812.50652,2.01046,2.01046,0,0,0-.42844,1.344,2.16579,2.16579,0,0,0,.12168.72568,1.89931,1.89931,0,0,0,.34084.604,1.65742,1.65742,0,0,0,.51643.409,1.40837,1.40837,0,0,0,.64761.151,1.64278,1.64278,0,0,0,.68209-.13634,1.43193,1.43193,0,0,0,.51127-.38484,1.75538,1.75538,0,0,0,.32143-.58935A2.42852,2.42852,0,0,0,60.72538,145.32445Z"/><path class="a" d="M67.31959,147.90577a1.302,1.302,0,0,1-.74035-.18509.96069.96069,0,0,1-.37969-.53584,2.84542,2.84542,0,0,1-.78435.56993,2.15284,2.15284,0,0,1-.969.21917,2.00535,2.00535,0,0,1-.6381-.10225,1.46287,1.46287,0,0,1-.54536-.32619,1.57,1.57,0,0,1-.37968-.58459,2.40315,2.40315,0,0,1-.1415-.87669v-3.29235h.8767v3.17543a1.44743,1.44743,0,0,0,.2485.91078.88835.88835,0,0,0,.74511.31667,1.932,1.932,0,0,0,.77919-.16092,2.30825,2.30825,0,0,0,.66227-.43319v-3.80877H66.93V146.542a1.0151,1.0151,0,0,0,.04875.346.526.526,0,0,0,.12643.20451.43162.43162,0,0,0,.18509.10226.81269.81269,0,0,0,.21442.02933Z"/><path class="a" d="M71.80966,143.71731a2.92426,2.92426,0,0,0-.52594-.19975,2.17889,2.17889,0,0,0-.54535-.063,1.60989,1.60989,0,0,0-.6381.12643,1.42992,1.42992,0,0,0-.51127.36542,1.72051,1.72051,0,0,0-.33609.57944,2.30885,2.30885,0,0,0-.12168.7792,2.35119,2.35119,0,0,0,.11217.74035,1.91144,1.91144,0,0,0,.31627.59886,1.488,1.488,0,0,0,.4871.40426,1.35639,1.35639,0,0,0,.63294.14625,2.235,2.235,0,0,0,.63334-.07808,2.8953,2.8953,0,0,0,.56478-.24335l.27268.74035a3.15036,3.15036,0,0,1-.6817.26277,3.33771,3.33771,0,0,1-.84736.0975,2.39357,2.39357,0,0,1-.9837-.195,2.16447,2.16447,0,0,1-.74987-.54535,2.4666,2.4666,0,0,1-.48233-.83746,3.22271,3.22271,0,0,1-.17043-1.07168,3.059,3.059,0,0,1,.17043-1.0277,2.49584,2.49584,0,0,1,.49185-.84221,2.342,2.342,0,0,1,.77443-.56993,2.39909,2.39909,0,0,1,1.01779-.20926,3.25976,3.25976,0,0,1,.75977.07768,3.15,3.15,0,0,1,.62344.22393Z"/><path class="a" d="M73.63121,145.68511a1.80239,1.80239,0,0,0,.49661,1.11013,1.48143,1.48143,0,0,0,1.0812.39951,3.08871,3.08871,0,0,0,.7891-.09275,4.19554,4.19554,0,0,0,.67218-.23859l.20451.75026a3.74646,3.74646,0,0,1-.7891.26277,4.54425,4.54425,0,0,1-.9837.0975,2.5651,2.5651,0,0,1-.9837-.18033,2.04656,2.04656,0,0,1-.74511-.516,2.29637,2.29637,0,0,1-.47243-.82794,3.51557,3.51557,0,0,1-.16567-1.12519,3.24207,3.24207,0,0,1,.16567-1.05188,2.55366,2.55366,0,0,1,.46728-.8426,2.10823,2.10823,0,0,1,1.65588-.75462,2.29258,2.29258,0,0,1,.95477.18509,1.91559,1.91559,0,0,1,.68169.50611,2.15245,2.15245,0,0,1,.409.75027,2.97467,2.97467,0,0,1,.13634.90562q0,.34124-.02893.66267Zm1.3733-2.25039a1.22914,1.22914,0,0,0-.93971.39,1.92176,1.92176,0,0,0-.4435,1.14937h2.77593a1.61755,1.61755,0,0,0-.36978-1.13986A1.32588,1.32588,0,0,0,75.00451,143.43472Z"/><path class="a" d="M82.90385,147.90577a1.302,1.302,0,0,1-.74036-.18509.96072.96072,0,0,1-.37968-.53584,2.84542,2.84542,0,0,1-.78435.56993,2.15288,2.15288,0,0,1-.969.21917,2.00529,2.00529,0,0,1-.63809-.10225,1.46287,1.46287,0,0,1-.54536-.32619,1.56985,1.56985,0,0,1-.37969-.58459,2.40316,2.40316,0,0,1-.14149-.87669v-3.29235h.87669v3.17543a1.44749,1.44749,0,0,0,.2485.91078.88838.88838,0,0,0,.74511.31667,1.932,1.932,0,0,0,.77919-.16092,2.3083,2.3083,0,0,0,.66228-.43319v-3.80877h.87669V146.542a1.0151,1.0151,0,0,0,.04875.346.526.526,0,0,0,.12643.20451.43162.43162,0,0,0,.18509.10226.81268.81268,0,0,0,.21441.02933Z"/><path class="a" d="M87.00432,143.63963a1.12785,1.12785,0,0,0-.43835-.07808,1.27216,1.27216,0,0,0-.53108.11692,1.31056,1.31056,0,0,0-.45777.35076,1.77687,1.77687,0,0,0-.32143.59886,2.73,2.73,0,0,0-.12167.862V147.857h-.87669v-5.06515h.84736v1.101a2.35977,2.35977,0,0,1,.23384-.45817,1.74185,1.74185,0,0,1,.3456-.38959,1.66452,1.66452,0,0,1,.46292-.26753,1.59984,1.59984,0,0,1,.5842-.10225,2.85034,2.85034,0,0,1,.28734.01427,1.58279,1.58279,0,0,1,.2485.044Z"/><path class="a" d="M90.72471,145.35377a3.12662,3.12662,0,0,1,.17518-1.057,2.60079,2.60079,0,0,1,.49185-.85212,2.26337,2.26337,0,0,1,.75977-.56477,2.28645,2.28645,0,0,1,.96944-.20451,2.02027,2.02027,0,0,1,.79385.1506,2.39409,2.39409,0,0,1,.61828.37533v-.40941h.79862v3.8377q0,.37038.18033.48234a.73435.73435,0,0,0,.39435.11217l-.18509.68169a1.01515,1.01515,0,0,1-1.12955-.75977,2.89711,2.89711,0,0,1-.26792.30676,1.76589,1.76589,0,0,1-.78435.453,1.99155,1.99155,0,0,1-.53544.06817,2.16031,2.16031,0,0,1-.89136-.18509,2.12244,2.12244,0,0,1-.72093-.52593,2.54647,2.54647,0,0,1-.4867-.82319A3.0761,3.0761,0,0,1,90.72471,145.35377Zm2.47392,1.841a1.47785,1.47785,0,0,0,.70151-.17558,1.73566,1.73566,0,0,0,.55526-.45777v-2.71726a2.40422,2.40422,0,0,0-.57983-.29725,1.9874,1.9874,0,0,0-.667-.11217,1.49694,1.49694,0,0,0-.64286.13674,1.45116,1.45116,0,0,0-.50176.38444,1.8,1.8,0,0,0-.32618.59926,2.41655,2.41655,0,0,0-.11692.76929,2.33973,2.33973,0,0,0,.11692.755,1.75888,1.75888,0,0,0,.33094.59411,1.51648,1.51648,0,0,0,.50176.38484A1.44846,1.44846,0,0,0,93.19863,147.19475Zm.85727-4.93833-1.948-.99361.409-.818,1.841,1.21754Z"/><path class="a" d="M103.23143,143.71731a2.93831,2.93831,0,0,0-.52633-.19975,2.179,2.179,0,0,0-.54536-.063,1.60993,1.60993,0,0,0-.6381.12643,1.43,1.43,0,0,0-.51127.36542,1.72051,1.72051,0,0,0-.33609.57944,2.51993,2.51993,0,0,0-.00951,1.51955,1.91146,1.91146,0,0,0,.31628.59886,1.48514,1.48514,0,0,0,.48749.40426,1.35251,1.35251,0,0,0,.63255.14625,2.2369,2.2369,0,0,0,.63334-.07808,2.89789,2.89789,0,0,0,.56517-.24335l.27268.74035a3.17433,3.17433,0,0,1-.6817.26277,3.34214,3.34214,0,0,1-.84736.0975,2.39865,2.39865,0,0,1-.98449-.195,2.1681,2.1681,0,0,1-.74987-.54535,2.47224,2.47224,0,0,1-.48194-.83746,3.233,3.233,0,0,1-.17042-1.07168,3.069,3.069,0,0,1,.17042-1.0277,2.49017,2.49017,0,0,1,.49225-.84221,2.343,2.343,0,0,1,.77364-.56993,2.40019,2.40019,0,0,1,1.01858-.20926,3.25631,3.25631,0,0,1,.75938.07768,3.15522,3.15522,0,0,1,.623.22393Z"/><path class="a" d="M105.47151,143.60039a2.34287,2.34287,0,0,1,.68645-.66227,1.8057,1.8057,0,0,1,.98846-.26277,1.56045,1.56045,0,0,1,1.28095.516,2.07947,2.07947,0,0,1,.42408,1.36378V147.857h-.87669v-3.20476a1.421,1.421,0,0,0-.24811-.88144.84675.84675,0,0,0-.71657-.32619,1.25082,1.25082,0,0,0-.4431.08284,1.67308,1.67308,0,0,0-.41377.22908,2.5786,2.5786,0,0,0-.37018.34085,3.16726,3.16726,0,0,0-.31152.409V147.857h-.87669v-7.20773h.87669Z"/><path class="a" d="M110.01984,145.35377a3.13651,3.13651,0,0,1,.17518-1.057,2.59478,2.59478,0,0,1,.49225-.85212,2.254,2.254,0,0,1,.75938-.56477,2.28511,2.28511,0,0,1,.96943-.20451,2.01832,2.01832,0,0,1,.79346.1506,2.40566,2.40566,0,0,1,.61907.37533v-.40941h.79822v3.8377q0,.37038.18073.48234a.732.732,0,0,0,.394.11217l-.1847.68169a1.01578,1.01578,0,0,1-1.13034-.75977,2.85217,2.85217,0,0,1-.26792.30676,1.76164,1.76164,0,0,1-.784.453,1.99465,1.99465,0,0,1-.53585.06817,2.1598,2.1598,0,0,1-.891-.18509,2.12481,2.12481,0,0,1-.72053-.52593,2.555,2.555,0,0,1-.48749-.82319A3.09416,3.09416,0,0,1,110.01984,145.35377Zm2.47392,1.841a1.48011,1.48011,0,0,0,.70151-.17558,1.72571,1.72571,0,0,0,.55487-.45777v-2.71726a2.39441,2.39441,0,0,0-.57944-.29725,1.98968,1.98968,0,0,0-.66743-.11217,1.49818,1.49818,0,0,0-.64285.13674,1.45568,1.45568,0,0,0-.501.38444,1.78675,1.78675,0,0,0-.32658.59926,2.42773,2.42773,0,0,0-.11731.76929,2.35063,2.35063,0,0,0,.11731.755,1.74614,1.74614,0,0,0,.33134.59411,1.50851,1.50851,0,0,0,.50176.38484A1.44416,1.44416,0,0,0,112.49376,147.19475Z"/><path class="a" d="M120.5005,142.79187V150h-.87669v-2.6594a2.89472,2.89472,0,0,1-.2481.21917,1.9374,1.9374,0,0,1-.32183.20491,2.02729,2.02729,0,0,1-.394.1506,1.72733,1.72733,0,0,1-.45816.05866,2.22145,2.22145,0,0,1-.85212-.17042,2.04367,2.04367,0,0,1-.72609-.50652,2.55114,2.55114,0,0,1-.501-.82319,3.36751,3.36751,0,0,1-.00555-2.2159,2.582,2.582,0,0,1,.50651-.84261,2.30809,2.30809,0,0,1,.75066-.54535,2.18813,2.18813,0,0,1,.91553-.1946,2.01832,2.01832,0,0,1,.79346.1506,2.38735,2.38735,0,0,1,.61828.37533v-.40941Zm-2.12356.64285a1.43854,1.43854,0,0,0-1.09071.497,1.76846,1.76846,0,0,0-.33609.58935,2.39115,2.39115,0,0,0-.12207.79385,2.3204,2.3204,0,0,0,.12683.78871,1.78718,1.78718,0,0,0,.3456.5941,1.49508,1.49508,0,0,0,.50176.37018,1.43968,1.43968,0,0,0,.5945.12683,1.4014,1.4014,0,0,0,.711-.18509,1.80676,1.80676,0,0,0,.516-.42844v-2.73708a2.39441,2.39441,0,0,0-.57944-.29725A1.98968,1.98968,0,0,0,118.37694,143.43472Z"/><path class="a" d="M126.5882,147.90577a1.30207,1.30207,0,0,1-.74036-.18509.96257.96257,0,0,1-.37968-.53584,2.85546,2.85546,0,0,1-.784.56993,2.157,2.157,0,0,1-.96944.21917,2.00349,2.00349,0,0,1-.63809-.10225,1.466,1.466,0,0,1-.54536-.32619,1.5651,1.5651,0,0,1-.37969-.58459,2.40364,2.40364,0,0,1-.14109-.87669v-3.29235h.87669v3.17543a1.44751,1.44751,0,0,0,.2481.91078.88838.88838,0,0,0,.74511.31667,1.93062,1.93062,0,0,0,.77919-.16092,2.31574,2.31574,0,0,0,.66268-.43319v-3.80877h.87589V146.542a1.014,1.014,0,0,0,.04915.346.52183.52183,0,0,0,.12683.20451.42788.42788,0,0,0,.18469.10226.812.812,0,0,0,.214.02933Z"/><path class="a" d="M128.39944,145.68511a1.80488,1.80488,0,0,0,.497,1.11013,1.48141,1.48141,0,0,0,1.0812.39951,3.08109,3.08109,0,0,0,.7887-.09275,4.18209,4.18209,0,0,0,.67218-.23859l.20451.75026a3.735,3.735,0,0,1-.7887.26277,4.54431,4.54431,0,0,1-.9837.0975,2.56375,2.56375,0,0,1-.98371-.18033,2.04652,2.04652,0,0,1-.7451-.516,2.29637,2.29637,0,0,1-.47243-.82794,3.50447,3.50447,0,0,1-.16567-1.12519,3.23134,3.23134,0,0,1,.16567-1.05188,2.55443,2.55443,0,0,1,.46767-.8426,2.10671,2.10671,0,0,1,1.65588-.75462,2.29328,2.29328,0,0,1,.95438.18509,1.91216,1.91216,0,0,1,.68169.50611,2.16548,2.16548,0,0,1,.409.75027,2.96243,2.96243,0,0,1,.13634.90562q0,.34124-.02933.66267Zm1.3737-2.25039a1.2306,1.2306,0,0,0-.94011.39,1.9266,1.9266,0,0,0-.4431,1.14937h2.77593a1.614,1.614,0,0,0-.37018-1.13986A1.32442,1.32442,0,0,0,129.77314,143.43472Z"/><path class="a" d="M136.06534,140.64929h.87669v2.66891a2.09725,2.09725,0,0,1,.24335-.22432,1.9326,1.9326,0,0,1,.73084-.36027,1.92761,1.92761,0,0,1,.4867-.05826,2.10881,2.10881,0,0,1,1.55363.68169,2.4936,2.4936,0,0,1,.49225.818,3.09359,3.09359,0,0,1,.18469,1.10062,2.98706,2.98706,0,0,1-.195,1.10062,2.76258,2.76258,0,0,1-.516.85251,2.30837,2.30837,0,0,1-.73559.55011,1.95689,1.95689,0,0,1-.84261.195,2.26826,2.26826,0,0,1-1.46089-.53584v.41892h-.818Zm3.67243,4.65574a2.35891,2.35891,0,0,0-.12207-.78395,1.83064,1.83064,0,0,0-.33133-.58935,1.39651,1.39651,0,0,0-1.07645-.497,1.39941,1.39941,0,0,0-.75462.20967,1.76119,1.76119,0,0,0-.51127.453v2.70775a1.832,1.832,0,0,0,.52633.28219,1.89656,1.89656,0,0,0,.64286.10741,1.57072,1.57072,0,0,0,.65236-.13634,1.47013,1.47013,0,0,0,.516-.38484,1.83874,1.83874,0,0,0,.33609-.59411A2.32785,2.32785,0,0,0,139.73777,145.305Z"/><path class="a" d="M141.46183,145.32445a2.97707,2.97707,0,0,1,.1942-1.10538,2.456,2.456,0,0,1,.53109-.8327,2.30614,2.30614,0,0,1,.799-.52593,2.75732,2.75732,0,0,1,1.98642,0,2.36353,2.36353,0,0,1,.80377.52593,2.42866,2.42866,0,0,1,.53584.82794,2.91055,2.91055,0,0,1,.195,1.09072,3.01531,3.01531,0,0,1-.19024,1.09586,2.46944,2.46944,0,0,1-.53109.84261,2.34976,2.34976,0,0,1-.803.5406,2.61,2.61,0,0,1-.99876.18984,2.569,2.569,0,0,1-1.00828-.195,2.35123,2.35123,0,0,1-.79821-.54535,2.51609,2.51609,0,0,1-.52634-.83746A2.92184,2.92184,0,0,1,141.46183,145.32445Zm4.14882,0a2.132,2.132,0,0,0-.12128-.72054,1.86352,1.86352,0,0,0-.34084-.5945,1.70077,1.70077,0,0,0-.51682-.40387,1.40855,1.40855,0,0,0-.64761-.151,1.483,1.483,0,0,0-1.19773.50652,2.00858,2.00858,0,0,0-.42883,1.344,2.15631,2.15631,0,0,0,.12207.72568,1.8771,1.8771,0,0,0,.34085.604,1.65132,1.65132,0,0,0,.516.409,1.40837,1.40837,0,0,0,.64761.151,1.63957,1.63957,0,0,0,.68169-.13634,1.425,1.425,0,0,0,.51127-.38484,1.74935,1.74935,0,0,0,.32183-.58935A2.42852,2.42852,0,0,0,145.61065,145.32445Z"/><path class="a" d="M152.20486,147.90577a1.302,1.302,0,0,1-.74035-.18509.96259.96259,0,0,1-.37969-.53584,2.85546,2.85546,0,0,1-.784.56993,2.15694,2.15694,0,0,1-.96943.21917,2.00355,2.00355,0,0,1-.6381-.10225,1.466,1.466,0,0,1-.54536-.32619,1.56508,1.56508,0,0,1-.37968-.58459,2.40363,2.40363,0,0,1-.1411-.87669v-3.29235h.87669v3.17543a1.44745,1.44745,0,0,0,.24811.91078.88834.88834,0,0,0,.7451.31667,1.93066,1.93066,0,0,0,.7792-.16092,2.31569,2.31569,0,0,0,.66267-.43319v-3.80877h.8759V146.542a1.014,1.014,0,0,0,.04914.346.52183.52183,0,0,0,.12683.20451.42788.42788,0,0,0,.18469.10226.812.812,0,0,0,.214.02933Z"/><path class="a" d="M156.69533,143.71731a2.93867,2.93867,0,0,0-.52634-.19975,2.17889,2.17889,0,0,0-.54535-.063,1.60989,1.60989,0,0,0-.6381.12643,1.42992,1.42992,0,0,0-.51127.36542,1.72051,1.72051,0,0,0-.33609.57944,2.51993,2.51993,0,0,0-.00951,1.51955,1.91144,1.91144,0,0,0,.31627.59886,1.48534,1.48534,0,0,0,.48749.40426,1.35251,1.35251,0,0,0,.63255.14625,2.2369,2.2369,0,0,0,.63334-.07808,2.898,2.898,0,0,0,.56518-.24335l.27267.74035a3.17424,3.17424,0,0,1-.68169.26277,3.34214,3.34214,0,0,1-.84736.0975,2.3987,2.3987,0,0,1-.9845-.195,2.16815,2.16815,0,0,1-.74986-.54535,2.47224,2.47224,0,0,1-.48194-.83746,3.23272,3.23272,0,0,1-.17043-1.07168,3.0688,3.0688,0,0,1,.17043-1.0277,2.49031,2.49031,0,0,1,.49224-.84221,2.34291,2.34291,0,0,1,.77365-.56993,2.40016,2.40016,0,0,1,1.01858-.20926,3.25622,3.25622,0,0,1,.75937.07768,3.15553,3.15553,0,0,1,.623.22393Z"/><path class="a" d="M158.93541,143.60039a2.34287,2.34287,0,0,1,.68645-.66227,1.8057,1.8057,0,0,1,.98846-.26277,1.56045,1.56045,0,0,1,1.28095.516,2.07947,2.07947,0,0,1,.42407,1.36378V147.857h-.87669v-3.20476a1.421,1.421,0,0,0-.2481-.88144.84676.84676,0,0,0-.71657-.32619,1.25087,1.25087,0,0,0-.44311.08284,1.67325,1.67325,0,0,0-.41377.22908,2.57854,2.57854,0,0,0-.37017.34085,3.16546,3.16546,0,0,0-.31152.409V147.857h-.87669v-7.20773h.87669Z"/><path class="a" d="M164.37945,145.68511a1.80488,1.80488,0,0,0,.497,1.11013,1.48141,1.48141,0,0,0,1.0812.39951,3.08109,3.08109,0,0,0,.7887-.09275,4.18209,4.18209,0,0,0,.67218-.23859l.20451.75026a3.735,3.735,0,0,1-.7887.26277,4.54431,4.54431,0,0,1-.9837.0975,2.56375,2.56375,0,0,1-.98371-.18033,2.04652,2.04652,0,0,1-.7451-.516,2.29637,2.29637,0,0,1-.47243-.82794,3.50447,3.50447,0,0,1-.16567-1.12519,3.23134,3.23134,0,0,1,.16567-1.05188,2.55443,2.55443,0,0,1,.46767-.8426,2.10671,2.10671,0,0,1,1.65588-.75462,2.29328,2.29328,0,0,1,.95438.18509,1.91216,1.91216,0,0,1,.68169.50611,2.16548,2.16548,0,0,1,.409.75027,2.96243,2.96243,0,0,1,.13634.90562q0,.34124-.02933.66267Zm1.3737-2.25039a1.2306,1.2306,0,0,0-.94011.39,1.9266,1.9266,0,0,0-.4431,1.14937h2.77593a1.614,1.614,0,0,0-.37018-1.13986A1.32442,1.32442,0,0,0,165.75315,143.43472Zm-1.02254-1.7724,1.84057-1.21754.409.818-1.94759.99361Z"/><path class="a" d="M169.67844,145.68511a1.80492,1.80492,0,0,0,.497,1.11013,1.48144,1.48144,0,0,0,1.0812.39951,3.08117,3.08117,0,0,0,.78871-.09275,4.18209,4.18209,0,0,0,.67218-.23859l.20451.75026a3.73516,3.73516,0,0,1-.7887.26277,4.54434,4.54434,0,0,1-.98371.0975,2.5637,2.5637,0,0,1-.9837-.18033,2.04664,2.04664,0,0,1-.74511-.516,2.29652,2.29652,0,0,1-.47243-.82794,3.50476,3.50476,0,0,1-.16566-1.12519,3.23161,3.23161,0,0,1,.16566-1.05188,2.55445,2.55445,0,0,1,.46768-.8426,2.10667,2.10667,0,0,1,1.65588-.75462,2.29331,2.29331,0,0,1,.95438.18509,1.91224,1.91224,0,0,1,.68169.50611,2.16548,2.16548,0,0,1,.409.75027,2.96274,2.96274,0,0,1,.13634.90562q0,.34124-.02933.66267Zm1.3737-2.25039a1.2306,1.2306,0,0,0-.94011.39,1.9266,1.9266,0,0,0-.4431,1.14937h2.77592a1.614,1.614,0,0,0-.37017-1.13986A1.32442,1.32442,0,0,0,171.05214,143.43472Z"/><path class="a" d="M59.98073,41.27377a3.55439,3.55439,0,0,0-2.75614,1.25894q-1.12291,1.26056-1.12371,4.527V63.2585h1.76927q3.3349,0,4.59465-1.1237a3.55438,3.55438,0,0,0,1.25893-2.75614l1.15752.54414v8.64514l-1.15752.47653a4.61372,4.61372,0,0,0-.30588-1.63405A3.91572,3.91572,0,0,0,62.431,65.947a5.11391,5.11391,0,0,0-1.80309-1.05448,8.08574,8.08574,0,0,0-2.75775-.40892H56.10088V80.61478q0,3.3349,1.12371,4.59465a3.54918,3.54918,0,0,0,2.75614,1.25893l-.54415,1.22513H43.373l-.47653-1.22513A3.4803,3.4803,0,0,0,45.585,85.20943q1.1229-1.25814,1.12371-4.59465v-33.555a4.89809,4.89809,0,0,0-5.105-5.30944,7.09534,7.09534,0,0,0-4.39019,1.56482,6.23008,6.23008,0,0,0-1.4972,1.76928,5.17311,5.17311,0,0,0-.64718,2.315,4.29739,4.29739,0,0,0,1.15752,3.3357,3.84479,3.84479,0,0,0,2.78995,1.22513,3.73374,3.73374,0,0,0,2.92679-1.42959,4.55015,4.55015,0,0,1,.88544,3.09583,6.88516,6.88516,0,0,1-1.02068,3.09744A7.2423,7.2423,0,0,1,39.358,59.10658a6.42316,6.42316,0,0,1-3.40332.95306,7.27754,7.27754,0,0,1-2.51948-.47653,8.95944,8.95944,0,0,1-2.65472-1.634,5.95575,5.95575,0,0,1-1.80308-2.68853A11.32376,11.32376,0,0,1,28.364,51.7558a13.67178,13.67178,0,0,1,.44272-3.67539,9.09786,9.09786,0,0,1,1.4972-3.19886,9.63607,9.63607,0,0,1,3.54016-3.13125A15.2018,15.2018,0,0,1,37.996,40.35452a21.41624,21.41624,0,0,1,4.08431-.33968q1.97292.0338,3.47093.0338H74.275v1.08829a5.29818,5.29818,0,0,0-1.15752.95306,10.60444,10.60444,0,0,0-2.2458,3.87985,12.69654,12.69654,0,0,0-.71479,4.255,7.07317,7.07317,0,0,0,.85,3.43713,2.70693,2.70693,0,0,0,2.51788,1.428,6.79255,6.79255,0,0,1-2.55169,2.2136,6.514,6.514,0,0,1-2.75614.64557,5.21994,5.21994,0,0,1-2.9606-.88383,4.72228,4.72228,0,0,1-1.8723-2.41646,6.22505,6.22505,0,0,1-.03381-3.60777,11.02938,11.02938,0,0,1,2.48407-4.39019,3.243,3.243,0,0,0,.95306-2.07676,2.62744,2.62744,0,0,0-.578-1.70166,4.06035,4.06035,0,0,0-1.66785-1.1559,6.10223,6.10223,0,0,0-2.315-.44273Z"/><path class="a" d="M90.94855,86.47631l-.478,1.2199H74.41371l-.54394-1.2199a3.5423,3.5423,0,0,0,2.753-1.2694c.74186-.84077,1.121-2.37389,1.121-4.59937V45.01567a5.69936,5.69936,0,0,0,.56055.69236,6.24233,6.24233,0,0,0,.69235.62645c.0165.0165.033.0165.033.033h.01641a8.3543,8.3543,0,0,0,.89027.59345,3.2168,3.2168,0,0,0,.41213.21432c.08241.033.16481.066.26372.09891a1.44126,1.44126,0,0,0,.24732.0824,6.2139,6.2139,0,0,0,1.10449.21432,5.26207,5.26207,0,0,0,2.02767-.14831h.0165c.0165,0,.0165,0,.033-.0165a5.10214,5.10214,0,0,0,.90667-.34623q.371-.19772.74186-.445a9.38,9.38,0,0,0,1.45072-1.20349V80.60754q0,3.33822,1.088,4.59937A3.453,3.453,0,0,0,90.94855,86.47631Z"/><path class="a" d="M123.41544,80.61478q0,3.3349,1.12371,4.59465a3.54918,3.54918,0,0,0,2.75614,1.25893l-.54414,1.22513H114.02331V83.40473A10.249,10.249,0,0,1,111.47,86.6052a6.31185,6.31185,0,0,1-4.25335,1.428,12.26238,12.26238,0,0,1-7.89653-2.55168A15.49371,15.49371,0,0,1,94.55645,79.05a21.90294,21.90294,0,0,1,.30589-16.67691,15.95464,15.95464,0,0,1,5.208-6.43153,14.3058,14.3058,0,0,1,8.71114-2.55329,7.79129,7.79129,0,0,1,3.23267.57956,6.89109,6.89109,0,0,1,2.00915,1.32655V53.66192q1.292,0,2.75614-.03542a23.3891,23.3891,0,0,0,2.68853-.20285,6.19638,6.19638,0,0,0,2.00754-.57956,1.22255,1.22255,0,0,0,.78241-1.08829h1.15751Zm-14.8384,3.743a4.69093,4.69093,0,0,0,2.24741-.54414,5.38273,5.38273,0,0,0,1.73547-1.4634,6.62669,6.62669,0,0,0,1.08829-2.11057,8.22352,8.22352,0,0,0,.3751-2.48407V61.48923a8.67641,8.67641,0,0,0-.23826-1.87231,6.23611,6.23611,0,0,0-.85164-2.00754,5.75626,5.75626,0,0,0-1.59862-1.634,4.29282,4.29282,0,0,0-2.48568-.681,4.17568,4.17568,0,0,0-3.53855,2.14438,15.78043,15.78043,0,0,0-2.14438,5.377,33.87048,33.87048,0,0,0-.7486,7.0111,32.59976,32.59976,0,0,0,.64717,7.01109,15.71727,15.71727,0,0,0,2.07516,5.377A4.05228,4.05228,0,0,0,108.577,84.35779Z"/><path class="a" d="M166.36657,86.47243l-.47887,1.22567H149.8162l-.54387-1.22567a3.554,3.554,0,0,0,2.7679-1.26623q1.12012-1.2541,1.12014-4.60229V63.81a13.53226,13.53226,0,0,0-1.18509-6.26629,3.73108,3.73108,0,0,0-3.44156-2.24028,3.35828,3.35828,0,0,0-2.37826,1.12014,9.32107,9.32107,0,0,0-2.0049,3.01952,21.91019,21.91019,0,0,0-1.40422,4.46431,26.04777,26.04777,0,0,0-.54382,5.47079V80.60391q0,3.34824,1.08764,4.60229a3.43421,3.43421,0,0,0,2.7192,1.26623l-.47892,1.22567H129.47519l-.54387-1.22567A3.52148,3.52148,0,0,0,131.683,85.2062c.763-.83607,1.12014-2.37013,1.12014-4.60229V51.75633h.01625a2.05922,2.05922,0,0,0,.08115.30033,9.27429,9.27429,0,0,0,.47892,1.039,6.882,6.882,0,0,0,.49512.73862,3.78,3.78,0,0,0,.56007.57631c.17043.1461.33277.28408.51137.414l.0162.01625a4.68871,4.68871,0,0,0,.68185.39772,5.9462,5.9462,0,0,0,.60877.24349l.0487.01625c.19479.0649.414.1136.60876.17043a5.83362,5.83362,0,0,0,1.40422.0812,6.83718,6.83718,0,0,0,1.05524-.138,4.8916,4.8916,0,0,0,1.39608-.43829,6.82791,6.82791,0,0,0,1.43671-1.05519v5.94972a7.88761,7.88761,0,0,1,.85227-2.39451,8.50731,8.50731,0,0,1,1.737-2.24028,8.6211,8.6211,0,0,1,2.71915-1.69645,9.65826,9.65826,0,0,1,3.80683-.68992,15.84594,15.84594,0,0,1,4.18832.54382,10.22185,10.22185,0,0,1,3.57959,1.74516,8.68408,8.68408,0,0,1,2.51622,3.08442,10.54064,10.54064,0,0,1,.95779,4.69968V80.60391c0,.32465.00813.64122.02438.93342.01625.29225.03245.5682.06495.81982a5.11049,5.11049,0,0,0,1.03081,2.849A3.45192,3.45192,0,0,0,166.36657,86.47243Z"/><path class="a" d="M32.75237,102.30432a15.65639,15.65639,0,0,0-2.72394-4.98906A4.33748,4.33748,0,0,0,26.76678,95.781l.53609-1.38129H46.18373l.615,1.38129a3.287,3.287,0,0,0-2.87849,1.53423q-1.036,1.53825.19158,5.06634L49.40835,116.964,57.16,94.39974h1.99466L67.29107,116.964l5.06473-14.65971a9.42542,9.42542,0,0,0,.615-2.99279,4.37178,4.37178,0,0,0-.42179-2.0333,2.47773,2.47773,0,0,0-1.18971-1.15269A4.07194,4.07194,0,0,0,69.6705,95.781l.61337-1.38129h9.595l.53609,1.38129a4.49909,4.49909,0,0,0-3.30028,1.4972,14.57121,14.57121,0,0,0-2.76259,5.02609L63.91351,132.77481a1.80213,1.80213,0,0,1-1.18971-.49907,6.43574,6.43574,0,0,1-1.11244-1.304,10.71812,10.71812,0,0,1-.9595-1.8047c-.28173-.66327-.55058-1.32977-.80655-1.99466l-6.13854-16.656-7.676,22.25841a1.80355,1.80355,0,0,1-1.15107-.53771,6.62828,6.62828,0,0,1-1.15108-1.34265,13.27959,13.27959,0,0,1-.99814-1.80308,18.60819,18.60819,0,0,1-.76792-1.919Z"/><path class="a" d="M97.07092,133.158a16.31419,16.31419,0,0,1-9.86222-2.87688,17.85087,17.85087,0,0,1-5.90993-7.25419,23.55549,23.55549,0,0,1,0-18.80357,17.84627,17.84627,0,0,1,5.90993-7.25258,16.30408,16.30408,0,0,1,9.86222-2.87849,8.35251,8.35251,0,0,1,4.527,1.03677,9.088,9.088,0,0,1,2.14921,1.72581l1.15107-2.45509h5.4495v15.88644a16.33854,16.33854,0,0,0-6.14014.26885,18.28946,18.28946,0,0,0-5.98559,2.4567,14.43215,14.43215,0,0,0-4.3757,4.33545,8.54842,8.54842,0,0,0-1.304,5.83426,14.31855,14.31855,0,0,0,2.83985,4.37409,6.28,6.28,0,0,0,4.75885,1.84172,5.76125,5.76125,0,0,0,4.49-2.0333,10.36565,10.36565,0,0,0,2.34079-5.33358l1.38129.61337a9.73513,9.73513,0,0,1-.69064,3.49186,11.39405,11.39405,0,0,1-1.95764,3.30029,11.21789,11.21789,0,0,1-3.10871,2.53236,9.66023,9.66023,0,0,1-4.14387,1.18971ZM90.70056,117.0413A9.36689,9.36689,0,0,1,92.8868,113.894a18.467,18.467,0,0,1,3.33893-2.571,17.85487,17.85487,0,0,1,3.76071-1.72741,11.11767,11.11767,0,0,1,3.30029-.61337,27.35536,27.35536,0,0,0-.07567-4.56728,17.13167,17.13167,0,0,0-.92086-4.22114,7.52023,7.52023,0,0,0-1.95763-3.03143,4.66188,4.66188,0,0,0-3.26165-1.15108,4.7642,4.7642,0,0,0-3.91526,1.95763,13.22345,13.22345,0,0,0-2.30215,5.0261,29.26237,29.26237,0,0,0-.80656,6.79214A35.75781,35.75781,0,0,0,90.70056,117.0413Z"/><path class="a" d="M132.37593,133.158a16.31419,16.31419,0,0,1-9.86222-2.87688,17.85077,17.85077,0,0,1-5.90992-7.25419,23.55538,23.55538,0,0,1,0-18.80357,17.84616,17.84616,0,0,1,5.90992-7.25258,16.30408,16.30408,0,0,1,9.86222-2.87849,8.35251,8.35251,0,0,1,4.527,1.03677,9.088,9.088,0,0,1,2.14921,1.72581l1.15108-2.45509h5.44949v15.88644a16.33854,16.33854,0,0,0-6.14014.26885,18.28946,18.28946,0,0,0-5.98559,2.4567,14.43215,14.43215,0,0,0-4.3757,4.33545,8.54847,8.54847,0,0,0-1.304,5.83426,14.31855,14.31855,0,0,0,2.83985,4.37409,6.28,6.28,0,0,0,4.75885,1.84172,5.76125,5.76125,0,0,0,4.49-2.0333,10.36557,10.36557,0,0,0,2.34079-5.33358l1.38129.61337a9.73513,9.73513,0,0,1-.69064,3.49186,11.39405,11.39405,0,0,1-1.95764,3.30029,11.21784,11.21784,0,0,1-3.1087,2.53236,9.66032,9.66032,0,0,1-4.14388,1.18971Zm-6.37035-16.11666a9.36671,9.36671,0,0,1,2.18623-3.14734,18.467,18.467,0,0,1,3.33893-2.571,17.85487,17.85487,0,0,1,3.76071-1.72741,11.11767,11.11767,0,0,1,3.30029-.61337,27.35534,27.35534,0,0,0-.07566-4.56728,17.13121,17.13121,0,0,0-.92087-4.22114,7.52023,7.52023,0,0,0-1.95763-3.03143,4.66188,4.66188,0,0,0-3.26165-1.15108,4.76421,4.76421,0,0,0-3.91526,1.95763,13.22345,13.22345,0,0,0-2.30215,5.0261,29.26237,29.26237,0,0,0-.80656,6.79214A35.75781,35.75781,0,0,0,126.00558,117.0413Z"/><path class="a" d="M168.83415,94.40269v1.53406a.34194.34194,0,0,1-.38965.38152h-4.98375V123.794a26.44428,26.44428,0,0,0,.15422,2.99514,8.24739,8.24739,0,0,0,.60877,2.41888,3.73927,3.73927,0,0,0,1.30682,1.60713,3.83372,3.83372,0,0,0,2.224.57632c.20292,0,.32469.1948.349.57627a1.404,1.404,0,0,1-.11365.80357c-1.28244,0-2.79223-.00807-4.52921-.03245a15.15484,15.15484,0,0,1-4.95135-.88477,8.84229,8.84229,0,0,1-3.99352-2.95452q-1.64364-2.10639-1.64775-6.25816V104.22414a16.14686,16.14686,0,0,0-.84415-6.06332,3.01588,3.01588,0,0,0-3.14937-1.84255c-.25162,0-.38147-.10553-.38147-.30845V94.40269a10.72942,10.72942,0,0,0,4.48863-1.039,15.61047,15.61047,0,0,0,4.10717-2.72728,13.86345,13.86345,0,0,0,1.9075-2.12663h4.46431v5.8929Z"/><path class="a" d="M20.08576,103.13671a11.61186,11.61186,0,0,0-2.68083-5.55022,5.48493,5.48493,0,0,0-3.96418-2.07638,4.52282,4.52282,0,0,0-3.36034,1.4347,5.49436,5.49436,0,0,0-1.39686,4.002,4.13,4.13,0,0,0,1.20829,2.98259,14.486,14.486,0,0,0,3.058,2.34092q1.84937,1.09539,4.00231,2.18988a26.86169,26.86169,0,0,1,4.002,2.49165,12.40936,12.40936,0,0,1,3.058,3.32251,8.719,8.719,0,0,1,1.20829,4.71936q0,6.87231-3.66241,10.08071-3.66316,3.21051-9.703,3.28467a9.89918,9.89918,0,0,1-4.34193-.71734,8.51662,8.51662,0,0,1-2.37845-1.39687l-.75518,1.96318H.07537v-14.0449H4.30409q0,1.20889.1132,3.28467A15.65009,15.65009,0,0,0,5.21,125.56338a9.63912,9.63912,0,0,0,2.07668,3.54891,5.0304,5.0304,0,0,0,3.88881,1.51006,6.06125,6.06125,0,0,0,2.56732-.49064,5.04687,5.04687,0,0,0,1.73677-1.28366,4.98872,4.98872,0,0,0,.98159-1.73677,6.07082,6.07082,0,0,0,.30207-1.85,8.614,8.614,0,0,0-1.24582-4.83287,12.67761,12.67761,0,0,0-3.0961-3.24684,30.44952,30.44952,0,0,0-4.03985-2.492,27.99379,27.99379,0,0,1-4.03986-2.52949,13.19228,13.19228,0,0,1-3.09579-3.28466A8.76017,8.76017,0,0,1,0,103.96726a9.426,9.426,0,0,1,1.28366-5.17248A9.08257,9.08257,0,0,1,4.5305,95.699a13.69572,13.69572,0,0,1,4.41729-1.51036,28.3827,28.3827,0,0,1,4.71936-.41528q2.416,0,5.17248.22641,2.75559.22654,4.94607.2267Z"/><path class="a" d="M192.28942,103.13671a11.61176,11.61176,0,0,0-2.68082-5.55022,5.485,5.485,0,0,0-3.96418-2.07638,4.5228,4.5228,0,0,0-3.36034,1.4347,5.49436,5.49436,0,0,0-1.39687,4.002,4.13,4.13,0,0,0,1.2083,2.98259,14.48587,14.48587,0,0,0,3.058,2.34092q1.84938,1.09539,4.00232,2.18988a26.8622,26.8622,0,0,1,4.002,2.49165,12.40949,12.40949,0,0,1,3.058,3.32251,8.71891,8.71891,0,0,1,1.20829,4.71936q0,6.87231-3.66241,10.08071-3.66315,3.21051-9.703,3.28467a9.89914,9.89914,0,0,1-4.34192-.71734,8.51646,8.51646,0,0,1-2.37845-1.39687l-.75519,1.96318H172.279v-14.0449h4.22873q0,1.20889.1132,3.28467a15.65009,15.65009,0,0,0,.79272,4.11552,9.6391,9.6391,0,0,0,2.07667,3.54891,5.03042,5.03042,0,0,0,3.88882,1.51006,6.06129,6.06129,0,0,0,2.56732-.49064,5.04687,5.04687,0,0,0,1.73677-1.28366,4.98888,4.98888,0,0,0,.98159-1.73677,6.07082,6.07082,0,0,0,.30207-1.85,8.614,8.614,0,0,0-1.24583-4.83287,12.67744,12.67744,0,0,0-3.0961-3.24684,30.44887,30.44887,0,0,0-4.03985-2.492,27.99313,27.99313,0,0,1-4.03985-2.52949,13.19214,13.19214,0,0,1-3.0958-3.28466,8.76017,8.76017,0,0,1-1.24582-4.90824,9.426,9.426,0,0,1,1.28366-5.17248,9.08262,9.08262,0,0,1,3.24683-3.0958,13.69572,13.69572,0,0,1,4.41729-1.51036,28.38272,28.38272,0,0,1,4.71937-.41528q2.416,0,5.17248.22641,2.75559.22654,4.94607.2267Z"/><path class="b" d="M151.79322,23.27939a2.08842,2.08842,0,0,0-.04938-.46153,4.33537,4.33537,0,0,0-.0989-.44514c-.04951-.1484-.09894-.29673-.16492-.44513a7.304,7.304,0,0,0-.46153-.87368,7.38672,7.38672,0,0,0-.84077-1.05508A15.83291,15.83291,0,0,0,148.727,18.6635c-.544-.42862-1.121-.84076-1.69793-1.21987a2.86309,2.86309,0,0,0-.29681-.18132c-.28022-.16492-.56047-.31325-.84069-.47813-3.47847-2.57173-14.50716-6.84137-27.92617-10.61658A166.32464,166.32464,0,0,0,92.87468.777c-.39563-.04951-.77478-.0989-1.154-.14841-.08242,0-.14832-.01651-.23074-.01651a.36345.36345,0,0,0-.13189-.01648h-.0659a1.12108,1.12108,0,0,0-.23083-.03291C89.4787.39773,87.89607.24945,86.31356.167c-1.53313-.0989-3.04986-.1814-4.583-.16492a23.51621,23.51621,0,0,0-3.04973.24734h-.04951c-.26374.04939-.511.08238-.77478.13181-.28022.066-.56055.13189-.84077.21431a7.23361,7.23361,0,0,0-1.38472.577,4.27177,4.27177,0,0,0-.77486.52756,3.57535,3.57535,0,0,0-.70883.85715,5.21192,5.21192,0,0,0-.70888,1.87937c-.04951.32972-.08238.64293-.09889.95618-.033.4121-.033.80773-.033,1.2034,0,.37911.01648.75834,0,1.13746-.01652.32976-.04943.643-.08242.97269-.0659.49453-.14841.97257-.26382,1.46714a20.11261,20.11261,0,0,1-.64285,1.99474c-.28034.69236-.60994,1.36832-.95618,2.02765-.28021.47817-.56055.9397-.87376,1.40131-.28025.42867-.56047.84077-.8572,1.25291h-.01647c-.13193.18132-.28022.37916-.42866.56047-.46154.56051-.89016,1.121-1.31878,1.71453-.39562.56043-.75838,1.13749-1.1045,1.74743a12.28188,12.28188,0,0,0-.90679,2.01118c-.11529.3462-.1978.70883-.28022,1.07159a4.59915,4.59915,0,0,0-.11541.95605,3.9445,3.9445,0,0,0,.31325,1.50022,2.95339,2.95339,0,0,0,.32972.643,2.40626,2.40626,0,0,0,.60994.54395,4.683,4.683,0,0,0,.82429.3792l.14841.04942a5.9916,5.9916,0,0,0,1.055.21431,4.76129,4.76129,0,0,0,1.187,0,9.22151,9.22151,0,0,0,.97258-.19779,5.08979,5.08979,0,0,0,1.1211-.42866,6.53531,6.53531,0,0,0,.89019-.60994A12.50078,12.50078,0,0,0,74.51,25.505a7.707,7.707,0,0,0,1.35181-1.96175,7.55007,7.55007,0,0,0,.577-2.19257v-.033a.20908.20908,0,0,1,.01651-.09894c.06591-.65932.11529-1.3023.14829-1.96174.01651-.67585.04951-1.36821.13193-2.04417a12.2481,12.2481,0,0,1,.23083-1.31881c.09889-.36272.19779-.70884.3296-1.05508a7.2051,7.2051,0,0,1,.37923-.80777c.04943-.0989.11541-.18132.16484-.2637a1.5382,1.5382,0,0,1,.26382-.29685.80824.80824,0,0,1,.21419-.1978,1.17384,1.17384,0,0,1,.23083-.16484c.04951-.033.09889-.04947.1484-.08238.04943-.01652.11542-.04951.16484-.066.033,0,.04947,0,.066-.01639H79.06a.12554.12554,0,0,1,.066.01639.01614.01614,0,0,0,.01639.01652.08562.08562,0,0,0,.033.066c0,.03291.01652.04942.01652.0659v.033a.28049.28049,0,0,1,.01647.11542v.11529a.06071.06071,0,0,0-.01647.04951,3.04187,3.04187,0,0,1-.14845.41214c-.04939.11538-.0989.23079-.14828.32973-.26382.60994-.59346,1.17036-.85729,1.78034a9.72694,9.72694,0,0,0-.75826,2.20905,3.63807,3.63807,0,0,0-.033,1.121,3.58108,3.58108,0,0,0,.31321,1.08807,6.87667,6.87667,0,0,0,.511.89015,1.97347,1.97347,0,0,0,.39563.42867,1.6741,1.6741,0,0,0,.44513.3132,4.59083,4.59083,0,0,0,.97262.37915,1.54267,1.54267,0,0,0,.47813.0989,2.81681,2.81681,0,0,0,.52743-.01652,2.35863,2.35863,0,0,0,.47813-.04938c.1648-.033.32973-.08242.49453-.13193a5.95153,5.95153,0,0,0,.577-.21431,2.63674,2.63674,0,0,0,.52752-.3462,4.03239,4.03239,0,0,0,.75839-.90667,4.31273,4.31273,0,0,0,.39563-.8902,5.58181,5.58181,0,0,0,.1484-.89015c.01648-.26382.01648-.52756.01648-.79138,0-.24722.01643-.511.03291-.77478.033-.16488.04951-.32972.0989-.49452a1.3967,1.3967,0,0,1,.08242-.28034c.01651-.04939.04951-.11541.066-.1648.04939-.066.08238-.11541.13189-.18132a2.82714,2.82714,0,0,1,.19784-.23082.01608.01608,0,0,1,.01639-.01648V16.0753h.01648a2.25987,2.25987,0,0,1,.29673-.26369,2.00406,2.00406,0,0,1,.23083-.16493.34717.34717,0,0,1,.09889-.0659c.033,0,.04951-.01652.08242-.01652a.20883.20883,0,0,1,.0989-.01652.32209.32209,0,0,1,.13193-.01647h.0989c.04951.01647.09889.01647.16492.033.08238.033.14833.04951.23071.08242a.26492.26492,0,0,1,.11541.066.669.669,0,0,1,.14841.08242,1.55526,1.55526,0,0,1,.16484.1648l.13189.13193a1.38753,1.38753,0,0,1,.13193.19779,1.77059,1.77059,0,0,0,.09889.18132,1.52057,1.52057,0,0,0,.06591.21431c.01647.11541.04951.23083.0659.34624.01648.19784.033.41215.033.60994a13.28691,13.28691,0,0,1-.09889,1.61555,21.42557,21.42557,0,0,1-.42862,2.3245c-.13193.49452-.29673.989-.46158,1.48361-.13188.46162-.29669.90675-.46161,1.35181a21.08124,21.08124,0,0,1-1.21992,2.53877,19.42407,19.42407,0,0,1-1.56611,2.4068.35817.35817,0,0,1-.04939.08242c-.24735.34625-.511.65945-.79138.98918-.445.52756-.90667,1.05507-1.35181,1.58255-.24722.2803-.49452.577-.72527.85724-.2473.29673-.49464.60994-.72535.9397A17.61773,17.61773,0,0,0,78.3017,35.561a.01613.01613,0,0,1-.01648.01647V35.594a7.59591,7.59591,0,0,0-.47817.97257,9.64544,9.64544,0,0,0-.3296.9727,5.61606,5.61606,0,0,0-.19784,1.38468,6.34378,6.34378,0,0,0,0,.79138c.03291.26373.06591.511.11533.75826a4.5881,4.5881,0,0,0,.31321,1.05507,8.37607,8.37607,0,0,0,.49465.82429c.03291.033.04939.06591.08242.0989a5.69792,5.69792,0,0,0,.56043.69236,6.24611,6.24611,0,0,0,.69244.62646c.01639.01647.03291.01647.03291.033h.01652a8.35473,8.35473,0,0,0,.89015.59346,3.24632,3.24632,0,0,0,.41214.21431c.08251.033.16493.066.26382.0989a1.43926,1.43926,0,0,0,.24731.08242,6.22387,6.22387,0,0,0,1.1045.21431,5.26209,5.26209,0,0,0,2.02765-.14833h.01652c.01651,0,.01651,0,.033-.01647a5.10374,5.10374,0,0,0,.90667-.34624q.37083-.19772.74187-.44506a9.37721,9.37721,0,0,0,1.4507-1.20348l.14833-.14833a10.74334,10.74334,0,0,0,1.3518-1.86284c0-.01648.01652-.033.033-.04951a8.64753,8.64753,0,0,0,.67588-1.5496,9.36264,9.36264,0,0,0,.32972-1.50014,13.56764,13.56764,0,0,0,.08238-2.308c-.01647-.77474-.0659-1.5496-.0659-2.30787,0-.47817,0-.9397.01652-1.41783q.02459-.64281.09889-1.28578v-.04951h.0164c.04951-.445.11541-.87368.19791-1.30234.08242-.42862.16484-.84076.26374-1.26938a.72638.72638,0,0,1,.033-.1648c.06591-.28022.14833-.544.23075-.82429a7.31338,7.31338,0,0,1,.2803-.77474,14.25829,14.25829,0,0,1,.62645-1.35181,13.981,13.981,0,0,1,.79126-1.22,6.79109,6.79109,0,0,1,.54407-.65936,3.871,3.871,0,0,1,.54391-.49453c.24735-.18144.49465-.34624.74187-.511.23083-.11541.44514-.23083.69236-.32972.14841-.066.31325-.13194.46166-.19784.11541-.01652.23078-.04951.3462-.066.0659,0,.1318-.01643.19783-.01643.04939,0,.11541.01643.1648.01643.0989.01648.19784.033.28021.04947.066.01652.11542.033.16493.04943a2.0477,2.0477,0,0,1,.32972.16493,1.379,1.379,0,0,1,.19784.13188c.09889.06591.18131.14833.28021.21423q.09885.12377.19784.24731c.0659.08242.11537.16484.18127.26382a3.30491,3.30491,0,0,0,.16493.34616q.04937.14834.09893.29669c.01648.08242.03287.18144.04939.26382a3.78208,3.78208,0,0,1,.033.61,1.79362,1.79362,0,0,1-.01647.29673,4.17422,4.17422,0,0,1-.11542.62641,4.07735,4.07735,0,0,1-.18131.59346,4.63092,4.63092,0,0,1-.31325.643,7.92715,7.92715,0,0,1-.49453.79126c-.56055.75835-1.187,1.4507-1.69805,2.22557a6.83144,6.83144,0,0,0-.93966,1.78034,5.30681,5.30681,0,0,0-.24722,1.0386,3.99487,3.99487,0,0,0-.01652,1.08807,4.32387,4.32387,0,0,0,.23083,1.0386c.06591.1648.13181.3296.21431.49452a3.41688,3.41688,0,0,0,.24722.41215,2.08724,2.08724,0,0,0,.34624.4121,3.62515,3.62515,0,0,0,.37912.32977,3.77729,3.77729,0,0,0,.84076.46153,4.63051,4.63051,0,0,0,.511.1648c.18132.066.34624.099.52756.14841a3.782,3.782,0,0,0,.60994.033,4.37656,4.37656,0,0,0,1.121-.23079,4.45159,4.45159,0,0,0,1.05508-.511,9.22545,9.22545,0,0,0,.85724-.74187l.01643-.01651a5.862,5.862,0,0,0,.74183-.92319,6.914,6.914,0,0,0,.56055-.95606,8.88541,8.88541,0,0,0,.39563-.90679,4.748,4.748,0,0,0,.24734-1.088,7.871,7.871,0,0,0,.0164-1.64849c-.03291-.46166-.06591-.92319-.08242-1.38484v-.03291a8.04865,8.04865,0,0,1,.04951-.89024,6.15184,6.15184,0,0,1,.14832-.75826c.04951-.19784.11541-.39575.1814-.59355l.14833-.29673c.08242-.14832.18131-.29673.28021-.44505.0825-.0989.16492-.1814.26382-.2803.08242-.08242.1648-.14832.24722-.23074.066-.04951.13193-.08251.19783-.13189.066-.033.11542-.066.1814-.09894.03292,0,.04939-.01648.08243-.01648.01647-.01651.033-.01651.0659-.01651.01648,0,.01648-.01648.033,0H105.42c.033.01651.066.01651.0989.033a1.85924,1.85924,0,0,1,.29681.19783,1.98579,1.98579,0,0,1,.19783.18132,5.7405,5.7405,0,0,1,.41211.478,2.7458,2.7458,0,0,1,.29673.46161,9.77442,9.77442,0,0,1,.445.93971,9.64214,9.64214,0,0,1,.32973.97257,7.74189,7.74189,0,0,1,.21431,1.03856,8.75687,8.75687,0,0,1,.0989.92318c.01651.29682.033.60994.033.92319v1.64854c0,.56051-.01648,1.10458,0,1.665.01652.56055.04943,1.121.0659,1.68153.01652.67585.04951,1.36833.09894,2.04417a17.70273,17.70273,0,0,0,.19779,2.07716,4.86468,4.86468,0,0,0,.49465,1.66505,3.72869,3.72869,0,0,0,1.10451,1.31882,3.77645,3.77645,0,0,0,.77473.478,4.15211,4.15211,0,0,0,.56056.24734c.14832.033.28021.08238.42866.11541a2.853,2.853,0,0,0,.52751.04939c.19784,0,.39563-.01639.59347-.03291A3.64679,3.64679,0,0,0,113.3,43.1937a2.4372,2.4372,0,0,0,.478-.19783,7.55237,7.55237,0,0,0,1.764-1.36829,9.98638,9.98638,0,0,0,1.23639-1.731v-.01651c.01647,0,.01647-.01648.033-.033.74187-1.30229,1.36833-2.70349,2.09368-4.00591a16.04263,16.04263,0,0,1,1.088-1.66505,13.58845,13.58845,0,0,1,.90667-1.07147,11.3837,11.3837,0,0,1,.93967-.84077c.19783-.13193.39562-.28021.59346-.39563a1.45663,1.45663,0,0,1,.32972-.1484,2.38147,2.38147,0,0,1,.36272-.14833c.14832-.033.28021-.066.42854-.09889.0825,0,.1484-.01652.23083-.01652a.36212.36212,0,0,1,.13188.01652h.033l.0659.03291c.01648,0,.04939.01647.06591.01647,0,.01652,0,.01652.01647.01652l.06591.0659a.35958.35958,0,0,1,.066.08251.57771.57771,0,0,1,.08242.1318.01617.01617,0,0,1,.01648.01652,1.91205,1.91205,0,0,1,.0659.29669,1.946,1.946,0,0,1,.066.32977.09951.09951,0,0,1,.01639.0659c.066.37919.11542.75835.16493,1.12106.01647.28022.033.56047.0659.84069.033.32972.066.65944.13189.98917a6.1787,6.1787,0,0,0,.26374,1.05507,3.5085,3.5085,0,0,0,.41214.82429,1.48169,1.48169,0,0,0,.24731.31321c.08242.0989.1648.19783.26374.29673.13189.11542.26382.21431.39571.31321a3.57738,3.57738,0,0,0,1.79686.64285.06054.06054,0,0,1,.04947.01651,4.22419,4.22419,0,0,0,.79129-.01651,5.41766,5.41766,0,0,0,.989-.24722,5.82067,5.82067,0,0,0,1.74748-.95614,8.26221,8.26221,0,0,0,1.4837-1.54964c.44513-.57695.85728-1.17049,1.2859-1.78043,0-.01644.01639-.03291.01639-.04943.24735-.34624.47817-.69236.74187-1.03856.23083-.31325.49453-.62645.75839-.92318l.445-.44514c.16493-.13181.32973-.24722.49465-.36264.13181-.08242.24722-.16492.37911-.23082.0659-.01648.11541-.04951.18132-.06591a1.99666,1.99666,0,0,1,.29673-.0825,1.82686,1.82686,0,0,1,.29673-.03291h.13189c.033,0,.066.01652.09894.01652a.9211.9211,0,0,1,.19779.0659,1.15783,1.15783,0,0,1,.13193.04939l.0989.04951a2.86317,2.86317,0,0,0,.23083.19783l.19779.19779a.34583.34583,0,0,0,.0659.09894,1.778,1.778,0,0,1,.09894.18132,2.188,2.188,0,0,1,.11541.29681,1.97694,1.97694,0,0,1,.08238.29673,3.21587,3.21587,0,0,1,.04951.56043,3.17056,3.17056,0,0,1-.01651.39563,7.32866,7.32866,0,0,1-.1648,1.02208,6.56049,6.56049,0,0,1-.24731.80786,2.90663,2.90663,0,0,1-.28021.61,7.09031,7.09031,0,0,1-.643,1.07147c-.29673.42862-.59347.85728-.90667,1.26938s-.643.80777-.95618,1.21992c-.39563.511-.79126,1.0386-1.154,1.58263a14.7441,14.7441,0,0,0-1.121,1.99466c-.18131.36272-.32972.709-.478,1.07159-.13189.37911-.24731.74187-.3462,1.121-.08242.34624-.16485.69236-.23083,1.05508-.03291.19783-.04939.41214-.06591.60994,0,.18131,0,.36263.01652.52756a8.75574,8.75574,0,0,0,.0989.92318,4.05819,4.05819,0,0,0,.18132.74187,2.0027,2.0027,0,0,0,.08238.29669,7.44331,7.44331,0,0,0,.47817,1.0386,5.80057,5.80057,0,0,0,.49452.74187,3.72243,3.72243,0,0,0,.56055.57694,6.18587,6.18587,0,0,0,.511.41215l.0164.01648a4.54308,4.54308,0,0,0,.676.39562c.1978.08242.39563.18132.60994.24735l.04939.01639c.19792.066.41214.11541.61006.16492a5.723,5.723,0,0,0,1.40123.08238,7.67939,7.67939,0,0,0,1.05508-.13189,4.78917,4.78917,0,0,0,1.40119-.44505,6.44172,6.44172,0,0,0,1.43423-1.05508l.033-.033a8.8283,8.8283,0,0,0,2.209-3.75861,17.19428,17.19428,0,0,0,.52752-2.20909c.11541-.72535.21431-1.43422.26382-2.15958.03291-.69236.03291-1.40119.03291-2.09367,0-.67584.01652-1.3682.033-2.04413,0-.36263,0-.70887.01652-1.07151.01652-.31321.033-.64293.0659-.95618v-.04951c.033-.28021.08243-.57694.13189-.85716a11.16157,11.16157,0,0,1,.36264-1.20348,9.55666,9.55666,0,0,1,.47817-1.121v-.01648l.01648-.01639v-.01652c.28021-.544.57694-1.07159.90667-1.58263.14832-.2473.31324-.511.478-.75835.16493-.26373.34625-.52743.51105-.79125.21431-.31325.42862-.643.64293-.97257.09894-.13194.19783-.28034.28025-.41215.08251-.16492.1814-.31325.2803-.47813.18132-.32972.37915-.67588.56047-1.02208.18132-.36264.36272-.7254.511-1.088a10.7261,10.7261,0,0,0,.544-1.84637,4.22037,4.22037,0,0,0,.08242-.44514,3.69706,3.69706,0,0,0,.0989-.85724C151.80974,23.55969,151.79322,23.41128,151.79322,23.27939ZM69.35009,20.41094a5.22323,5.22323,0,0,0-.36264.82429,6.02117,6.02117,0,0,0-.28021,1.07159c-.04951.34612-.08242.70884-.09894,1.055,0,.36276,0,.709.01652,1.05512.01639.2473.03291.47813.04938.70883v.14841c-.01647,0-.01647.01652-.01647.033,0,.01639-.01652.03287-.01652.04938s-.01639.01652-.01639.033,0,.01651-.01652.03291a9.61967,9.61967,0,0,1-.033.033h-.01648a.06055.06055,0,0,1-.04943.01652h-.0825l-.04939-.01652H68.361V25.439c-.01652,0-.033-.01651-.04939-.01651A.49415.49415,0,0,1,68.1962,25.34a.125.125,0,0,0-.066-.03287v-.01652c-.03291-.033-.0659-.08242-.0989-.11541a.7083.7083,0,0,1-.08242-.11542.97842.97842,0,0,0-.0659-.13189c-.01648-.0659-.04951-.13181-.066-.21431-.01639-.06594-.03291-.14832-.04942-.21435a1.50848,1.50848,0,0,1-.01648-.2637,2.55426,2.55426,0,0,1,.01648-.36276,6.33424,6.33424,0,0,1,.13193-.77473,7.01731,7.01731,0,0,1,.24722-.77478c.066-.16489.13189-.32973.21431-.49461.0659-.16484.1648-.32964.2473-.49457a4.1938,4.1938,0,0,1,.26374-.46153c.08242-.13193.18132-.26382.26382-.37923a.22686.22686,0,0,1,.04939-.0659q.272-.371.59346-.74187A6.45028,6.45028,0,0,0,69.35009,20.41094Zm7.847-13.15523-.01652.01647a.72136.72136,0,0,1-.01639.08242c-.01648.03292-.033.04939-.033.08243-.01652,0-.01652.01647-.033.01647V7.47a.01618.01618,0,0,0-.01651.01652c-.0164,0-.03291.01639-.04939.03286-.01652,0-.033.01652-.04951.01652a.05074.05074,0,0,1-.03291.01652c-.033,0-.066.01648-.0989.01648h-.033c-.01652,0-.04951.01651-.0659.01651-.033,0-.04952-.01651-.066-.01651-.04939,0-.0989-.01648-.13181-.01648l-.0989-.04951c-.033,0-.04951-.01639-.0825-.03291a.29033.29033,0,0,1-.08242-.066h-.01652c0-.01647,0-.01647-.01647-.01647a.941.941,0,0,0-.13181-.11534V7.25571a.64535.64535,0,0,1-.13193-.16493,1.109,1.109,0,0,1-.14841-.2307c-.0659-.11541-.11529-.23083-.18132-.36276-.0659-.19779-.13188-.39563-.18131-.59342a4.95359,4.95359,0,0,1-.11542-.52756c0-.13189-.01647-.28021-.01647-.41214a3.60022,3.60022,0,0,1,.04947-.59342,2.23433,2.23433,0,0,1,.09893-.47813,4.0012,4.0012,0,0,1,.21432-.62646c.04938-.11533.11541-.21423.1648-.31312a2.35813,2.35813,0,0,1,.26382-.39576c.08242-.09889.16484-.19779.26373-.29673V2.24411c.01648-.01644.033-.01644.04951-.03291a.81366.81366,0,0,1-.04951.11541,1.795,1.795,0,0,0-.11541.49453c-.033.1648-.033.32972-.04939.49452a3.59393,3.59393,0,0,0,.03287.59346c.033.18132.08242.37924.11542.56055a8.73946,8.73946,0,0,0,.37915,1.10451c.11541.3132.23083.60994.31321.92314a2.14946,2.14946,0,0,1,.09889.44514,1.50532,1.50532,0,0,1,.01652.26374Zm2.80251,11.35841c.01652.18131.04951.37911.0659.57694a4.78574,4.78574,0,0,1,.066.511,2.45514,2.45514,0,0,1,.033.34624v.14829a.2096.2096,0,0,0-.01647.09894l-.01652.01647c0,.01652,0,.01652-.01652.033,0,.01652-.01647.03291-.033.04943a.22681.22681,0,0,0-.04939.066h-.01651a.03551.03551,0,0,1-.033.03291l-.01651.01652-.0164-.01652a.05762.05762,0,0,0-.033-.01652l-.01652-.01639a.03549.03549,0,0,1-.033-.033.50194.50194,0,0,1-.13181-.13189.36185.36185,0,0,0-.04951-.08243.51657.51657,0,0,1-.08242-.1648,2.96766,2.96766,0,0,1-.13189-.34624v-.01651h-.01651c-.0164-.0989-.03291-.1978-.04939-.31321a3.137,3.137,0,0,1-.04951-.41215c.01652-.23082.01652-.44513.04951-.67584a2.62247,2.62247,0,0,1,.0989-.49456,4.42787,4.42787,0,0,1,.23082-.75835h.01648V17.015c.06594-.18132.16484-.34621.24722-.52752.04951-.08242.09894-.16484.16492-.26374l-.01647.04943a4.91925,4.91925,0,0,0-.11542.52751,9.80343,9.80343,0,0,0-.066,1.2034A3.68338,3.68338,0,0,0,79.99962,18.61412Zm.92319,16.89744a7.39189,7.39189,0,0,0-.32973,1.02208c-.01639.11534-.04938.23075-.0659.36264a4.44151,4.44151,0,0,0-.0989.676,11.12359,11.12359,0,0,0-.04951,1.81334c.01652.28022.04951.577.066.87368.01652.26382.03291.511.04943.77486a1.08687,1.08687,0,0,1-.01652.23083v.03287c0,.033-.01639.04951-.01639.08254a.06047.06047,0,0,1-.01652.04939c0,.01652-.01648.033-.01648.04951-.01652.01639-.033.04938-.04951.0659v.01652h-.01639a.44076.44076,0,0,1-.0825.0989.03544.03544,0,0,1-.03292.033.01609.01609,0,0,1-.01651.01639c-.01648.01652-.01648.01652-.033.01652h-.03291c-.01647,0-.033.01648-.04951.01648h-.04951l-.01639-.01648h-.033c-.01652-.01652-.04951-.01652-.06591-.03291a.08565.08565,0,0,0-.066-.033l-.08242-.08243-.13193-.13188-.0989-.14845a2.14328,2.14328,0,0,1-.13181-.28022.051.051,0,0,1-.01651-.033,3.70471,3.70471,0,0,1-.13189-.39563c-.06591-.23083-.11542-.46153-.1648-.69236-.01652-.23082-.033-.44513-.04951-.67584.01647-.16492.01647-.34624.033-.52756.03291-.23082.08242-.46161.13181-.676v-.03287a4.469,4.469,0,0,1,.23082-.65949,4.08245,4.08245,0,0,1,.2803-.60994v-.01647l.01643-.01652c.033-.06591.066-.11542.0989-.18132.14841-.2473.31321-.47805.47813-.70888a9.8939,9.8939,0,0,1,.62646-.77486c.1318-.1318.26373-.26369.39562-.37911A5.44266,5.44266,0,0,0,80.92281,35.51156Zm16.48534-1.731c-.01652.033-.01652.0825-.033.11541v.01652c0,.033-.01639.04951-.03291.08238-.01651.033-.033.04951-.04951.08242l-.03291.033a.01615.01615,0,0,1-.01647.01652c-.01652.01652-.033.01652-.066.033a.01606.01606,0,0,0-.01639.0164H96.996c-.01647,0-.033-.0164-.04938-.0164-.01652-.01647-.033-.01647-.04951-.033-.01652,0-.033-.01652-.04939-.01652-.01652-.033-.04951-.04938-.08255-.08238-.03286-.033-.04938-.0659-.08237-.09893a.5035.5035,0,0,1-.08243-.11538.62359.62359,0,0,1-.09889-.21435,2.35568,2.35568,0,0,1-.13193-.36259c-.03287-.14845-.06591-.28034-.0989-.42866-.01652-.14841-.01652-.29673-.03291-.44514a4.65944,4.65944,0,0,1,.01639-.47805c.033-.14841.066-.2803.09894-.42862a4.2794,4.2794,0,0,1,.13189-.42862V31.011a6.14588,6.14588,0,0,1,.26382-.57694q.22249-.34624.44506-.69236a5.65848,5.65848,0,0,0-.09894.92318,8.85245,8.85245,0,0,0,.08242,1.15389q.07427.51937.14841,1.0386a.06054.06054,0,0,1,.01651.04947,4.92823,4.92823,0,0,1,.06591.69236Zm12.4959.75839v.09889l-.01651-.01651A.14829.14829,0,0,0,109.90405,34.53891Zm-8.391-20.75508c-.56047-.03291-1.10451-.04942-1.64854-.09893-.70888-.04939-1.40124-.1648-2.11007-.28022-.29673-.0659-.59346-.11541-.89028-.1648-.77478-.14841-1.54964-.29673-2.32438-.46165-.36263-.0989-.74187-.18132-1.1045-.28022-.32973-.08242-.65945-.18131-1.00569-.28021-.46153-.14841-.92319-.29682-1.3682-.47813-.511-.19784-1.02208-.41215-1.53313-.62646a.49617.49617,0,0,0-.13193-.0659c-.033-.01652-.04951-.033-.0659-.033-.64293-.29674-1.26939-.61-1.91236-.92319-.72535-.34612-1.4507-.70888-2.15954-1.088-.34624-.19783-.67588-.37923-1.02208-.59346-.16484-.0825-.31325-.1814-.47805-.2803a1.04431,1.04431,0,0,0,.14828.066,13.18219,13.18219,0,0,0,1.31882.56043c.44514.18132.8738.34624,1.33533.52756.74183.26382,1.4837.544,2.22557.79125.21431.08251.41214.14841.62645.21431.511.18144,1.0386.34624,1.56612.511q1.11267.32154,2.22548.59359c.70888.1648,1.43423.3296,2.14306.478.77487.18131,1.54965.32972,2.32451.511.39563.08242.77478.16484,1.15389.26374.37923.09889.75834.19791,1.1211.3132a9.64665,9.64665,0,0,1,1.50009.56056c.18132.08242.36264.1648.54408.26373Zm10.122,26.77224c0,.0164,0,.03291-.01652.03291v.033c-.01651.01651-.01651.01651-.01651.033-.0164,0-.0164.01643-.03287.01643,0,.01648-.01652.01648-.033.01648v.01652h-.11541c-.01648,0-.033,0-.033-.01652a.09922.09922,0,0,1-.06591-.01648c-.01647,0-.033-.01643-.04938-.01643-.033-.01648-.066-.04947-.09894-.066a.93762.93762,0,0,1-.13189-.11541,2.49849,2.49849,0,0,1-.19784-.21431c-.08238-.0989-.1484-.21423-.23078-.32964a4.96714,4.96714,0,0,1-.26374-.511,6.90075,6.90075,0,0,1-.26382-.75835,8.01186,8.01186,0,0,1-.24722-1.25291,7.6132,7.6132,0,0,1-.0825-1.07147,9.11166,9.11166,0,0,1,.066-1.17049v-.01652c0-.04938.01652-.09889.01652-.1484.01639.04951.01639.099.03291.13189.04951.24734.0989.47817.16492.70887.0989.39563.23071.77486.3626,1.154.11541.36275.24734.70887.39567,1.05511.1484.32973.28029.67584.42862,1.00557.11541.31321.2473.60994.32972.92318,0,.01648,0,.01648.01652.01648.01647.09894.03287.18132.04938.26374a.61732.61732,0,0,1,.01652.1814Zm16.58424-4.0389a.17884.17884,0,0,1-.01652.08238l-.03291.09894-.033.033-.01652.01647c-.033.01644-.04939.03291-.0659.03291h-.01648v.01652h-.033a.2441.2441,0,0,1-.11538-.01652.01617.01617,0,0,1-.01651.01652.05076.05076,0,0,0-.03291-.01652l-.033-.01647a.06052.06052,0,0,1-.04942-.01644c-.01648,0-.033-.01647-.066-.033a.36169.36169,0,0,1-.08242-.066l-.14841-.14833c-.0659-.08242-.13181-.1648-.19779-.26382a4.29919,4.29919,0,0,1-.21435-.39563,4.1102,4.1102,0,0,1-.18128-.47805,9.00272,9.00272,0,0,1-.26374-1.154,5.23792,5.23792,0,0,1-.09889-1.02208,4.30984,4.30984,0,0,1-.01652-.46153.30434.30434,0,0,1,.033.11529,7.02952,7.02952,0,0,0,.478,1.07159c.14841.29673.31325.577.478.85724.16492.29673.36272.61.511.93971a1.96361,1.96361,0,0,1,.13189.3296c0,.01651.01652.01651.01652.033.01651.08238.04938.18132.0659.28021,0,.033.01652.08251.01652.11542Zm8.98452,6.29738a8.3598,8.3598,0,0,0-.37916,1.13749c-.09889.37916-.16488.77478-.23078,1.17041-.033.37924-.066.75835-.066,1.121,0,.39575.033.77486.066,1.17049.033.36264.0989.72535.14828,1.088.04951.31325.11542.65945.14841.98917a1.69621,1.69621,0,0,1-.01648.28026c0,.033-.01651.08238-.01651.11541l-.04939.19779a.0606.0606,0,0,0-.01652.04951c-.01652,0-.01652,0-.01652.0164l-.01647.01651a.288.288,0,0,1-.08242.066c-.01648,0-.033.01639-.04939.01639-.01652.01652-.033.01652-.04951.033h-.13193l-.03287-.01652a.06055.06055,0,0,1-.04951-.01652c-.04943-.01639-.08242-.04938-.13193-.0659-.03291-.01648-.04939-.04939-.08238-.0659l-.13193-.13189c-.0659-.08242-.11529-.16485-.1648-.23083a3.05734,3.05734,0,0,1-.18132-.31321c-.08242-.16484-.1484-.34616-.21431-.511a4.40868,4.40868,0,0,1-.11541-.44506V48.469a3.8216,3.8216,0,0,1-.08242-.62642,8.915,8.915,0,0,1,0-.9397,6.277,6.277,0,0,1,.11541-.77486,6.46737,6.46737,0,0,1,.26374-.92319,8.89882,8.89882,0,0,1,.4121-.989c.16493-.31325.34624-.61.52756-.89019.14841-.21431.28022-.39563.42862-.577.13193-.14832.28022-.29673.41215-.445C137.33566,42.46835,137.26967,42.64967,137.20377,42.81455Zm13.17174-18.62849v.04951l-.01647.033a.165.165,0,0,1-.06591.08242c0,.01647-.01651.04938-.033.04938a1.43166,1.43166,0,0,1-.18132.14841,1.05789,1.05789,0,0,1-.21431.16484,4.6589,4.6589,0,0,1-.47805.29669c-.32972.16493-.67592.31325-1.02208.44514h-.01648a.01618.01618,0,0,1-.01651.01652c-.21431.0659-.41215.13189-.62646.19779-.18131.04951-.37911.09894-.56055.14845a10.61516,10.61516,0,0,1-1.45058.21431c-.01652.01639-.033,0-.04951.01639-.28021.01652-.56055.033-.82429.033-.28021,0-.57694,0-.85724-.01647-.49457-.01652-1.00561-.06591-1.50013-.13193-.44514-.04939-.8902-.13181-1.35181-.1978a.124.124,0,0,0-.08242-.01643c-.64293-.11541-1.30238-.2473-1.92875-.39571q-.66771-.173-1.33542-.34612c.29682.06591.59355.13181.8738.18128a9.50559,9.50559,0,0,0,1.17049.16484c.37911.04951.75827.066,1.121.0825a19.04022,19.04022,0,0,0,2.37389-.04951c.56043-.04938,1.121-.11541,1.665-.19783.56047-.0989,1.1045-.1978,1.66493-.31321,0-.01652,0-.01652.01652-.01652.46165-.09889.92318-.21431,1.36832-.32972.4121-.0989.80777-.21431,1.2034-.29669.21431-.04943.42862-.08242.62646-.11541.01647,0,.01647,0,.01647.01647a1.169,1.169,0,0,1,.23083-.01647h.01652a.32128.32128,0,0,1,.1318.01647.06062.06062,0,0,1,.04951.01652h.01648c.01652,0,.01652,0,.01652.01652.01639,0,.03291,0,.03291.01647l.01647.01652Z"/><path class="c" d="M122.87739,47.69014l.0117.02405-.001-.00836C122.882,47.69978,122.87862,47.69858,122.87739,47.69014Z"/><path class="d" d="M122.88909,47.71419c.00107.00845.007.01446.00811.02282-.00231-.00482.00012-.01206-.00218-.0168Z"/></svg>