<svg xmlns="http://www.w3.org/2000/svg" viewBox="0 0 162.06665 150"><defs><style>.a{fill:#838383;}</style></defs><path class="a" d="M95.08167,99.16968a1.94773,1.94773,0,0,0,.58032-1.417,1.981,1.981,0,0,0-1.98706-1.98682,1.938,1.938,0,0,0-1.42639.58008,2,2,0,1,0,2.83313,2.82373Zm-8.11622,17.33417-.64929-.13758a13.16157,13.16157,0,0,1-2.04626,3.63019,5.612,5.612,0,0,1-2.26306,1.60376,14.11855,14.11855,0,0,1-4.30884.45209H75.75012a12.7893,12.7893,0,0,1-3.06933-.19648,1.40715,1.40715,0,0,1-.72779-.60974,5.45223,5.45223,0,0,1-.31494-2.24347V102.23877a8.57338,8.57338,0,0,1,.31494-3.01,2.40662,2.40662,0,0,1,1.17078-1.04309,7.37508,7.37508,0,0,1,2.98047-.39331v-.72791H64.02356v.72791H65.027a2.88967,2.88967,0,0,1,2.28222.86584q.55134.62934.551,3.12842v17.216a6.34975,6.34975,0,0,1-.41333,2.91205A2.68227,2.68227,0,0,1,65.027,123.0166H64.02356v.72785H84.68323Zm8.58838,5.42047a6.6336,6.6336,0,0,1-.24609-2.25263V105.19055H94.442L89.0116,107.394l.27563.70825a3.94328,3.94328,0,0,1,1.338-.29492,1.22449,1.22449,0,0,1,.80677.24567,1.543,1.543,0,0,1,.43237.87549,24.5146,24.5146,0,0,1,.17725,3.79748v6.94568a6.35624,6.35624,0,0,1-.26563,2.26264,1.75474,1.75474,0,0,1-.71777.84619,4.076,4.076,0,0,1-1.771.25573v.70826h8.75586v-.70826a3.89311,3.89311,0,0,1-1.76135-.27569A1.72611,1.72611,0,0,1,95.55383,121.92432ZM88.9425,53.48694a8.24428,8.24428,0,0,0,7.73267-4.99744,11.48316,11.48316,0,0,0,1.16113-4.89917A9.54858,9.54858,0,0,0,95.731,37.49048a7.98743,7.98743,0,0,0-6.5719-3.1084,8.3042,8.3042,0,0,0-4.24976,1.17065,8.3956,8.3956,0,0,0-3.23657,3.62037,10.89077,10.89077,0,0,0-1.23,4.92871,10.05661,10.05661,0,0,0,2.02661,6.13855A7.63714,7.63714,0,0,0,88.9425,53.48694ZM84.75171,38.45483a4.3466,4.3466,0,0,1,1.702-2.17419,4.10464,4.10464,0,0,1,2.09545-.61975,4.25842,4.25842,0,0,1,3.56153,1.88891,12.33521,12.33521,0,0,1,2.06579,7.55542q0,3.8368-1.23962,5.41089a3.83961,3.83961,0,0,1-3.14771,1.574q-2.55816,0-4.12231-2.85327a13.91409,13.91409,0,0,1-1.56445-6.788A10.46072,10.46072,0,0,1,84.75171,38.45483Zm-16.547,15.09131a5.77464,5.77464,0,0,0,3.89588-1.38708,7.57246,7.57246,0,0,0,2.27233-3.25659,14.97146,14.97146,0,0,0,.65931-4.87952V30.978a5.99146,5.99146,0,0,1,.47229-3.03015,2.82523,2.82523,0,0,1,2.38061-.964h.96424v-.72815H67.4176v.72815h.96387a3.61809,3.61809,0,0,1,1.79053.47216,1.76294,1.76294,0,0,1,.82666.84632,8.83061,8.83061,0,0,1,.25561,2.67566V49.19775a4.168,4.168,0,0,1-.46216,2.30188,1.26773,1.26773,0,0,1-.99389.64942q-.70807,0-1.16065-1.06238a6.665,6.665,0,0,0-1.26916-2.20386,1.73413,1.73413,0,0,0-1.13123-.41333,2.14478,2.14478,0,0,0-1.51513.61023,1.97544,1.97544,0,0,0-.4917,1.45606A2.71146,2.71146,0,0,0,65.2926,52.6311,4.31688,4.31688,0,0,0,68.20471,53.54614ZM69.68542,70.4292a6.23571,6.23571,0,0,0-1.67993,4.36035A5.56668,5.56668,0,0,0,69.913,78.99377a6.23791,6.23791,0,0,0,4.088,1.56812,7.6227,7.6227,0,0,0,5.05261-1.73547,11.40943,11.40943,0,0,0,2.0321-2.27417c1.361,2.0227,3.20325,4.00964,6.62305,4.00964a6.51386,6.51386,0,0,0,4.66565-1.83337,5.64393,5.64393,0,0,0,1.68579-3.93335A6.18557,6.18557,0,0,0,92.354,70.32532a6.35237,6.35237,0,0,0-4.64526-1.74951,6.49865,6.49865,0,0,0-4.55493,1.73474,12.82563,12.82563,0,0,0-2.04773,2.5271c-1.43335-2.1875-3.25281-4.26184-6.75244-4.26184A6.28426,6.28426,0,0,0,69.68542,70.4292Zm18.02332.1499a4.34855,4.34855,0,0,1,3.22107,1.15515,4.20368,4.20368,0,0,1,1.12707,3.04492v.01038a4.03268,4.03268,0,0,1-4.34814,3.769c-2.64539,0-3.93921-1.50293-5.42444-3.84448C83.6925,72.478,84.95166,70.5791,87.70874,70.5791ZM79.9176,74.7019c-1.4519,2.22046-2.92309,3.85669-5.91662,3.85669a3.94544,3.94544,0,0,1-3.99182-3.769,4.052,4.052,0,0,1,4.34448-4.21045C77.2124,70.5791,78.51965,72.45093,79.9176,74.7019ZM0,0V150H162.06665V0ZM160.95667,148.89H1.11V1.11011H160.95667Z"/></svg>