<svg xmlns="http://www.w3.org/2000/svg" viewBox="0 0 208.95883 150"><defs><style>.a{fill:#bcd38c;}</style></defs><path class="a" d="M32.01828,86.62335a20.73379,20.73379,0,0,0,1.19122,2.40686,15.44186,15.44186,0,0,0,1.45063,2.08539,16.80561,16.80561,0,0,0,6.68023,4.80554c.29712.12427.605.24311.92108.35388q5.3162,1.90842,14.206,1.90711,1.50328,0,3.09839-.06757c.759-.02972,1.53155-.07293,2.32305-.12695.24042-.01624.48353-.03241.72669-.05133q2.55671-.19446,6.28583-.84552l.19244-2.46936a3.94638,3.94638,0,0,0-4.45764-4.20789l-.04065.00513a49.3598,49.3598,0,0,1-6.221.41333,27.16821,27.16821,0,0,1-8.23346-1.09674A11.67819,11.67819,0,0,1,44.44949,85.813a10.32381,10.32381,0,0,1-2.261-6.64508,12.44374,12.44374,0,0,1,.91845-4.73535,11.03957,11.03957,0,0,1,2.41492-3.40631c.08649-.08912.17828-.181.27289-.27015a22.29318,22.29318,0,0,1,4.74072-3.39276,44.54434,44.54434,0,0,1,7.70941-3.11188q2.265-.77791,7.677-2.26092,3.2375-.88742,5.20807-1.45874c.8833-.25659,1.57483-.46729,2.07727-.62665q1.876-.59967,3.43061-1.27234a20.299,20.299,0,0,0,2.79583-1.45056q1.23579-.7739,3.71424-2.68506l-.416,8.825-.65912,14.00611-.25933,3.32525L80.57089,96.62891c.27283-.00812.54022-.019.79956-.027q.87525-.02436,1.65857-.04865,2.43522-.06885,3.98438-.0675,2.40279,0,6.22644.14319,0-7.63788.38629-17.39081.38489-9.757,1.12372-21.2428.73744-11.48712.73742-16.36426a21.621,21.621,0,0,0-1.202-7.2799,12.67381,12.67381,0,0,0-4.87854-6.00763,24.37243,24.37243,0,0,0-9.2248-3.78449A58.006,58.006,0,0,0,68.272,23.39478a94.4478,94.4478,0,0,0-12.19348.813,123.64015,123.64015,0,0,0-14.73816,3.00385c-.027.22961-.054.4538-.07837.67529q-.19848,1.64109-.38623,3.05249-.3891,2.86863-.74829,4.79206c-.04321.23224-.08917.45648-.13232.66986q1.8598-.72931,3.49542-1.3263,2.98215-1.08589,5.23773-1.75049a65.54914,65.54914,0,0,1,8.34155-1.7666,62.36284,62.36284,0,0,1,9.43824-.74286,36.42465,36.42465,0,0,1,6.71808.56458q.97641.18237,1.87194.42682a12.09229,12.09229,0,0,1,5.905,3.463,8.97635,8.97635,0,0,1,.90491,1.175,7.523,7.523,0,0,1,.54565.97522,8.59205,8.59205,0,0,1,.80768,3.45215c.00275.11078.00543.22149.00543.335a8.52748,8.52748,0,0,1-.497,2.82825,10.10247,10.10247,0,0,1-1.55328,2.79315,12.14338,12.14338,0,0,1-2.33386,2.33117,13.65122,13.65122,0,0,1-2.96869,1.66126q-1.69776.70908-3.88983,1.45062-.44166.14988-.92389.29981-1.89624.58346-4.37872,1.148-2.65806.64023-4.919,1.2102-5.96841,1.5033-9.14923,2.50141c-.2674.08368-.53485.17016-.79688.2539q-3.8898,1.252-6.87469,2.53919a32.44294,32.44294,0,0,0-6.29126,3.60351c-.678.49164-1.29932.986-1.87195,1.483a18.22538,18.22538,0,0,0-2.76074,2.90119A18.64882,18.64882,0,0,0,31.478,73.08734a17.45845,17.45845,0,0,0-.95356,5.86719c0,.3241.00812.64282.02167.96161A19.67384,19.67384,0,0,0,32.01828,86.62335Zm80.53931,52.09973v-.06054a4.85164,4.85164,0,0,0,3.45587-4.48645,4.28362,4.28362,0,0,0-1.69763-3.60736c-1.2732-1.03071-2.97083-1.48542-5.6081-1.48542a25.56479,25.56479,0,0,0-4.82.42432V149.606a30.8546,30.8546,0,0,0,4.09246.24243c3.3346,0,5.63843-.6062,7.06311-1.90973a5.50736,5.50736,0,0,0,1.728-4.09247A5.26636,5.26636,0,0,0,112.55759,138.72308Zm-6.03241-7.42688a11.31085,11.31085,0,0,1,2.334-.18188c2.66767,0,4.48664.93976,4.48664,3.33459,0,1.97034-1.63709,3.42554-4.42591,3.42554h-2.39477Zm2.21289,16.49085a14.0923,14.0923,0,0,1-2.21289-.12116v-7.79077h2.18255c2.87989,0,5.27466,1.152,5.27466,3.9408C113.98239,146.78674,111.46628,147.78705,108.73807,147.78705Zm99.27008-29.72a19.96313,19.96313,0,0,1-1.59955-3.48322,6.51335,6.51335,0,0,0-6.29016-4.38464q-.41134.00832-.82459.01526c-4.07617.07025-162.67529.10534-172.66461.10534A12.97,12.97,0,0,1,13.73752,96.82947l1.15741-28.8169L17.90225,6.57233A6.19064,6.19064,0,0,0,11.65341.07025Q9.10476.07025,4.2222,0C4.0358,17.06122,2.47177,57.59918,1.6965,75.152Q.95648,91.90957.032,105.38873a13.35921,13.35921,0,0,0,13.39441,14.2685l17.08728-.07746c7.82233,0,168.34918.04279,178.44519.13105ZM119.17471,96.48645q2.05087,0,6.22608.14136l.28173-13.00672,1.5506-41.98944,1.85022-35.14044A5.96945,5.96945,0,0,0,123.12112.20782h-.00006L116.54147.13727q-.42415,23.18646-1.33978,44.88733-1.13452,25.28247-2.3208,44.7749A6.30177,6.30177,0,0,0,119.17471,96.48645Zm22.245-9.8631a20.73219,20.73219,0,0,0,1.19122,2.40686,15.4427,15.4427,0,0,0,1.45062,2.08539,16.80565,16.80565,0,0,0,6.68024,4.80554c.29712.12427.605.24311.92108.35388q5.31619,1.90842,14.206,1.90711,1.50329,0,3.09838-.06757c.759-.02972,1.53156-.07293,2.32306-.12695.24042-.01624.48352-.03241.72669-.05133q2.55671-.19446,6.28583-.84552l.19244-2.46936a3.94638,3.94638,0,0,0-4.45764-4.20789l-.04065.00513a49.36053,49.36053,0,0,1-6.221.41333,27.16817,27.16817,0,0,1-8.23346-1.09674,11.67819,11.67819,0,0,1-5.69159-3.92224,10.32382,10.32382,0,0,1-2.261-6.64508,12.44375,12.44375,0,0,1,.91846-4.73535,11.03957,11.03957,0,0,1,2.41492-3.40631c.08649-.08912.17828-.181.27283-.27015a22.29518,22.29518,0,0,1,4.74078-3.39276,44.54234,44.54234,0,0,1,7.70941-3.11188q2.26493-.77791,7.677-2.26092,3.2375-.88742,5.20807-1.45874c.8833-.25659,1.57483-.46729,2.07727-.62665q1.876-.59967,3.43054-1.27234a20.29655,20.29655,0,0,0,2.7959-1.45056q1.23579-.7739,3.71424-2.68506l-.416,8.825-.65912,14.00611-.25934,3.32525-1.24255,15.97535c.27283-.00812.54022-.019.79956-.027q.87525-.02436,1.65857-.04865,2.4352-.06885,3.98437-.0675,2.40281,0,6.22645.14319,0-7.63788.38629-17.39081.38489-9.757,1.12371-21.2428.73746-11.48712.73743-16.36426a21.621,21.621,0,0,0-1.202-7.2799,12.67381,12.67381,0,0,0-4.87854-6.00763,24.37243,24.37243,0,0,0-9.2248-3.78449,58.00611,58.00611,0,0,0-11.90991-1.16424,94.44918,94.44918,0,0,0-12.19354.813,123.64182,123.64182,0,0,0-14.7381,3.00385c-.027.22961-.054.4538-.07837.67529q-.19857,1.64109-.38623,3.05249-.3891,2.86863-.74829,4.79206c-.04321.23224-.08917.45648-.13239.66986q1.85989-.72931,3.49549-1.3263,2.98215-1.08589,5.23773-1.75049a65.5465,65.5465,0,0,1,8.34155-1.7666,62.362,62.362,0,0,1,9.43817-.74286,36.4247,36.4247,0,0,1,6.71814.56458q.97641.18237,1.87195.42682a12.09229,12.09229,0,0,1,5.905,3.463,8.97635,8.97635,0,0,1,.90491,1.175,7.53243,7.53243,0,0,1,.54565.97522,8.59222,8.59222,0,0,1,.80768,3.45215c.00269.11078.00543.22149.00543.335a8.52748,8.52748,0,0,1-.497,2.82825,10.10247,10.10247,0,0,1-1.55328,2.79315,12.14338,12.14338,0,0,1-2.33386,2.33117,13.65122,13.65122,0,0,1-2.96869,1.66126q-1.69776.70908-3.88983,1.45062-.44166.14988-.92389.29981-1.89624.58346-4.37873,1.148-2.658.64023-4.919,1.2102-5.96842,1.5033-9.14923,2.50141c-.2674.08368-.53485.17016-.79688.2539q-3.8898,1.252-6.87469,2.53919a32.44264,32.44264,0,0,0-6.29126,3.60351c-.678.49164-1.29932.986-1.87195,1.483a18.22224,18.22224,0,0,0-2.76074,2.90119,18.64914,18.64914,0,0,0-2.57972,4.87579,17.4587,17.4587,0,0,0-.95355,5.86719c0,.3241.00812.64282.02161.96161A19.67531,19.67531,0,0,0,141.41971,86.62335ZM189.79983,134.661c-4.27435,0-6.88128,3.48627-6.88128,7.91211s2.69787,7.39667,7.21466,7.39667a11.88544,11.88544,0,0,0,4.88067-.90943l-.45465-1.90991a9.64562,9.64562,0,0,1-4.06225.75794c-2.66767,0-4.9715-1.48542-5.03211-5.09284h10.30677a10.04485,10.04485,0,0,0,.09094-1.2428C195.86258,138.87476,194.58945,134.661,189.79983,134.661Zm-4.30456,6.24481c.2121-1.84918,1.39447-4.3349,4.09228-4.3349,3.00116,0,3.7287,2.63727,3.69837,4.3349Zm-8.60938,8.76074h2.66761v-14.672h-2.66761Zm1.33387-20.46209a1.62551,1.62551,0,0,0-1.6673,1.6673,1.65217,1.65217,0,1,0,1.6673-1.6673Zm25.67651,11.94378c-1.90973-.72747-2.78894-1.27313-2.78894-2.48571,0-1.09131.87921-2.00067,2.45538-2.00067a5.71,5.71,0,0,1,3.00116.84881l.667-1.94012a7.32289,7.32289,0,0,0-3.60742-.90955c-3.15271,0-5.06244,1.94013-5.06244,4.30469,0,1.75824,1.2428,3.21326,3.88025,4.153,1.97028.72754,2.72815,1.42469,2.72815,2.698,0,1.21259-.90936,2.18262-2.84948,2.18262a6.99093,6.99093,0,0,1-3.51642-1.061l-.667,2.03107a8.36849,8.36849,0,0,0,4.12287,1.00037c3.48608,0,5.48675-1.819,5.48675-4.39563C207.74612,143.39154,206.4426,142.11841,203.89627,141.14825Zm-41.47089-6.15368h-2.66766v9.00323a3.904,3.904,0,0,1-.24243,1.36426,3.85675,3.85675,0,0,1-3.51648,2.425c-2.42517,0-3.274-1.8794-3.274-4.66834v-8.12414h-2.6676v8.57886c0,5.15338,2.75854,6.42657,5.06244,6.42657a5.52073,5.52073,0,0,0,4.85034-2.72821h.06055l.15155,2.39477h2.36456c-.09094-1.152-.12128-2.48571-.12128-4.00146Zm-16.58221,5.66864c0-2.94043-1.09131-6.0022-5.57776-6.0022a9.10672,9.10672,0,0,0-4.82,1.30353l.60621,1.75824a7.31156,7.31156,0,0,1,3.81964-1.09131c3.00116,0,3.33459,2.18256,3.33459,3.39514v.30322c-5.66882-.03039-8.82135,1.90973-8.82135,5.45655A4.18,4.18,0,0,0,138.871,150a5.46445,5.46445,0,0,0,4.48639-2.18256h.09094l.21228,1.84912h2.42517a20.65776,20.65776,0,0,1-.24261-3.51641Zm-2.57672,4.06207a2.78377,2.78377,0,0,1-.15149.84888,3.6504,3.6504,0,0,1-3.54681,2.4555,2.36063,2.36063,0,0,1-2.516-2.54644c0-2.84955,3.3042-3.36481,6.2143-3.30426Zm26.79846-13.94446-2.60706.69727v3.51648h-2.27349v2.031h2.27349v8.00293c0,1.72785.27295,3.03138,1.03071,3.81964a3.6972,3.6972,0,0,0,2.87988,1.12165,6.53288,6.53288,0,0,0,2.36456-.36377l-.12128-2.00086a5.93435,5.93435,0,0,1-1.546.18189c-1.48541,0-2.00085-1.0307-2.00085-2.84949v-7.912h3.81964v-2.031h-3.81964ZM126.169,134.661c-4.27436,0-6.88123,3.48627-6.88123,7.91211s2.69781,7.39667,7.2146,7.39667a11.88588,11.88588,0,0,0,4.88074-.90943l-.45472-1.90991a9.64562,9.64562,0,0,1-4.06225.75794c-2.6676,0-4.9715-1.48542-5.032-5.09284h10.30676a10.0568,10.0568,0,0,0,.09094-1.2428C132.23178,138.87476,130.95859,134.661,126.169,134.661Zm-4.30457,6.24481c.2121-1.84918,1.39447-4.3349,4.09235-4.3349,3.00116,0,3.72869,2.63727,3.6983,4.3349Z"/></svg>