<svg xmlns="http://www.w3.org/2000/svg" viewBox="0 0 201.3494 150"><defs><style>.a{fill:#3f7f82;}</style></defs><path class="a" d="M105.77146,124.52863l-3.50513,9.52252c-.87634,2.48285-1.57733,4.64447-2.074,6.6308h-.08764c-.49652-2.04468-1.16846-4.2063-1.98633-6.6308l-3.35913-9.52252H91.51694L90.144,144.21637h2.4245l.52576-8.44177c.17529-2.95026.32129-6.251.37976-8.70459h.05841c.555,2.33673,1.34369,4.87805,2.27832,7.65307l3.184,9.37641h1.92786l3.476-9.5517c.99317-2.71661,1.81092-5.17017,2.48285-7.47778h.08765c-.0293,2.45361.146,5.75433.29211,8.50012l.49652,8.64624h2.48285l-1.2268-19.68774Zm14.07965,5.22857c-4.11872,0-6.63068,3.35932-6.63068,7.624,0,4.26471,2.59961,7.12732,6.9519,7.12732a11.45322,11.45322,0,0,0,4.703-.87628l-.43817-1.84033a9.294,9.294,0,0,1-3.91419.73029c-2.57062,0-4.79059-1.43134-4.84894-4.90735h9.9314a9.67461,9.67461,0,0,0,.08765-1.19751C125.69309,133.81757,124.46628,129.7572,119.85111,129.7572Zm-4.14783,6.0174c.20441-1.7818,1.34369-4.177,3.9433-4.177,2.89184,0,3.59289,2.54119,3.56366,4.177Zm20.56653-52.30567a19.9777,19.9777,0,0,0,1.14783,2.31916,14.87775,14.87775,0,0,0,1.39776,2.00946,16.19411,16.19411,0,0,0,6.437,4.63055c.28632.11975.583.23425.88758.34094q5.12245,1.83894,13.68866,1.83771,1.44844,0,2.98553-.06506c.73138-.02869,1.47583-.07032,2.23846-.12238.23169-.01562.46595-.03125.7002-.04944q2.4636-.18741,6.057-.81469l.18542-2.37946a3.80269,3.80269,0,0,0-4.29535-4.05469l-.03912.00495a47.56932,47.56932,0,0,1-5.99445.39825,26.18,26.18,0,0,1-7.93365-1.05676,11.25282,11.25282,0,0,1-5.48432-3.77942,9.9477,9.9477,0,0,1-2.17865-6.40314,11.99091,11.99091,0,0,1,.885-4.56286,10.63782,10.63782,0,0,1,2.327-3.28229c.08331-.08588.17181-.17438.26294-.26026a21.48188,21.48188,0,0,1,4.56811-3.26928,42.92337,42.92337,0,0,1,7.42865-2.99854q2.18253-.74963,7.39746-2.17859,3.11958-.8551,5.01838-1.40558c.85113-.24731,1.51745-.45031,2.00164-.60388q1.80771-.57779,3.30567-1.22595a19.56,19.56,0,0,0,2.694-1.39777q1.19073-.74569,3.579-2.58728l-.40088,8.50367-.63507,13.49609-.24994,3.2041-1.19733,15.39356c.26294-.00782.52063-.01825.77045-.02607q.84339-.02334,1.59821-.04681,2.3465-.06638,3.83929-.06506,2.31528,0,5.99963.13794,0-7.35975.37226-16.75745.371-9.40164,1.08282-20.46924.71064-11.06881.71057-15.76837a20.83315,20.83315,0,0,0-1.15826-7.01483,12.21238,12.21238,0,0,0-4.70087-5.78882,23.48649,23.48649,0,0,0-8.88885-3.64667,55.8964,55.8964,0,0,0-11.47626-1.12182,90.99793,90.99793,0,0,0-11.74945.78344,119.13268,119.13268,0,0,0-14.20142,2.89447c-.02606.2212-.05206.43726-.0755.6507q-.19134,1.5813-.37219,2.94128-.37491,2.76426-.721,4.61756c-.04169.22381-.08594.43988-.12756.64551q1.792-.70276,3.36816-1.278,2.87356-1.04644,5.047-1.68671a63.14863,63.14863,0,0,1,8.03778-1.70227,60.09228,60.09228,0,0,1,9.09448-.71582,35.09747,35.09747,0,0,1,6.47345.544q.941.1757,1.80384.41125a11.65211,11.65211,0,0,1,5.68994,3.33692,8.64968,8.64968,0,0,1,.87195,1.13226,7.2541,7.2541,0,0,1,.52575.9397,8.28039,8.28039,0,0,1,.77832,3.32648c.00257.10669.00519.21337.00519.32275a8.21625,8.21625,0,0,1-.47894,2.72522,9.735,9.735,0,0,1-1.49665,2.69141,11.70124,11.70124,0,0,1-2.2489,2.24633,13.15621,13.15621,0,0,1-2.86059,1.60077q-1.636.68327-3.74817,1.39777-.42562.14437-.8902.28888-1.82721.56223-4.2193,1.10626-2.56128.61689-4.73987,1.16608-5.75115,1.44855-8.8161,2.41034c-.25769.08062-.51538.16394-.76782.24463q-3.74817,1.20639-6.62439,2.44671a31.26534,31.26534,0,0,0-6.06213,3.47229c-.65332.47376-1.252.95007-1.80384,1.429A17.55917,17.55917,0,0,0,138.235,65.7276a17.97044,17.97044,0,0,0-2.48578,4.69818,16.82308,16.82308,0,0,0-.91883,5.6535c0,.31238.00782.61951.02088.92664A18.95749,18.95749,0,0,0,136.26981,83.46893Zm-21.43494,9.50385q1.97618,0,5.99939.13629l.27149-12.53308,1.49408-40.46039,1.78283-33.86078A5.75208,5.75208,0,0,0,118.63754.20026l-6.34-.068q-.40869,22.34208-1.291,43.25275-1.09314,24.36173-2.23626,43.14435A6.07223,6.07223,0,0,0,114.83487,92.97278Zm-83.9826-9.50385a19.9893,19.9893,0,0,0,1.14788,2.31916,14.87872,14.87872,0,0,0,1.39777,2.00946,16.19411,16.19411,0,0,0,6.437,4.63055c.28632.11975.583.23425.88751.34094Q45.845,94.608,54.41117,94.60675q1.44845,0,2.98553-.06506c.73138-.02869,1.47577-.07032,2.23846-.12238.23163-.01562.46595-.03125.7002-.04944q2.46359-.18741,6.05695-.81469l.18542-2.37946A3.80274,3.80274,0,0,0,62.28238,87.121l-.03912.00495a47.56932,47.56932,0,0,1-5.99445.39825,26.18,26.18,0,0,1-7.93365-1.05676,11.25282,11.25282,0,0,1-5.48432-3.77942,9.9477,9.9477,0,0,1-2.17865-6.40314,11.98977,11.98977,0,0,1,.885-4.56286,10.63782,10.63782,0,0,1,2.327-3.28229c.08331-.08588.17181-.17438.26294-.26026a21.48294,21.48294,0,0,1,4.568-3.26928,42.92627,42.92627,0,0,1,7.42871-2.99854q2.18253-.74963,7.39746-2.17859,3.11958-.8551,5.01838-1.40558c.85113-.24731,1.51745-.45031,2.00158-.60388q1.8078-.57779,3.30573-1.22595a19.56,19.56,0,0,0,2.694-1.39777q1.19073-.74569,3.579-2.58728l-.40088,8.50367-.63507,13.49609-.24994,3.2041L77.63681,93.11005c.26294-.00782.52057-.01825.77045-.02607q.84339-.02334,1.5982-.04681,2.34651-.06638,3.8393-.06506,2.31528,0,5.99963.13794,0-7.35975.37226-16.75745.371-9.40164,1.08282-20.46924Q92.01011,44.81455,92.01,40.115a20.83464,20.83464,0,0,0-1.15826-7.01483,12.21238,12.21238,0,0,0-4.70087-5.78882,23.48656,23.48656,0,0,0-8.88885-3.64667A55.8964,55.8964,0,0,0,65.7858,22.54285a90.99793,90.99793,0,0,0-11.74945.78344,119.1303,119.1303,0,0,0-14.20142,2.89447c-.02606.2212-.05206.43726-.0755.6507q-.19134,1.5813-.37219,2.94128-.37491,2.76426-.721,4.61756c-.04169.22381-.08594.43988-.12756.64551q1.792-.70276,3.36816-1.278,2.87356-1.04644,5.047-1.68671a63.14863,63.14863,0,0,1,8.03778-1.70227,60.09228,60.09228,0,0,1,9.09448-.71582,35.09747,35.09747,0,0,1,6.47345.544q.941.1757,1.80383.41125a11.6521,11.6521,0,0,1,5.68995,3.33692,8.64873,8.64873,0,0,1,.87194,1.13226,7.253,7.253,0,0,1,.52576.9397,8.27935,8.27935,0,0,1,.77826,3.32648c.00263.10669.00525.21337.00525.32275a8.21625,8.21625,0,0,1-.47894,2.72522A9.735,9.735,0,0,1,78.25894,45.123,11.70294,11.70294,0,0,1,76.01,47.36932a13.15762,13.15762,0,0,1-2.86059,1.60077q-1.636.68327-3.74817,1.39777-.42562.14437-.89026.28888-1.82721.56223-4.21924,1.10626-2.56128.61689-4.73993,1.16608-5.75106,1.44855-8.816,2.41034c-.25769.08062-.51538.16394-.76782.24463q-3.74817,1.20639-6.62439,2.44671a31.26357,31.26357,0,0,0-6.06213,3.47229c-.65339.47376-1.252.95007-1.80384,1.429a17.55917,17.55917,0,0,0-2.66015,2.79553,17.97044,17.97044,0,0,0-2.48578,4.69818,16.82308,16.82308,0,0,0-.91883,5.6535c0,.31238.00782.61951.02088.92664A18.95743,18.95743,0,0,0,30.85227,83.46893Zm169.58111,30.29865a19.2335,19.2335,0,0,1-1.54132-3.35639,6.276,6.276,0,0,0-6.06109-4.22491q-.39634.00787-.79456.01465c-3.92773.06769-156.75134.1015-166.37689.1015A12.49764,12.49764,0,0,1,13.23728,93.30334l1.11523-27.76751L17.25034,6.333A5.96521,5.96521,0,0,0,11.229.06769Q8.77323.06769,4.06845,0c-.17962,16.43988-1.6867,55.50165-2.43371,72.41528Q.92162,88.56263.03079,101.551A12.87267,12.87267,0,0,0,12.93747,115.2998l16.465-.07464c7.53747,0,162.21863.04126,171.947.12628ZM164.36832,133.058c-2.71661-1.05151-3.91412-1.95709-3.91412-3.7973,0-1.34363,1.02227-2.95019,3.70965-2.95019a7.841,7.841,0,0,1,3.73889.93475l.70105-2.074a8.94639,8.94639,0,0,0-4.35235-.96386c-3.82654,0-6.36774,2.27832-6.36774,5.34546,0,2.775,1.98621,4.43994,5.19934,5.5791,2.65808,1.02246,3.70978,2.074,3.70978,3.91418,0,1.98633-1.51892,3.35913-4.11865,3.35913a9.00569,9.00569,0,0,1-4.55683-1.28515l-.6427,2.13232a10.17444,10.17444,0,0,0,5.02423,1.256c4.64447,0,6.89356-2.629,6.89356-5.66687C169.39243,135.94989,167.69821,134.34332,164.36832,133.058Zm-23.281-9.58087h-2.57049v8.44171h-.05854a4.72688,4.72688,0,0,0-4.26464-2.16162c-3.44678,0-6.3678,2.89191-6.33857,7.59473,0,4.29394,2.62891,7.18567,6.04651,7.18567a5.22922,5.22922,0,0,0,4.81958-2.77484h.05854l.11676,2.45361h2.30774c-.08765-.96393-.11689-2.39526-.11689-3.65131Zm-2.57049,14.80963a4.46723,4.46723,0,0,1-.11688,1.10993,3.8644,3.8644,0,0,1-3.76819,3.06714c-2.77484,0-4.17707-2.36615-4.17707-5.22876,0-3.12537,1.57746-5.46222,4.2356-5.46222a3.78052,3.78052,0,0,1,3.70966,2.97937,4.541,4.541,0,0,1,.11688,1.08081Zm60.81659-2.74591c0-2.83337-1.05158-5.78363-5.37464-5.78363a8.77482,8.77482,0,0,0-4.64441,1.25611l.58411,1.69415a7.04534,7.04534,0,0,1,3.68054-1.05152c2.89191,0,3.21314,2.10309,3.21314,3.27149v.29217c-5.46234-.02929-8.50006,1.84021-8.50006,5.25782a4.02773,4.02773,0,0,0,4.323,4.06018,5.26524,5.26524,0,0,0,4.323-2.10309h.08765l.20453,1.78186h2.33685a19.90934,19.90934,0,0,1-.23376-3.38843Zm-2.48285,3.91419a2.68365,2.68365,0,0,1-.146.81793,3.51743,3.51743,0,0,1-3.41766,2.36609,2.27466,2.27466,0,0,1-2.42438-2.45374c0-2.74572,3.1839-3.24225,5.988-3.1839Zm-16.67914-9.69782a5.5584,5.5584,0,0,0-5.02423,2.74591h-.05835l-.11688-2.4245h-2.30762c.05853,1.34369.11688,2.80414.11688,4.61524V150h2.54126v-7.68237h.05853a4.95733,4.95733,0,0,0,4.3523,2.22c3.33,0,6.42627-2.512,6.42627-7.59455C186.15958,132.64911,183.58908,129.7572,180.17142,129.7572Zm-.87628,12.765a3.9664,3.9664,0,0,1-3.85578-3.00861,5.79654,5.79654,0,0,1-.11688-1.05157v-2.42444a4.16787,4.16787,0,0,1,.17542-1.05158,4.10156,4.10156,0,0,1,3.88488-3.184c2.7165,0,4.2063,2.4245,4.2063,5.25787C183.58908,140.30219,182.01163,142.52216,179.29514,142.52216Zm-32.65741-18.02277a1.56631,1.56631,0,0,0-1.60657,1.60657,1.592,1.592,0,1,0,1.60657-1.60657Zm-1.28534,19.717h2.57049V130.07861h-2.57049Z"/></svg>