<svg xmlns="http://www.w3.org/2000/svg" xmlns:xlink="http://www.w3.org/1999/xlink" viewBox="0 0 305.38199 150"><defs><style>.a{fill:url(#a);}.b{fill:url(#b);}.c{fill:url(#c);}.d{fill:#1d1d1b;}.e{fill:url(#d);}.f{fill:url(#e);}</style><linearGradient id="a" x1="-95.08156" y1="17.75949" x2="-87.40305" y2="17.75949" gradientTransform="translate(96.30429 13.46709) rotate(-8.25955)" gradientUnits="userSpaceOnUse"><stop offset="0" stop-color="#ae8849"/><stop offset="0.17754" stop-color="#ceaa57"/><stop offset="0.2933" stop-color="#dfbc5e"/><stop offset="0.49441" stop-color="#fef09f"/><stop offset="0.72626" stop-color="#dfbc5e"/><stop offset="0.80681" stop-color="#d5b15a"/><stop offset="0.94695" stop-color="#ba954e"/><stop offset="1" stop-color="#ae8849"/></linearGradient><linearGradient id="b" x1="915.45242" y1="-674.09534" x2="923.07774" y2="-674.09534" gradientTransform="matrix(-0.83762, 0.54625, -0.39054, -0.59886, 592.95578, -821.25109)" xlink:href="#a"/><linearGradient id="c" x1="-13.9702" y1="-8.80488" x2="-10.11949" y2="-2.21499" gradientTransform="matrix(1.02569, -0.14889, 0.14307, 0.9856, 88.4939, 12.29419)" xlink:href="#a"/><linearGradient id="d" x1="-94.35848" y1="10.52486" x2="-18.94884" y2="1.57893" xlink:href="#a"/><linearGradient id="e" x1="59.48277" y1="103.12259" x2="92.92443" y2="103.12259" gradientTransform="matrix(1, 0, 0, 1, 0, 0)" xlink:href="#a"/></defs><path class="a" d="M8.08124,36.18924q2.37122,5.30479,4.74245,10.60958l-2.59233,5.13875A19.75291,19.75291,0,0,1,4.30419,41.47746q-.11623-.63236-.18085-1.24579Z"/><path class="b" d="M87.69638,92.88349a10.05209,10.05209,0,0,0-1.412-3.95349A10.19434,10.19434,0,0,0,82.029,85.14024L81.95441,78.105c.84988.43121,1.73362.92932,2.63567,1.5061a31.08331,31.08331,0,0,1,6.76633,5.87253Q89.52638,89.18354,87.69638,92.88349Z"/><path class="c" d="M76.67311,15.11354a8.05192,8.05192,0,0,0-3.66392-5.54983,6.69,6.69,0,0,0-1.59243-.63079q1.49081-3.23026,2.98162-6.46052c.15859.18347.38274.45015.6381.78073,1.30321,1.687,3.492,4.444,3.237,7.66421A8.44411,8.44411,0,0,1,76.67311,15.11354Z"/><path class="d" d="M7.273,0Q8.55249,1.87389,9.72228,3.82623c.75241,1.31555,1.488,2.64513,2.14258,4.01657a53.76589,53.76589,0,0,1,3.32506,8.504,48.72817,48.72817,0,0,1,1.7205,9.01165,38.28868,38.28868,0,0,1,.17916,4.60307c-.0047.76924-.00262,1.53925-.078,2.30632-.06646.76674-.088,1.53921-.19252,2.30262a53.12948,53.12948,0,0,1-5.513,17.51107C8.65189,57.576,5.49108,62.71873,3.97514,68.42772l-.31483,1.06036L3.41375,70.5673c-.15582.72131-.34934,1.4349-.47545,2.16261-.21392,1.46229-.50923,2.91355-.59054,4.39527-.0595.73791-.13859,1.47446-.183,2.21367L2.1242,81.56361c-.076,1.48313.07506,2.96768.11555,4.4533a81.49659,81.49659,0,0,0,3.21368,17.59616,130.2509,130.2509,0,0,0,6.20759,16.9232c1.13848,2.79414,2.50042,5.48743,3.79291,8.21778.62691,1.37584,1.37836,2.68669,2.06619,4.03226l2.076,4.03507c-1.56333-2.58711-3.19219-5.14485-4.654-7.797-1.44207-2.6626-2.95631-5.29333-4.25261-8.038L9.693,118.9396c-.33068-.68315-.67259-1.36147-.96063-2.06436l-1.8064-4.1853c-.31379-.693-.58075-1.40507-.84034-2.12022l-.792-2.14081L4.504,106.286l-.68266-2.18161a78.6346,78.6346,0,0,1-3.645-17.94676c-.07774-1.53465-.22453-3.06716-.16074-4.60887l.03008-2.31C.08727,78.46946.16426,77.701.22232,76.932c.07815-1.54234.37415-3.06379.59183-4.59317.12806-.76191.32485-1.51209.48459-2.26873L1.552,68.93744c.10152-.37328.21547-.74358.32581-1.11462A47.997,47.997,0,0,1,5.29986,59.232c1.36624-2.73352,2.8085-5.38621,4.15688-8.063a67.249,67.249,0,0,0,3.55471-8.195c.49775-1.39854.89824-2.8253,1.27126-4.25866l.49128-2.167.36089-2.19307a47.34926,47.34926,0,0,0,.35473-8.8909,48.50918,48.50918,0,0,0-1.328-8.84244A61.29515,61.29515,0,0,0,7.273,0Z"/><path class="d" d="M75.88269,0A61.2948,61.2948,0,0,0,68.994,16.62185a48.50833,48.50833,0,0,0-1.328,8.84244,47.34758,47.34758,0,0,0,.35473,8.8909l.36089,2.19307.49128,2.167c.373,1.43336.77351,2.86012,1.27126,4.25866A67.249,67.249,0,0,0,73.699,51.169c1.34838,2.67683,2.79064,5.32952,4.15688,8.063a47.99775,47.99775,0,0,1,3.4221,8.59081c.11033.371.22428.74134.32581,1.11462l.25321,1.13264c.15974.75664.35653,1.50682.48459,2.26873.21768,1.52938.51368,3.05083.59183,4.59317.05806.769.13505,1.53748.17659,2.30672l.03008,2.31c.06379,1.54171-.083,3.07422-.16074,4.60887a78.63567,78.63567,0,0,1-3.645,17.94676l-.68266,2.18161-.78963,2.14295-.792,2.14081c-.25959.71515-.52653,1.42726-.84034,2.12022l-1.80641,4.1853c-.288.70289-.62994,1.38121-.96062,2.06436l-.9965,2.04673c-1.29629,2.74471-2.81052,5.37544-4.25262,8.038-1.46184,2.65216-3.0907,5.2099-4.654,7.797l2.076-4.03507c.68783-1.34557,1.43928-2.65642,2.06619-4.03226,1.29248-2.73035,2.65443-5.42364,3.7929-8.21778a130.24949,130.24949,0,0,0,6.2076-16.9232,81.49659,81.49659,0,0,0,3.21368-17.59616c.04049-1.48562.19159-2.97017.11555-4.4533l-.04058-2.22476c-.04439-.73921-.12348-1.47576-.183-2.21367-.08131-1.48172-.37663-2.933-.59054-4.39527-.12611-.72771-.31963-1.4413-.47546-2.16261l-.24655-1.07922-.31484-1.06036c-1.51593-5.709-4.67674-10.85171-7.33093-16.34623a53.12948,53.12948,0,0,1-5.513-17.51107c-.10452-.76341-.12606-1.53588-.19252-2.30262-.07537-.76707-.07329-1.53708-.078-2.30632a38.28661,38.28661,0,0,1,.17916-4.60307,48.73063,48.73063,0,0,1,1.72049-9.01165,53.7669,53.7669,0,0,1,3.32507-8.504c.65458-1.37144,1.39017-2.701,2.14258-4.01657Q74.60272,1.87446,75.88269,0Z"/><path class="d" d="M41.01766,48.66734a1.9014,1.9014,0,0,0,1.6158-1.06922,1.83381,1.83381,0,0,0-.48172-1.785,2.02334,2.02334,0,0,0-1.693-.70421,2.68182,2.68182,0,0,0-1.71712.76707,2.13489,2.13489,0,0,0-.5991,1.72805,3.76055,3.76055,0,0,0,4.25716,3.4325,4.3695,4.3695,0,0,1-2.13665-.07846,3.5288,3.5288,0,0,1-1.7979-1.25252,4.11442,4.11442,0,0,1-.83786-2.0586,2.64994,2.64994,0,0,1,.72668-2.155,3.168,3.168,0,0,1,2.08279-.89812,2.414,2.414,0,0,1,2.0376.95338,2.70185,2.70185,0,0,1,.49545,1.01963,1.71432,1.71432,0,0,1-.09152,1.13548,1.61082,1.61082,0,0,1-.80933.76007A2.405,2.405,0,0,1,41.01766,48.66734Z"/><path class="d" d="M50.69189,84.847,44.40448,101c-1.01637,2.69869-2.07093,5.37991-3.05733,8.08729-1.00815,2.69862-2.01257,5.39825-2.96636,8.11606-.99077,2.70449-1.93885,5.42444-2.87254,8.14969-.96244,2.71605-1.85141,5.45656-2.78482,8.18505L27.296,150a172.04217,172.04217,0,0,1,3.7963-16.95646c.74325-2.80154,1.60034-5.57,2.45248-8.34026.87972-2.76147,1.81809-5.50405,2.78154-8.2377.99975-2.72055,2.017-5.43484,3.09806-8.12389,1.10285-2.68033,2.20525-5.36052,3.413-7.99525A173.077,173.077,0,0,1,50.69189,84.847Z"/><path class="d" d="M35.58823,93.58343a23.42082,23.42082,0,0,1,6.58808,13.25737l-2.1787.15448A22.3242,22.3242,0,0,0,35.58823,93.58343Z"/><path class="e" d="M77.75566,7.64436a12.13676,12.13676,0,0,1-.04113,8.17222c-1.58344,3.88952-5.29879,5.75257-7.75886,6.83335-11.29738,4.96326-26.42717,6.74321-40.55933,8.89778-8.77237,1.33743-14.86278,2.46891-19.16165,7.57114a18.96075,18.96075,0,0,0-3.8642,7.91376c-.54045-.82086-3.728-5.8276-1.88058-11.12232,1.27274-3.6476,4.27681-5.54521,6.37431-6.87015a26.82309,26.82309,0,0,1,10.66906-3.57441l0,0C47.48176,21.699,48.4976,21.58,51.16852,21.00173,67.0952,17.55379,72.72931,12.7459,74.7421,10.86116A33.75136,33.75136,0,0,0,77.75566,7.64436Z"/><path class="f" d="M89.66561,84.01794a7.21529,7.21529,0,0,1,3.11141,4.1318c.27179,1.12254.419,3.20374-1.92049,6.69016-2.5389,3.78363-5.36972,5.29279-10.68135,8.67674-11.01747,7.019-13.2309,9.83865-14.75385,11.88955a17.31406,17.31406,0,0,0-3.18842,6.82106l-2.27458-4.6255a4.79252,4.79252,0,0,1-.40121-2.94918,8.43589,8.43589,0,0,1,.56718-1.97448c2.29533-5.11,9.58682-9.7185,9.58684-9.71851,8.198-4.66078,13.9421-8.9843,15.887-11.39022a26.41449,26.41449,0,0,0,1.552-2.15278A23.20787,23.20787,0,0,0,89.66561,84.01794Z"/><path class="d" d="M122.35305,52.11485l9.4907,12.53286h-4.2233L116.22286,49.43583c2.08873,0,5.17675.136,7.22014-.49965a7.37672,7.37672,0,0,0,5.53989-7.12949,7.49086,7.49086,0,0,0-3.67833-6.448,12.89817,12.89817,0,0,0-6.53865-1.27126h-5.85823V64.64771h-3.36v-33.603h8.53672c2.54305,0,5.90356.13651,8.26477,1.27179a10.40621,10.40621,0,0,1,5.99368,9.58135C132.34287,47.61906,127.98359,51.75171,122.35305,52.11485Z"/><path class="d" d="M161.76573,53.38611H139.15187a9.83921,9.83921,0,0,0,9.62668,8.991,9.38962,9.38962,0,0,0,8.90039-5.85769h3.36051A12.961,12.961,0,1,1,148.77855,39.173a13.238,13.238,0,0,1,13.03251,13.305C161.81106,52.7958,161.76573,53.06829,161.76573,53.38611ZM148.82387,42.03385a9.81938,9.81938,0,0,0-9.672,8.4914h19.38986A9.8651,9.8651,0,0,0,148.82387,42.03385Z"/><path class="d" d="M178.20142,64.64771h-3.49649L164.21546,39.80915h3.40584l8.76388,20.88775,8.9004-20.88775h3.4053Z"/><path class="d" d="M216.88782,53.38611H194.274a9.8392,9.8392,0,0,0,9.62667,8.991,9.38962,9.38962,0,0,0,8.9004-5.85769h3.36A12.96077,12.96077,0,1,1,203.90063,39.173a13.238,13.238,0,0,1,13.03252,13.305C216.93315,52.7958,216.88782,53.06829,216.88782,53.38611ZM203.946,42.03385a9.81938,9.81938,0,0,0-9.672,8.4914h19.38986A9.8651,9.8651,0,0,0,203.946,42.03385Z"/><path class="d" d="M240.63376,64.64771V50.97957c0-2.36121-.5903-5.13142-2.36121-6.81114a7.90688,7.90688,0,0,0-10.80728,0c-1.72558,1.6344-2.31588,4.31342-2.31588,6.584v13.8953h-3.17868V39.80915h3.17868v3.17814H225.24a9.00749,9.00749,0,0,1,7.62914-3.8143c7.129,0,10.94326,4.94958,10.94326,11.80658V64.64771Z"/><path class="d" d="M272.19068,69.82446a12.449,12.449,0,0,1-9.85384,4.58644c-5.99421,0-10.98912-3.22454-12.7147-9.12756h3.36051a9.58545,9.58545,0,0,0,9.30886,6.2667c5.58521,0,8.991-3.72365,8.991-9.26354V60.1066h-.09118C269.37514,63.55776,265.379,65.238,261.61,65.238a12.87839,12.87839,0,0,1-12.98666-12.896A13.05272,13.05272,0,0,1,261.61,39.173a11.14,11.14,0,0,1,9.58135,5.08609h.09118V39.80915h3.17868V60.74276C274.46124,64.01208,274.23407,67.09957,272.19068,69.82446ZM261.61,42.03385a10.17677,10.17677,0,1,0,9.85383,10.217A10.00322,10.00322,0,0,0,261.61,42.03385Z"/><path class="d" d="M305.33666,53.38611H282.7228a9.83921,9.83921,0,0,0,9.62668,8.991,9.38962,9.38962,0,0,0,8.90039-5.85769h3.36051A12.961,12.961,0,1,1,292.34948,39.173,13.238,13.238,0,0,1,305.382,52.478C305.382,52.7958,305.33666,53.06829,305.33666,53.38611ZM292.3948,42.03385a9.81938,9.81938,0,0,0-9.672,8.4914h19.38986A9.8651,9.8651,0,0,0,292.3948,42.03385Z"/><path class="d" d="M127.03068,108.37515c-2.679,1.67972-5.13142,1.86156-8.21944,1.86156H109.5477V76.63426h8.4466c4.2681,0,8.53673,1.27126,10.30763,5.49456a8.98605,8.98605,0,0,1,.68149,3.45063c0,3.088-1.363,4.94958-3.67832,6.76635a8.75877,8.75877,0,0,1,5.58521,8.26423A9.12,9.12,0,0,1,127.03068,108.37515Zm-2.81554-26.61c-1.63493-1.90689-4.49525-2.08872-6.81167-2.08872h-4.49526v11.4429h4.2233a11.91623,11.91623,0,0,0,5.76652-.95344,5.34365,5.34365,0,0,0,2.72488-4.72242A5.25923,5.25923,0,0,0,124.21514,81.76515Zm-.63563,13.169a17.61152,17.61152,0,0,0-6.53865-.77214h-4.13265v13.03251h4.72242a15.87412,15.87412,0,0,0,6.35735-.86279,6.10575,6.10575,0,0,0,3.54181-5.72172A6.20151,6.20151,0,0,0,123.57951,94.93417Z"/><path class="d" d="M147.326,110.827A13.03225,13.03225,0,1,1,160.3585,97.7945,13.06587,13.06587,0,0,1,147.326,110.827Zm.04586-23.20416c-5.63107,0-9.80851,4.8136-9.80851,10.30816a9.9623,9.9623,0,0,0,9.80851,10.03514c5.72118,0,9.808-4.72242,9.808-10.30763A9.99217,9.99217,0,0,0,147.37185,87.62285Z"/><path class="d" d="M187.329,110.23671v-4.35928h-.09065a11.67842,11.67842,0,0,1-9.672,4.94958,13.036,13.036,0,1,1,0-26.06449,11.63779,11.63779,0,0,1,9.672,4.90372h.09065v-13.032h3.17921v33.60245Zm-9.76265-22.61386a10.17423,10.17423,0,1,0,9.945,10.217A10.0599,10.0599,0,0,0,177.56632,87.62285Z"/><path class="d" d="M203.129,118.95527h-3.31465l4.314-9.536-9.672-24.02109h3.36l7.90109,19.79832,8.4466-19.79832h3.35945Z"/><path class="d" d="M226.50543,89.08074c-.49165.13011-1.08142.29435-1.66052.49058a3.93612,3.93612,0,0,1-1.49629,1.6168,2.3671,2.3671,0,0,1-.66656.2517,7.56565,7.56565,0,0,0,.12052,1.25632.24337.24337,0,0,1-.19677.273h-.04373a.235.235,0,0,1-.22983-.18557,8.89563,8.89563,0,0,1-.11944-1.33311.42741.42741,0,0,1-.34981-.37114c-.02186-.16424.04372-.39353.34981-.68788v-.15358c0-.07572.01066-.15251.01066-.22929a.30805.30805,0,0,1,.01067-.09812c.02239-.31675.04372-.64416.07678-.97264a.24978.24978,0,0,1,.01067-.26129h.01066c.05493-.49165.10985-.98331.18611-1.475a24.2892,24.2892,0,0,1,.57857-2.74194,4.3473,4.3473,0,0,1,.76467-1.67119.54975.54975,0,0,1,.50285-.18557.47925.47925,0,0,1,.33861.31674,2.19275,2.19275,0,0,1,.01067,1.12515,10.73583,10.73583,0,0,1-.41487,1.6168,12.87518,12.87518,0,0,1-1.50748,3.17814l-.03253.32848c.07625-.09918.16371-.1973.25063-.29542.62283-.69961,1.12514-.9833,1.55174-.88518a.711.711,0,0,1,.513.87452.65188.65188,0,0,1-.02133.14184c.41487-.13118.86279-.26236,1.34325-.38287a.23755.23755,0,0,1,.28422.16424A.24164.24164,0,0,1,226.50543,89.08074Zm-2.37081.76467a7.41943,7.41943,0,0,0-1.02649.47992,3.64312,3.64312,0,0,0-.42607.28369v.33914a2.46106,2.46106,0,0,0,1.147-.74227C223.93839,90.08537,224.03651,89.96486,224.13462,89.84541Zm.31675-1.39817H224.397c-.24,0-.61163.26129-1.027.73162-.28369.32741-.52365.66655-.64416.82973l.10931-.06506a9.57357,9.57357,0,0,1,1.66-.754,1.13251,1.13251,0,0,0,.10984-.3818C224.64867,88.50163,224.51749,88.46857,224.45137,88.44724Zm-1.52881-.74334a14.10111,14.10111,0,0,0,.98277-2.36974,9.34227,9.34227,0,0,0,.37167-1.56241,1.49442,1.49442,0,0,0-.0112-.68789c-.03253.01067-.07625.04373-.14184.13118a12.41287,12.41287,0,0,0-1.16888,4.27023Z"/><path class="d" d="M225.95832,97.19673a2.235,2.235,0,0,1,.13118-1.35551,13.41238,13.41238,0,0,1,.89532-1.9986,22.95336,22.95336,0,0,1,1.2014-1.98794,26.08012,26.08012,0,0,0,.208-2.69822,5.07618,5.07618,0,0,1-.601.84146,1.59148,1.59148,0,0,1-1.10329.68789.56152.56152,0,0,1-.46925-.21863,1.28928,1.28928,0,0,1-.15358-.96091c.0112-.12052.03306-.24.05493-.37114a.19886.19886,0,0,1-.10932-.04373.25313.25313,0,0,1-.04372-.33914l.3498-.44793a.23911.23911,0,0,1,.42553.1973,8.91637,8.91637,0,0,0-.20689,1.059c-.04373.4266.02133.56844.05439.61216a.11974.11974,0,0,0,.09811.03307c.10932,0,.36048-.06613.74281-.514a7.79047,7.79047,0,0,0,.994-1.56134.216.216,0,0,1,.26236-.12052.22129.22129,0,0,1,.18557.21863,22.41918,22.41918,0,0,1-.12,2.79634c.546-.754,1.1902-1.59547,1.79117-2.294a.24137.24137,0,0,1,.33861-.0224.22847.22847,0,0,1,.02186.32848,31.86959,31.86959,0,0,0-2.02046,2.6321c-.08746.12051-.16424.24-.2405.36047q-.13118.88465-.29488,1.73625a14.83061,14.83061,0,0,1-.61217,2.229,3.5501,3.5501,0,0,1-.76467,1.35444.706.706,0,0,1-.49112.208h-.06559A.53036.53036,0,0,1,225.95832,97.19673Zm.69855-.1973a3.05341,3.05341,0,0,0,.6447-1.16887,15.10093,15.10093,0,0,0,.5791-2.16285l.13065-.65482c-.2181.36047-.42553.71028-.6111,1.04836a13.91722,13.91722,0,0,0-.86279,1.92288c-.21864.69855-.17491.96091-.14238,1.0377.02186.05439.04373.065.07625.065C226.53743,97.09755,226.60248,97.04316,226.65687,96.99943Z"/><path class="d" d="M233.79969,95.35064a.7462.7462,0,0,1-.49165-.481c-.20743-.546-.04373-1.51868.50232-2.98191a41.78311,41.78311,0,0,1,1.90048-4.16144c1.42-2.78568,2.97124-5.36338,2.98244-5.38578a.24394.24394,0,0,1,.32741-.07679.2309.2309,0,0,1,.07679.31675c-.0112.03306-1.55121,2.58944-2.97124,5.36338a39.74129,39.74129,0,0,0-1.87862,4.10705c-.61217,1.66053-.61217,2.36015-.50285,2.6545a.30922.30922,0,0,0,.19676.208,1.60368,1.60368,0,0,0,.42607.0544,6.26087,6.26087,0,0,0,1.51815-.273,24.83731,24.83731,0,0,0,2.78567-1.0153c1.84609-.79773,3.49542-1.67225,3.51728-1.68292a.24875.24875,0,0,1,.31675.09812.24132.24132,0,0,1-.09865.31675c-.02186.01173-1.68185.89585-3.54981,1.69358a23.85953,23.85953,0,0,1-2.84007,1.0377,6.1214,6.1214,0,0,1-1.64932.28369A1.74816,1.74816,0,0,1,233.79969,95.35064Z"/></svg>