<svg xmlns="http://www.w3.org/2000/svg" viewBox="0 0 405.28234 150.00002"><defs><style>.a{fill:#f5a323;}</style></defs><path class="a" d="M144.36229.00027C127.50188.10281,110.64055.0508,93.77947.05019,78.23577.04958,62.69194.02663,47.14836.07192a40.42271,40.42271,0,0,0-7.86022.52344C18.07939,4.89309,6.34282,18.81863.66613,38.73757-.58418,43.12478-.445,43.1758,4.36473,43.17629q48.40952.00549,96.819-.002a42.72963,42.72963,0,0,0,9.40045-.971C128.765,38.11184,144.0111,22.09475,147.4807,3.62466,148.01012.80605,147.21654-.01707,144.36229.00027Zm-3.09643,79.94189c-9.03931-14.49805-21.4375-23.65112-39.17371-23.824-17.10858-.16651-34.22-.03614-51.3302-.03614-15.794,0-31.58917.10157-47.381-.08276C.09105,55.961-.26075,56.94094.474,59.72878A60.9487,60.9487,0,0,0,9.74,79.96535a6.38561,6.38561,0,0,0,5.89429,2.9524c20.53167-.10816,41.06414-.05957,61.59637-.05957q30.79826,0,61.59662-.0044C140.77092,82.85305,143.38372,83.33913,141.26586,79.94216Zm-1.9848,11.52857c-9.864.12841-19.7306.05053-29.5962.05029H85.23033c1.16,1.60669,1.71845,2.46606,2.36121,3.25757,11.80219,14.531,17.10028,31.31176,17.34381,49.82641.07575,5.75562.022,5.75635,5.57721,3.75415,20.31262-7.32055,34.17786-30.2373,32.481-53.35644C142.79222,92.26076,141.9782,91.43557,139.28106,91.47073Zm72.578-43.30957c2.20227-.02808,2.6217-1.063,2.61712-2.91846q-.05089-20.40784.00812-40.81616c.00958-2.27137-.95038-2.84375-3.086-2.86609-2.45922-.02564-2.33,1.41748-2.32476,3.05749.0213,6.67188.00891,13.34387.00891,20.01575-.00006,6.80273.05,13.60608-.0304,20.40784C209.02776,47.09524,209.46807,48.19143,211.85906,48.16116ZM228.13,48.148c3.93854-.18652,7.893-.08594,11.83972-.03247,1.88862.02564,3.03089-.5144,2.94812-2.66015-.07635-1.978-.95123-2.80176-2.9613-2.67994-1.96649.1189-3.967-.15771-5.91479.06592-3.21393.369-4.29853-.68091-4.23487-4.05762.215-11.39868.04157-22.8042.11621-34.20654.014-2.13525-.55658-3.03931-2.87152-3.02222-2.24316.01636-2.57525,1.05567-2.5578,2.91016.06275,6.68384.02466,13.36853.02417,20.053-.00049,6.68433.10248,13.37109-.04986,20.052C224.40483,47.34084,225.38518,48.27785,228.13,48.148Zm-2.38122,58.40747c2.3399.05933,2.468-1.09643,2.46228-2.88794q-.06528-20.63415.00763-41.26831c.00891-2.03418-.3338-3.12036-2.76093-3.12988-2.47253-.00952-2.75036,1.15869-2.72833,3.15234.07538,6.81177.02887,13.62476.02942,20.43726.00049,6.9436.07843,13.88867-.043,20.83008C222.675,106.02,223.623,106.50149,225.74877,106.55544Zm169.3742-5.24682c-3.03442.27783-4.07843-.69092-4.02636-3.87989.18982-11.64843.05182-23.30175.09649-34.95288.00757-1.96753-.27008-3.21264-2.74237-3.19311-2.34033.01831-2.87805,1.01367-2.8529,3.10156.08209,6.80664.03076,13.61475.03064,20.42236-.00006,6.93848.07373,13.87818-.04273,20.8147-.03735,2.22437.6781,2.98315,2.92176,2.90772,4.33215-.14624,8.67395-.10035,13.00933-.01563,1.76111.03442,2.66224-.41626,2.71393-2.36548.04822-1.8186-.62317-2.73047-2.41357-2.78076A56.537,56.537,0,0,0,395.123,101.30862ZM357.46856,48.13747c4.07373-.1372,8.15722-.10864,12.23321-.00976,2.10529.051,3.13947-.52637,3.10474-2.86157-.03394-2.28846-1.27735-2.52954-3.05487-2.47754-1.97168.05786-3.96808-.17176-5.915.0542-3.16022.3667-4.0196-.86951-3.97412-3.9502.168-11.39892.03918-22.80176.09216-34.20276.00928-1.98352-.25543-3.1427-2.7356-3.1466-2.5144-.00391-2.70611,1.20983-2.68579,3.16357.06964,6.68274.02667,13.3667.02686,20.05029.00018,6.81446.07007,13.63013-.0398,20.44287C354.48442,47.42336,355.22741,48.21291,357.46856,48.13747ZM378.488,45.356c-.00793,2.03076.72541,2.791,2.77088,2.76562q9.47772-.11865,18.95746.00538c2.05389.02978,2.7359-.68848,2.75354-2.73267.01873-2.177-.93549-2.65381-2.86725-2.61621-4.47443.0874-8.95331-.04-13.42749.0542-2.01044.04248-2.83295-.61621-2.77069-2.70654.121-4.06177.15027-8.134-.00971-12.19312-.09143-2.318.8429-2.94507,2.99793-2.88867,4.21.11035,8.42584-.02124,12.63763.0459,2.01325.03222,2.77246-.72974,2.75842-2.78626-.01373-2.0238-.95611-2.432-2.68188-2.35412-1.83929.083-3.68549.01709-5.52856.01709-10.56073-.00013-10.49677.0017-10.19288-10.59766.06244-2.17529.61719-3.03076,2.9018-2.94141,3.94354.15442,7.90149.14356,11.8454-.00586,1.66851-.06323,4.23175,1.18848,4.29852-2.28051.07251-3.77857-2.723-2.33252-4.48328-2.46924-2.48626-.19336-4.999-.04907-7.50049-.04749-3.29132.00159-6.58435.06336-9.87335-.02295-1.80218-.04724-2.59771.49842-2.58935,2.44556Q378.57287,24.70114,378.488,45.356ZM294.5631,103.43557c-.00788,1.9812.21911,3.14111,2.70483,3.13086,2.39069-.00977,2.816-.98779,2.78784-3.05811-.09295-6.8059-.035-13.614-.0354-20.42114-.00048-6.93823-.05865-13.877.03339-20.81372.02936-2.21118-.77734-2.956-2.98755-2.99121-2.30572-.03662-2.5022,1.11108-2.49682,2.91772Q294.63109,82.81765,294.5631,103.43557Zm44.30743-78.8645c-.00018,6.80127.04413,13.60315-.02777,20.40381-.02087,1.97631.23145,3.229,2.71253,3.1726,2.27386-.05151,2.89312-.9663,2.88256-3.09887q-.09978-20.20716-.00006-40.41529c.01014-2.083-.46-3.05371-2.81305-3.07983-2.35907-.02612-2.82739.90234-2.79358,3.00659C338.93816,11.2289,338.87065,17.90041,338.87053,24.57107Zm58.92139,109.083c-1.75574.12451-4.98859-1.6858-5.08893,1.57641-.10516,3.4209,3.21527,1.26343,4.92694,1.83643,1.03412.34594,2.60541-.61109,3.1341.74316.41546,1.06445-.33875,2.25659-.97608,3.273a11.02868,11.02868,0,0,1-10.99469,4.64356c-4.58026-.916-8.833-5.09449-9.58471-9.41773a12.33544,12.33544,0,0,1,6.04681-13.05542c4.2688-2.40918,9.77093-1.62451,13.86114,1.98242,1.0149.895,1.823,2.52686,3.46973.78565,1.76276-1.864-.35168-2.553-1.16327-3.34473-4.35773-4.25268-9.58826-5.16113-15.3302-3.48315a15.33816,15.33816,0,1,0,15.64935,25.19873c1.74085-1.886,2.05884-4.44214,3.54023-6.40674v-3.15015C403.06377,132.78249,400.29637,133.47634,397.79192,133.65408ZM304.43706,48.00832c6.27722.06275,12.65015.81641,18.68665-1.73022,4.54455-1.91724,7.05395-5.27637,7.24353-10.2666.18646-4.90564-1.24482-9.08692-5.66779-11.689-1.63257-.96045-2.35272-1.281-.84576-3.27209,5.20178-6.87268,2.07159-15.95947-6.10889-18.58985-3.99335-1.284-8.08929-.58557-12.13275-.86877-2.36316-.16553-2.87927.88428-2.84943,2.996.09436,6.67786.03491,13.358.03467,20.03723-.00018,6.6792-.03107,13.35877.02649,20.03748C302.835,45.96365,302.22808,47.98611,304.43706,48.00832Zm20.257-11.19238c-.92352,4.02417-4.51111,5.96387-11.08026,5.991-6.31757-.07642-5.37207.6488-5.4563-5.40161-.02362-1.699-.00391-3.39856-.0036-5.0979.00079-5.88953.00091-5.88953,6.07361-5.65039C322.28087,26.97427,326.10161,30.68288,324.69408,36.81594Zm-14.108-30.29712c5.60522-.66943,9.50787,1.721,10.05945,5.76673q1.03353,7.57965-5.18457,9.0708c-.25318.06042-.51691.07531-.77448.11877-6.07123,1.026-6.53338.6499-6.53454-5.321q-.00029-1.17187-.00013-2.34351a2.12217,2.12217,0,0,1,.01276-.77588C309.08678,10.88955,305.92382,7.07558,310.58611,6.51882ZM222.79473,117.32693c-4.60572,10.46264-8.75714,19.89013-12.90357,29.31982-.32239.73316-.68347,1.52637.454,1.89185a2.23835,2.23835,0,0,0,2.80371-.81543c.78888-1.34741,1.27967-2.86426,1.97528-4.271.65882-1.332.8-3.17749,2.989-3.10107,3.40423.11865,6.97107-.39258,10.15942.48242,2.16663.59473,2.21588,3.91553,3.25751,5.99414a3.90143,3.90143,0,0,0,.86426,1.29614,2.46916,2.46916,0,0,0,2.59979.38648c1.40582-.58448.54675-1.57129.23932-2.29126C231.27672,136.9529,227.27318,127.70657,222.79473,117.32693Zm.42175,19.833c-5.35809-.21533-5.36865-.0476-3.26068-4.98291.7608-1.78125,1.54437-3.553,2.76483-6.35644,1.2937,3.04663,2.04633,5.36084,3.21344,7.44482C227.84777,136.68264,226.613,137.29641,223.21648,137.15993ZM270.89855.83718c-13.9101-.0282-24.51679,10.2572-24.53119,23.78821A24.36556,24.36556,0,1,0,270.89855.83718Zm-.20325,42.7572a18.68323,18.68323,0,0,1-18.905-18.93884,19.07244,19.07244,0,0,1,19.037-18.97388A19.45732,19.45732,0,0,1,289.727,24.98171,19.25236,19.25236,0,0,1,270.6953,43.59438ZM333.5988,119.062c-2.11108.0542-1.73852,1.54346-1.74688,2.78858-.02741,4.06055-.01026,8.12109-.0105,12.18164q-.00038,5.89453-.00092,11.78882c-.00073,1.324-.15692,2.782,1.77863,2.8562,1.89075.07275,2.004-1.26563,2.00293-2.66895q-.00861-12.18163.00232-24.36352C335.626,120.2366,335.55828,119.0115,333.5988,119.062Zm-146.421-70.24511c6.89173-.83594,11.94983-5.33741,13.1659-11.7168,1.22674-6.43481-1.25006-10.90942-8.14942-14.50122-3.3703-1.75464-7.0039-3.07654-10.178-5.119-4.4364-2.85461-3.70086-8.83606,1.15058-10.9657,4.05237-1.77893,7.51648-.74341,10.16473,2.65711,1.74359,2.23889,2.95593.45117,4.28766-.31494,1.98187-1.14.45843-2.23084-.253-3.129a12.28024,12.28024,0,0,0-10.66-4.89087c-6.331-.00952-11.23742,3.27685-12.73736,8.53223-1.59393,5.58483.5838,10.22924,6.62292,13.56079,3.32618,1.835,6.86615,3.28161,10.23127,5.05127a7.47926,7.47926,0,0,1,4.18,7.80908,9.08344,9.08344,0,0,1-7.3501,7.70093c-4.57251.771-8.52252-1.00171-10.22052-5.42969-1.13037-2.94776-2.60687-2.70923-4.76831-1.77967-2.85211,1.22669-.72864,2.97522-.20123,4.172A14.23129,14.23129,0,0,0,187.17778,48.81692Zm108.05371,73.4082c2.50068.07715,5.00574.01782,7.50885.011,1.09668-.00318,2.14228-.01978,2.10993-1.59107-.03192-1.5498-1.08405-1.55835-2.17035-1.56079-3.55713-.00757-7.11914.10767-10.66962-.04516-2.34271-.10108-2.9356.90917-2.87536,3.03027.11163,3.93384.03192,7.873.03289,11.81006q.00156,6.10216-.00152,12.20434c-.002,1.22437-.022,2.54908,1.65619,2.56958,4.21277.05176,8.427.01441,12.64013-.0332a1.33383,1.33383,0,0,0,1.38758-1.53882,1.42812,1.42812,0,0,0-1.35926-1.602c-.91345-.09619-1.83789-.11035-2.75781-.1189-8.12506-.07568-8.12481-.07275-7.824-8.24023a7.20768,7.20768,0,0,0,.00372-.78711c-.12323-1.68872.66663-2.34863,2.34686-2.29419,2.36878.07691,4.74225.00391,7.11353.01807,1.15564.00683,2.13892-.14893,2.102-1.63941-.0376-1.52343-1.11377-1.53271-2.21515-1.52563-1.18561.00732-2.3714-.00073-3.55707-.00073-6.247-.001-6.37481-.20264-5.82824-6.34864C293.0205,122.90481,293.52831,122.17287,295.23149,122.22512ZM284.22673,88.49563c.55951-5.7522.55951-5.75244-5.07672-5.75488q-2.36883-.00111-4.73767.0017c-2.36889.00171-4.7406.07276-7.10577-.02026-1.96869-.07715-2.82642.55957-2.81024,2.68726.01593,2.082,1.0429,2.34912,2.71295,2.30713,2.63043-.06617,5.282.17871,7.89136-.06275,3.54687-.32861,3.753,1.45752,2.80126,3.98584-2.2456,5.96509-6.87365,9.2146-12.95062,10.18726A19.11365,19.11365,0,0,1,244.2578,89.59426c-3.18353-8.45093.342-18.22632,8.38184-23.24023,7.21313-4.49854,16.759-3.20118,23.15033,3.12548,1.36761,1.354,2.28912,3.67969,4.88086,1.08326,2.69958-2.70435-.04133-3.71558-1.24866-4.948a24.52128,24.52128,0,0,0-41.736,19.13623c.489,9.32788,7.52838,18.41748,16.61712,21.45654C268.057,110.80642,282.91185,102.01394,284.22673,88.49563Zm26.74006-23.84741c1.70672-.06519,3.42944.11206,5.12438-.04273,2.362-.21533,3.24335.58154,3.17542,3.054-.16187,5.88891-.05219,11.7854-.05182,17.67895.00037,5.76245-.01208,11.5249.00739,17.2876.00647,1.8811-.58747,3.88721,2.70324,3.96069,3.26343.07276,2.8382-1.82177,2.8371-3.78418q-.00841-14.53747-.00256-29.07446c0-8.70312-.002-8.76294,8.57074-9.051,2.09253-.07031,3.10431-.55029,3.11425-2.87182.00989-2.30567-1.17944-2.49439-2.97656-2.48291-7.494.04809-14.98919.07715-22.48236-.01538-2.15185-.02661-3.04327.55737-3.01825,2.86938C307.99266,64.48782,309.1834,64.71633,310.96679,64.64822Zm-38.36,65.86328c3.73773-3.43164,7.21619-7.14356,11.09473-11.03223-3.104-1.01172-4.96668.05786-6.72016,1.97388-2.39251,2.61426-4.98584,5.04761-7.52673,7.52417-.51239.49951-.973,1.398-1.91492.91479-.7099-.36426-.46795-1.16186-.47888-1.78027-.03687-2.09815-.00269-4.19727-.0249-6.29566-.0138-1.303.1842-2.769-1.87512-2.7019-1.9054.0625-1.49506,1.499-1.49939,2.57544q-.0487,12.00147-.00769,24.00293c.00335,1.249-.3573,2.865,1.66168,2.92358,2.48913.07251,1.57275-1.898,1.70941-3.14038.34943-3.17773-.63538-6.47509.85583-10.11474,3.51905,3.88134,6.83423,7.384,9.96064,11.04663,1.71582,2.01025,3.576,2.75342,6.64972,1.86133-4.173-4.56031-7.97608-8.84668-11.93689-12.9834C270.86534,133.52224,270.64165,132.3157,272.6068,130.5115Zm103.92926-27.64527q-8.96274-21.15636-18.1485-42.2185c-.41321-.95093-.50116-2.27954-2.04236-2.72193q-10.66039,24.09961-21.293,48.13672c4.25385,1.36524,6.60621-.01562,7.77057-3.91992.63245-2.12012,1.7898-4.07959,2.54322-6.17139.708-1.96557,1.77539-2.90136,4.04681-2.81128,4.6.18213,9.21423.13257,13.81879.02125,2.29962-.05542,3.6596.76708,4.45959,2.96,1.07581,2.949,2.38464,5.81518,3.63239,8.70019,1.08856,2.51709,3.46014,1.92481,5.13458,1.457C378.873,105.62356,376.965,103.87868,376.53606,102.86623ZM361.96324,88.25051c-3.68518-.00171-7.37042-.01733-11.05541.00977-1.90333.01391-1.80713-.90235-1.21821-2.25025,2.24884-5.1477,4.45362-10.31469,6.9477-16.1084,2.42846,5.77369,4.59338,10.92481,6.76208,16.07447C364.00786,87.42092,363.66,88.251,361.96324,88.25051ZM192.676,59.79006c-4.07306-.60742-8.14257-.24463-12.20495-.47656-2.2309-.1272-2.97241.64941-2.932,2.89331.12262,6.81226.04443,13.62793.04437,20.44238,0,6.94556.05738,13.8916-.03515,20.8357-.02765,2.06591.36487,3.17553,2.78235,3.041,3.5418-.19726,7.11407.0835,10.64794-.17895,12.7284-.94556,21.57721-10.30591,21.88208-22.96558C213.16045,70.93215,205.14666,61.64993,192.676,59.79006Zm-8.0755,41.46436c-1.92206-.49048-1.57129-1.81568-1.57953-3.0459-.03448-5.1167-.01446-10.2334-.01446-15.3501s.001-10.2334-.00061-15.3501c-.00049-1.45776-.14856-2.67114,2.07324-2.92822C199.342,62.929,209.43908,73.26369,206.875,87.05471,205.10466,96.57644,193.94316,103.63869,184.60051,101.25442Zm19.67664,34.6101c-1.14111-5.81079-2.324-11.61328-3.48944-17.41918l-.81494-.00293c-3.30957,7.5-6.61921,15-10.21167,23.14086-3.621-8.1477-6.964-15.66992-10.30707-23.19213-2.54468,9.12158-4.265,17.9707-5.88379,26.83789-.21179,1.1604-1.6684,2.98779.90668,3.39477,2.0321.32129,2.21838-1.24145,2.50366-2.74.98309-5.16235,2.048-10.30932,3.304-16.56982,3.3435,7.30615,6.203,13.55493,9.46624,20.686,3.2638-7.14013,6.138-13.428,9.01227-19.71582a130.10366,130.10366,0,0,1,3.77832,15.71045c.28265,1.45581.452,3.02539,2.55115,2.65967,2.27026-.39526,1.07489-2.062.92267-3.12256C205.5504,142.293,204.90813,139.07766,204.27715,135.86452Zm120.24676-16.77465c-3.81152-.02954-7.6278-.1167-11.43274.04419-1.324.0559-3.64691-1.1272-3.76263,1.39233-.11633,2.53247,2.22473,1.74072,3.5705,1.656,2.63763-.16626,3.4884.88623,3.36407,3.416-.16052,3.26538-.03912,6.54444-.03863,9.81763s-.04938,6.54736.02356,9.81909c.032,1.42676-.64179,3.49243,1.95739,3.39868,2.28986-.08252,1.66809-1.94873,1.67786-3.261.045-6.02222.1712-12.0503-.03809-18.06568-.12115-3.48315.14582-6.0022,4.67438-5.11059,1.03082.20288,2.47907.4187,2.48132-1.51538C327.003,118.7759,325.64171,119.09866,324.52391,119.08987Zm-73.748,19.07837c-1.3963-1.76539-1.53882-2.56568.92645-3.52466,3.93738-1.53174,4.55457-5.05078,4.24957-8.83692-.2846-3.53418-2.48468-5.24975-5.65246-6.22509-2.59711-.79981-5.22528-.36988-7.83985-.48023-1.50586-.06348-1.62945.93652-1.62842,2.07593.008,8.3938.01813,16.7876-.01257,25.18115-.005,1.3606.25281,2.34863,1.88342,2.31641,1.68055-.03369,1.79651-1.18189,1.79181-2.4502-.01159-3.11865-.00384-6.23779-.00384-9.35644q.45217-.12378.90423-.24732c.826,1.14136,1.66468,2.27368,2.47516,3.42554,1.73621,2.46777,3.44446,4.95483,5.19049,7.41553a2.7108,2.7108,0,0,0,3.81134.93872c1.389-1.02271-.32159-2.00952-.86761-2.84595C254.35558,143.02981,252.64562,140.532,250.77587,138.16824Zm-4.08832-5.61475c-4.45984-.04712-1.391-3.574-2.63867-5.19629,1.149-1.6604-1.7-5.22583,2.838-5.03735,3.563.1477,5.68372,1.95459,5.76617,5.02124C252.73656,130.45119,250.30382,132.59158,246.68755,132.55349Zm121.10974-13.42017c-2.71832-.03491-1.69214,2.19117-1.71509,3.49805-.10473,5.94629-.046,11.89575-.046,16.65454-3.60522-3.06665-7.62988-6.37817-11.52484-9.83472-3.86139-3.427-7.592-7-11.5824-10.69628q0,13.25244.00934,26.52758c.00318,1.51-.41491,3.4668,2.07514,3.34546,2.28192-.11133,1.62256-2.0039,1.63421-3.30542.053-5.96069.02326-11.92236.02326-18.96093,4.3053,4.53051,7.83545,8.31933,11.449,12.02734,3.58624,3.67993,7.25653,7.27905,11.47913,11.50268,0-9.71142.03314-18.46093-.03449-27.20971C369.55394,121.31448,370.40233,119.167,367.79729,119.13332Z"/></svg>