<svg xmlns="http://www.w3.org/2000/svg" viewBox="0 0 723.23145 150.00001"><defs><style>.a{fill:#61263c;}</style></defs><path class="a" d="M109,.26289c-2.33618-.30292-2.4397,1.47393-2.8136,3.15948-2.68323,12.09637-7.57947,23.34589-13.371,34.25842C84.21118,53.89356,74.14368,69.34327,67.1825,86.3877c-1.16468-.40027-1.51307-1.35034-1.97522-2.21875C57.41846,69.53687,49.33655,55.04969,41.9209,40.23347,35.84375,28.0918,27.57751,16.99683,23.8938,3.70667c-.631-2.27618-2.28345-1.44653-3.55762-1.47162C13.55884,2.10169,6.77905,2.09052,0,2.03706V4.00959C1.316,3.987,1.44165,5.18378,1.8584,5.94746Q24.7411,47.8723,47.5603,89.83118A24.67409,24.67409,0,0,1,50.512,102.11463c-.09887,11.49817-.084,22.99793-.01953,34.49658.06738,11.99219-1.75586,12.80115,11.64429,12.3357,6.67383-.23182,7.96753-1.1764,7.90137-8.02893q-.21351-22.16565-.36609-44.33191a18.90258,18.90258,0,0,1,1.962-9.53284C86.35535,60.31861,98.63318,32.27875,115.22314,6.54316c1.00745-1.56268,2.022-3.06946.65479-4.928C114.00647-.92907,111.31323.56287,109,.26289ZM514.38818.33967c-3.00464.31311-1.11523,2.72925-.86523,3.85119a100.09465,100.09465,0,0,1,2.03271,23.00373c-.15918,14.79071-.17578,29.58331-.18127,44.37512-.00745,20.217.05554,40.43408.07068,60.65112.001,1.24744.63537,2.96961-.91113,3.49964-1.68909.57885-1.95081-1.4043-2.64161-2.34412-5.65417-7.69275-11.2312-15.44165-16.81591-23.18457Q457.37866,57.92743,419.67676,5.66608c-1.29968-1.80053-2.26831-3.792-5.27295-3.70929-7.10742.19568-14.23157.10761-21.33887-.14593-3.07568-.10974-3.26025,1.23559-2.65576,3.53131,1.26855,4.81805,1.28882,9.74969,1.28979,14.6767q.01136,60.90116.08631,121.80218c.00622,2.22754-1.72254,6.32739,2.23327,6.25415,2.854-.05273,1.983-3.95752,1.98169-6.22644q-.03478-64.099-.18469-128.19794c-.00207-1.551-.22253-3.25433,1.53259-4.99523,2.99952,4.04205,5.95142,7.91363,8.79175,11.86425Q448.8,79.85408,491.42188,139.21509c4.36669,6.08167,9.814,10.002,17.74291,9.98536,8.87684-.01856,10.344-1.28333,10.33362-10.20887q-.06756-58.43242-.2091-116.86468c-.01807-4.95227-.06543-9.84027,1.46826-14.611a8.043,8.043,0,0,0-.21985-4.82819C519.51538-.87,516.61035.108,514.38818.33967ZM721.31787,142.13343q-15.5299-37.48864-31.04529-74.98315c-8.202-19.85474-16.30871-39.74866-24.57776-59.57569-1.74853-4.1925-4.24292-7.25751-9.75317-7.53418-5.65955-.28418-4.23608,4.17005-5.23071,6.53009q-28.65967,68.00683-56.97852,136.15558c-1.0935,2.61475-1.09375,4.89539.65051,7.27393,1.66346-1.13843,1.84449-2.85694,2.45948-4.31739q25.19916-59.8449,50.41833-119.68145c.64234-1.521.55835-4.18189,2.71192-4.07276,1.499.076,1.87426,2.4372,2.4989,3.95368Q677.0141,85.46662,701.56177,145.0492c1.07885,2.62415,2.6831,3.89612,5.59021,3.83484,5.28186-.11121,10.5675-.03149,16.07947-.03149C723.16223,145.97657,722.12866,144.09083,721.31787,142.13343ZM277.19861,46.51856C271.81677,33.4751,266.55615,20.38166,261.082,7.37672,259.3938,3.36579,257.04126.39271,251.73047.024c-5.14209-.35705-4.39819,3.351-5.42066,5.79621q-25.62927,61.29189-51.12768,122.63769c-2.33374,5.60071-4.71924,11.18018-7.09827,16.76209-.58508,1.3728-.67444,2.57507.97791,3.22607,1.42651.56226,2.15112-.29309,2.64929-1.44824.71533-1.65845,1.40515-3.32788,2.10437-4.99316,16.88989-40.2323,33.77954-80.46473,50.83618-121.09449,2.19177,1.63056,2.61084,3.63867,3.3418,5.39563q13.04443,31.34949,25.98388,62.742c7.01636,16.97766,14.08875,33.93322,20.99134,50.95642,2.556,6.30371,6.959,9.29248,13.77575,8.84082,1.31788-.0874,2.64673-.00843,3.97046-.01331,6.52442-.02429,6.65735-.17248,4.11255-6.34326Q297.03407,94.49481,277.19861,46.51856Z"/></svg>