<svg xmlns="http://www.w3.org/2000/svg" viewBox="0 0 383.56 255.71"><defs><style>.cls-1{opacity:0.2;}.cls-2{fill:#ffc007;}</style></defs><title>Asset 9</title><g id="Layer_2" data-name="Layer 2"><g id="Line_pattern" data-name="Line pattern"><g id="Pattern" class="cls-1"><path class="cls-2" d="M9.92,8.82l.28-.27A12.54,12.54,0,0,1,6.84,0H6.39A12.74,12.74,0,0,0,9.92,8.82Z"/><path class="cls-2" d="M14.37,5.28l.34-.23a9.37,9.37,0,0,1-1.48-5h-.44A9.56,9.56,0,0,0,14.37,5.28Z"/><path class="cls-2" d="M19.67,2.45l.4-.16A6,6,0,0,1,19.63,0h-.45A6.23,6.23,0,0,0,19.67,2.45Z"/><path class="cls-2" d="M25.57,0a3.28,3.28,0,0,0,.06.63l.44-.09A3.1,3.1,0,0,1,26,0Z"/><path class="cls-2" d="M0,31.74H0v0Z"/><path class="cls-2" d="M.17,28.61l0-.25-.2,0v.25Z"/><path class="cls-2" d="M.77,25l.06-.27c-.28-.06-.55-.13-.83-.21v.29Z"/><path class="cls-2" d="M1.92,21,2,20.74a20.38,20.38,0,0,1-2-.88v.36Q.95,20.67,1.92,21Z"/><path class="cls-2" d="M3.76,16.92l.15-.29A18.93,18.93,0,0,1,0,13.78v.51A18.94,18.94,0,0,0,3.76,16.92Z"/><path class="cls-2" d="M.45,0H0A16,16,0,0,0,6.39,12.79l.22-.29A15.72,15.72,0,0,1,.45,0Z"/><path class="cls-2" d="M63.92,31.74c0,.07,0,.15,0,.22a32,32,0,0,0,32-32h-.45A31.74,31.74,0,0,1,63.92,31.74Z"/><path class="cls-2" d="M63.72,28.36l0,.25A28.77,28.77,0,0,0,89.5,0h-.45A28.55,28.55,0,0,1,63.72,28.36Z"/><path class="cls-2" d="M63.09,24.68l.06.27A25.59,25.59,0,0,0,83.11,0h-.45A25.34,25.34,0,0,1,63.09,24.68Z"/><path class="cls-2" d="M61.9,20.74c0,.1.07.19.11.29A22.39,22.39,0,0,0,76.71,0h-.45A22.16,22.16,0,0,1,61.9,20.74Z"/><path class="cls-2" d="M60,16.63l.15.29A19.17,19.17,0,0,0,70.32,0h-.45A19,19,0,0,1,60,16.63Z"/><path class="cls-2" d="M57.32,12.5l.22.29A16,16,0,0,0,63.93,0h-.45A15.75,15.75,0,0,1,57.32,12.5Z"/><path class="cls-2" d="M53.72,8.55l.29.27A12.77,12.77,0,0,0,57.53,0h-.44A12.5,12.5,0,0,1,53.72,8.55Z"/><path class="cls-2" d="M49.21,5.05l.35.23A9.56,9.56,0,0,0,51.14,0h-.45A9.29,9.29,0,0,1,49.21,5.05Z"/><path class="cls-2" d="M43.86,2.29l.4.16A6.41,6.41,0,0,0,44.75,0H44.3A6.22,6.22,0,0,1,43.86,2.29Z"/><path class="cls-2" d="M37.86.54l.43.09A3.29,3.29,0,0,0,38.36,0h-.45A3.1,3.1,0,0,1,37.86.54Z"/><path class="cls-2" d="M191.78,31.74V32a32,32,0,0,0,32-32h-.44A31.74,31.74,0,0,1,191.78,31.74Z"/><path class="cls-2" d="M191.58,28.36l0,.25A28.77,28.77,0,0,0,217.35,0h-.45A28.54,28.54,0,0,1,191.58,28.36Z"/><path class="cls-2" d="M191,24.68,191,25A25.58,25.58,0,0,0,211,0h-.45A25.34,25.34,0,0,1,191,24.68Z"/><path class="cls-2" d="M189.75,20.74c0,.1.08.19.11.29A22.4,22.4,0,0,0,204.57,0h-.45A22.15,22.15,0,0,1,189.75,20.74Z"/><path class="cls-2" d="M187.87,16.63a2.69,2.69,0,0,0,.16.29A19.18,19.18,0,0,0,198.17,0h-.44A19,19,0,0,1,187.87,16.63Z"/><path class="cls-2" d="M185.17,12.5l.22.29A16,16,0,0,0,191.78,0h-.45A15.72,15.72,0,0,1,185.17,12.5Z"/><path class="cls-2" d="M181.58,8.55l.28.27A12.74,12.74,0,0,0,185.39,0h-.45A12.54,12.54,0,0,1,181.58,8.55Z"/><path class="cls-2" d="M177.07,5.05l.34.23A9.57,9.57,0,0,0,179,0h-.45A9.37,9.37,0,0,1,177.07,5.05Z"/><path class="cls-2" d="M171.71,2.29l.4.16A6.23,6.23,0,0,0,172.6,0h-.44A6,6,0,0,1,171.71,2.29Z"/><path class="cls-2" d="M165.71.54l.44.09a3.28,3.28,0,0,0,.06-.63h-.45A3.1,3.1,0,0,1,165.71.54Z"/><path class="cls-2" d="M319.63,31.74V32a32,32,0,0,0,32-32h-.45A31.74,31.74,0,0,1,319.63,31.74Z"/><path class="cls-2" d="M319.43,28.36l0,.25A28.77,28.77,0,0,0,345.21,0h-.45A28.55,28.55,0,0,1,319.43,28.36Z"/><path class="cls-2" d="M318.8,24.68l.06.27A25.58,25.58,0,0,0,338.81,0h-.44A25.35,25.35,0,0,1,318.8,24.68Z"/><path class="cls-2" d="M317.61,20.74c0,.1.07.19.1.29A22.4,22.4,0,0,0,332.42,0H332A22.16,22.16,0,0,1,317.61,20.74Z"/><path class="cls-2" d="M315.72,16.63l.16.29A19.17,19.17,0,0,0,326,0h-.45A18.94,18.94,0,0,1,315.72,16.63Z"/><path class="cls-2" d="M313,12.5a3.15,3.15,0,0,1,.22.29A16,16,0,0,0,319.63,0h-.44A15.73,15.73,0,0,1,313,12.5Z"/><path class="cls-2" d="M309.43,8.55l.28.27A12.74,12.74,0,0,0,313.24,0h-.45A12.49,12.49,0,0,1,309.43,8.55Z"/><path class="cls-2" d="M304.92,5.05l.35.23A9.56,9.56,0,0,0,306.85,0h-.45A9.29,9.29,0,0,1,304.92,5.05Z"/><path class="cls-2" d="M299.57,2.29l.4.16A6.41,6.41,0,0,0,300.46,0H300A6.22,6.22,0,0,1,299.57,2.29Z"/><path class="cls-2" d="M293.57.54l.43.09a3.28,3.28,0,0,0,.06-.63h-.44A3.1,3.1,0,0,1,293.57.54Z"/><path class="cls-2" d="M127.85,32c0-.07,0-.15,0-.22A31.74,31.74,0,0,1,96.34,0h-.45A32,32,0,0,0,127.85,32Z"/><path class="cls-2" d="M128,28.61l0-.25A28.55,28.55,0,0,1,102.73,0h-.45A28.77,28.77,0,0,0,128,28.61Z"/><path class="cls-2" d="M128.63,25l.06-.27A25.35,25.35,0,0,1,109.12,0h-.44A25.58,25.58,0,0,0,128.63,25Z"/><path class="cls-2" d="M129.78,21c0-.1.07-.19.1-.29A22.16,22.16,0,0,1,115.52,0h-.45A22.38,22.38,0,0,0,129.78,21Z"/><path class="cls-2" d="M131.61,16.92l.16-.29A18.94,18.94,0,0,1,121.91,0h-.45A19.17,19.17,0,0,0,131.61,16.92Z"/><path class="cls-2" d="M134.25,12.79l.21-.29A15.75,15.75,0,0,1,128.3,0h-.45A16,16,0,0,0,134.25,12.79Z"/><path class="cls-2" d="M137.77,8.82l.29-.27A12.5,12.5,0,0,1,134.69,0h-.44A12.77,12.77,0,0,0,137.77,8.82Z"/><path class="cls-2" d="M142.22,5.28l.35-.23a9.29,9.29,0,0,1-1.48-5h-.45A9.56,9.56,0,0,0,142.22,5.28Z"/><path class="cls-2" d="M147.52,2.45l.4-.16A6.22,6.22,0,0,1,147.48,0H147A6.41,6.41,0,0,0,147.52,2.45Z"/><path class="cls-2" d="M153.42,0a3.29,3.29,0,0,0,.07.63l.43-.09a3.1,3.1,0,0,1,0-.54Z"/><path class="cls-2" d="M255.71,32v-.22A31.74,31.74,0,0,1,224.19,0h-.45A32,32,0,0,0,255.71,32Z"/><path class="cls-2" d="M255.88,28.61l0-.25A28.55,28.55,0,0,1,230.58,0h-.44A28.77,28.77,0,0,0,255.88,28.61Z"/><path class="cls-2" d="M256.48,25l.06-.27A25.34,25.34,0,0,1,237,0h-.45A25.58,25.58,0,0,0,256.48,25Z"/><path class="cls-2" d="M257.63,21c0-.1.07-.19.11-.29A22.15,22.15,0,0,1,243.37,0h-.45A22.4,22.4,0,0,0,257.63,21Z"/><path class="cls-2" d="M259.46,16.92l.16-.29A19,19,0,0,1,249.76,0h-.44A19.16,19.16,0,0,0,259.46,16.92Z"/><path class="cls-2" d="M262.1,12.79l.22-.29A15.72,15.72,0,0,1,256.16,0h-.45A16,16,0,0,0,262.1,12.79Z"/><path class="cls-2" d="M265.63,8.82l.28-.27A12.49,12.49,0,0,1,262.55,0h-.45A12.74,12.74,0,0,0,265.63,8.82Z"/><path class="cls-2" d="M270.08,5.28l.34-.23a9.37,9.37,0,0,1-1.48-5h-.45A9.57,9.57,0,0,0,270.08,5.28Z"/><path class="cls-2" d="M275.37,2.45l.4-.16A6.22,6.22,0,0,1,275.33,0h-.44A6.41,6.41,0,0,0,275.37,2.45Z"/><path class="cls-2" d="M281.28,0a3.28,3.28,0,0,0,.06.63l.44-.09a2.36,2.36,0,0,1,0-.54Z"/><path class="cls-2" d="M32,.45A31.74,31.74,0,0,1,63.7,32h.23A32,32,0,0,0,0,32H.23A31.74,31.74,0,0,1,32,.45Z"/><path class="cls-2" d="M32,6.39A28.78,28.78,0,0,0,3.35,32.14l.25,0a28.55,28.55,0,0,1,56.73,0l.24,0A28.77,28.77,0,0,0,32,6.39Z"/><path class="cls-2" d="M32,13.23A25.36,25.36,0,0,1,56.65,32.8l.26-.06a25.58,25.58,0,0,0-49.9,0l.27.06A25.35,25.35,0,0,1,32,13.23Z"/><path class="cls-2" d="M32,19.18a22.37,22.37,0,0,0-21,14.7l.28.11a22.16,22.16,0,0,1,41.49,0l.28-.11A22.38,22.38,0,0,0,32,19.18Z"/><path class="cls-2" d="M32,25.57A19.18,19.18,0,0,0,15,35.72a2.69,2.69,0,0,1,.29.16,19,19,0,0,1,33.27,0,2.69,2.69,0,0,1,.29-.16A19.18,19.18,0,0,0,32,25.57Z"/><path class="cls-2" d="M32,32a16,16,0,0,0-12.78,6.39l.28.22a15.76,15.76,0,0,1,25,0l.29-.22A16,16,0,0,0,32,32Z"/><path class="cls-2" d="M32,38.36a12.73,12.73,0,0,0-8.81,3.52l.26.29a12.54,12.54,0,0,1,17.11,0c.08-.1.17-.19.26-.29A12.76,12.76,0,0,0,32,38.36Z"/><path class="cls-2" d="M26.69,46.33l.22.35a9.36,9.36,0,0,1,10.1,0l.23-.35a9.6,9.6,0,0,0-10.55,0Z"/><path class="cls-2" d="M29.51,51.63c.06.13.11.27.16.4a6.18,6.18,0,0,1,4.58,0c.06-.13.11-.27.17-.4a6.4,6.4,0,0,0-4.91,0Z"/><path class="cls-2" d="M31.34,57.6c0,.14.05.29.08.43a3,3,0,0,1,1.09,0c0-.14.05-.29.08-.43a2.83,2.83,0,0,0-1.25,0Z"/><path class="cls-2" d="M95.89,63.48A31.74,31.74,0,0,0,127.63,32h.22a32,32,0,1,1-63.92,0h.22A31.74,31.74,0,0,0,95.89,63.48Z"/><path class="cls-2" d="M95.89,57.53A28.76,28.76,0,0,1,67.28,31.79l.25,0a28.54,28.54,0,0,0,56.72,0l.25,0A28.76,28.76,0,0,1,95.89,57.53Z"/><path class="cls-2" d="M95.89,50.69a25.34,25.34,0,0,0,24.68-19.56l.27.06a25.58,25.58,0,0,1-49.9,0l.27-.06A25.34,25.34,0,0,0,95.89,50.69Z"/><path class="cls-2" d="M95.89,44.75A22.4,22.4,0,0,1,74.86,30l.29-.1a22.16,22.16,0,0,0,41.48,0l.29.1A22.4,22.4,0,0,1,95.89,44.75Z"/><path class="cls-2" d="M95.89,38.36A19.17,19.17,0,0,1,79,28.21l.29-.16a19,19,0,0,0,33.26,0l.29.16A19.17,19.17,0,0,1,95.89,38.36Z"/><path class="cls-2" d="M95.89,32a15.94,15.94,0,0,1-12.78-6.39l.28-.22a15.75,15.75,0,0,0,25,0l.29.22A16,16,0,0,1,95.89,32Z"/><path class="cls-2" d="M95.89,25.57A12.74,12.74,0,0,1,87.07,22l.27-.28a12.56,12.56,0,0,0,17.1,0l.27.28A12.74,12.74,0,0,1,95.89,25.57Z"/><path class="cls-2" d="M90.61,17.59a4,4,0,0,0,.23-.34,9.36,9.36,0,0,0,10.1,0,4,4,0,0,0,.23.34,9.56,9.56,0,0,1-10.56,0Z"/><path class="cls-2" d="M93.44,12.3c0-.14.11-.27.16-.4a6.18,6.18,0,0,0,4.58,0c0,.13.11.26.16.4a6.37,6.37,0,0,1-4.9,0Z"/><path class="cls-2" d="M95.26,6.33l.09-.44a2.46,2.46,0,0,0,1.08,0l.09.44a3.21,3.21,0,0,1-.63.06A3.36,3.36,0,0,1,95.26,6.33Z"/><path class="cls-2" d="M159.82.45A31.73,31.73,0,0,1,191.55,32h.23a32,32,0,0,0-63.93,0h.23A31.74,31.74,0,0,1,159.82.45Z"/><path class="cls-2" d="M159.82,6.39a28.77,28.77,0,0,0-28.61,25.75l.25,0a28.54,28.54,0,0,1,56.72,0l.25,0A28.78,28.78,0,0,0,159.82,6.39Z"/><path class="cls-2" d="M159.82,13.23A25.35,25.35,0,0,1,184.5,32.8l.27-.06a25.58,25.58,0,0,0-49.9,0l.26.06A25.36,25.36,0,0,1,159.82,13.23Z"/><path class="cls-2" d="M159.82,19.18a22.38,22.38,0,0,0-21,14.7l.29.11a22.16,22.16,0,0,1,41.48,0l.28-.11A22.37,22.37,0,0,0,159.82,19.18Z"/><path class="cls-2" d="M159.82,25.57A19.16,19.16,0,0,0,142.9,35.72l.29.16a19,19,0,0,1,33.26,0l.29-.16A19.18,19.18,0,0,0,159.82,25.57Z"/><path class="cls-2" d="M159.82,32A16,16,0,0,0,147,38.35l.29.22a15.76,15.76,0,0,1,25,0l.28-.22A15.94,15.94,0,0,0,159.82,32Z"/><path class="cls-2" d="M159.82,38.36A12.76,12.76,0,0,0,151,41.88c.09.1.18.19.26.29a12.54,12.54,0,0,1,17.11,0c.09-.1.18-.19.26-.29A12.73,12.73,0,0,0,159.82,38.36Z"/><path class="cls-2" d="M154.54,46.33l.23.35a9.36,9.36,0,0,1,10.1,0l.22-.35a9.6,9.6,0,0,0-10.55,0Z"/><path class="cls-2" d="M157.36,51.63c.06.13.11.27.17.4a6.18,6.18,0,0,1,4.58,0c0-.13.1-.27.16-.4a6.4,6.4,0,0,0-4.91,0Z"/><path class="cls-2" d="M159.19,57.6c0,.14.06.29.08.43a3.31,3.31,0,0,1,.55-.05,3.19,3.19,0,0,1,.54.05l.09-.43a3.38,3.38,0,0,0-.63-.07A3.2,3.2,0,0,0,159.19,57.6Z"/><path class="cls-2" d="M223.74,63.48A31.74,31.74,0,0,0,255.48,32h.23a32,32,0,1,1-63.93,0H192A31.74,31.74,0,0,0,223.74,63.48Z"/><path class="cls-2" d="M223.74,57.53a28.78,28.78,0,0,1-28.61-25.74l.25,0a28.55,28.55,0,0,0,56.73,0l.24,0A28.76,28.76,0,0,1,223.74,57.53Z"/><path class="cls-2" d="M223.74,50.69a25.36,25.36,0,0,0,24.69-19.56l.26.06a25.58,25.58,0,0,1-49.9,0l.27-.06A25.36,25.36,0,0,0,223.74,50.69Z"/><path class="cls-2" d="M223.74,44.75a22.38,22.38,0,0,1-21-14.71l.28-.1a22.16,22.16,0,0,0,41.49,0l.28.1A22.39,22.39,0,0,1,223.74,44.75Z"/><path class="cls-2" d="M223.74,38.36a19.18,19.18,0,0,1-16.92-10.15l.29-.16a19,19,0,0,0,33.27,0l.29.16A19.18,19.18,0,0,1,223.74,38.36Z"/><path class="cls-2" d="M223.74,32A16,16,0,0,1,211,25.57l.28-.22a15.75,15.75,0,0,0,25,0l.29.22A16,16,0,0,1,223.74,32Z"/><path class="cls-2" d="M223.74,25.57A12.71,12.71,0,0,1,214.93,22l.26-.28a12.57,12.57,0,0,0,17.11,0l.26.28A12.72,12.72,0,0,1,223.74,25.57Z"/><path class="cls-2" d="M218.47,17.59c.07-.11.15-.22.22-.34a9.36,9.36,0,0,0,10.1,0l.23.34a9.55,9.55,0,0,1-10.55,0Z"/><path class="cls-2" d="M221.29,12.3c.06-.14.11-.27.16-.4a6.26,6.26,0,0,0,2.29.44A6.18,6.18,0,0,0,226,11.9c.06.13.11.26.17.4a6.4,6.4,0,0,1-4.91,0Z"/><path class="cls-2" d="M223.12,6.33c0-.14,0-.29.08-.44a2.51,2.51,0,0,0,1.09,0c0,.15.05.3.08.44a3.29,3.29,0,0,1-1.25,0Z"/><path class="cls-2" d="M287.67.45A31.74,31.74,0,0,1,319.41,32h.22a32,32,0,1,0-63.92,0h.22A31.74,31.74,0,0,1,287.67.45Z"/><path class="cls-2" d="M287.67,6.39a28.77,28.77,0,0,0-28.61,25.75l.25,0a28.54,28.54,0,0,1,56.72,0l.25,0A28.77,28.77,0,0,0,287.67,6.39Z"/><path class="cls-2" d="M287.67,13.23A25.34,25.34,0,0,1,312.35,32.8l.27-.06a25.58,25.58,0,0,0-49.9,0l.27.06A25.34,25.34,0,0,1,287.67,13.23Z"/><path class="cls-2" d="M287.67,19.18a22.37,22.37,0,0,0-21,14.7l.28.11a22.16,22.16,0,0,1,41.48,0l.29-.11A22.39,22.39,0,0,0,287.67,19.18Z"/><path class="cls-2" d="M287.67,25.57a19.17,19.17,0,0,0-16.92,10.15l.29.16a19,19,0,0,1,33.26,0l.29-.16A19.17,19.17,0,0,0,287.67,25.57Z"/><path class="cls-2" d="M287.67,32a15.94,15.94,0,0,0-12.78,6.39l.28.22a15.76,15.76,0,0,1,25,0l.29-.22A16,16,0,0,0,287.67,32Z"/><path class="cls-2" d="M287.67,38.36a12.77,12.77,0,0,0-8.82,3.52l.27.29a12.53,12.53,0,0,1,17.1,0l.27-.29A12.77,12.77,0,0,0,287.67,38.36Z"/><path class="cls-2" d="M282.39,46.33c.08.12.16.23.23.35a9.36,9.36,0,0,1,10.1,0l.23-.35a9.61,9.61,0,0,0-10.56,0Z"/><path class="cls-2" d="M285.22,51.63l.16.4A6.18,6.18,0,0,1,290,52l.16-.4a6.37,6.37,0,0,0-4.9,0Z"/><path class="cls-2" d="M287,57.6l.09.43a3.19,3.19,0,0,1,.54-.05,3.31,3.31,0,0,1,.55.05c0-.14,0-.29.08-.43a3.2,3.2,0,0,0-.63-.07A3.38,3.38,0,0,0,287,57.6Z"/><path class="cls-2" d="M351.6,63.48A31.74,31.74,0,0,0,383.34,32h.22a32,32,0,1,1-63.93,0h.23A31.74,31.74,0,0,0,351.6,63.48Z"/><path class="cls-2" d="M351.6,57.53A28.76,28.76,0,0,1,323,31.79l.25,0a28.54,28.54,0,0,0,56.72,0l.25,0A28.76,28.76,0,0,1,351.6,57.53Z"/><path class="cls-2" d="M351.6,50.69a25.34,25.34,0,0,0,24.68-19.56l.27.06a25.58,25.58,0,0,1-49.9,0l.26-.06A25.36,25.36,0,0,0,351.6,50.69Z"/><path class="cls-2" d="M351.6,44.75a22.39,22.39,0,0,1-21-14.71l.29-.1a22.16,22.16,0,0,0,41.48,0l.28.1A22.38,22.38,0,0,1,351.6,44.75Z"/><path class="cls-2" d="M351.6,38.36a19.17,19.17,0,0,1-16.92-10.15l.29-.16a19,19,0,0,0,33.26,0l.29.16A19.18,19.18,0,0,1,351.6,38.36Z"/><path class="cls-2" d="M351.6,32a16,16,0,0,1-12.79-6.39l.29-.22a15.75,15.75,0,0,0,25,0l.28.22A15.94,15.94,0,0,1,351.6,32Z"/><path class="cls-2" d="M351.6,25.57A12.72,12.72,0,0,1,342.78,22l.26-.28a12.57,12.57,0,0,0,17.11,0l.27.28A12.74,12.74,0,0,1,351.6,25.57Z"/><path class="cls-2" d="M346.32,17.59l.23-.34a9.36,9.36,0,0,0,10.1,0,4,4,0,0,0,.23.34,9.56,9.56,0,0,1-10.56,0Z"/><path class="cls-2" d="M349.15,12.3c.05-.14.11-.27.16-.4a6.18,6.18,0,0,0,4.58,0c.05.13.11.26.16.4a6.37,6.37,0,0,1-4.9,0Z"/><path class="cls-2" d="M351,6.33c0-.14.06-.29.08-.44a2.51,2.51,0,0,0,.55.06,2.42,2.42,0,0,0,.54-.06l.09.44a3.36,3.36,0,0,1-.63.06A3.21,3.21,0,0,1,351,6.33Z"/><path class="cls-2" d="M32.41,63.93A31.74,31.74,0,0,1,63.93,32.19V32a32,32,0,1,0,0,63.93v-.23A31.74,31.74,0,0,1,32.41,63.93Z"/><path class="cls-2" d="M38.36,63.93A28.77,28.77,0,0,0,64.1,92.54l0-.25a28.54,28.54,0,0,1,0-56.72l0-.25A28.76,28.76,0,0,0,38.36,63.93Z"/><path class="cls-2" d="M45.2,63.93A25.36,25.36,0,0,1,64.76,39.24L64.7,39a25.58,25.58,0,0,0,0,49.9l.06-.27A25.35,25.35,0,0,1,45.2,63.93Z"/><path class="cls-2" d="M51.14,63.93A22.38,22.38,0,0,0,65.85,85l.1-.28a22.16,22.16,0,0,1,0-41.49c0-.09-.07-.18-.1-.28A22.39,22.39,0,0,0,51.14,63.93Z"/><path class="cls-2" d="M57.53,63.93A19.18,19.18,0,0,0,67.68,80.85l.16-.29a19,19,0,0,1,0-33.26l-.16-.3A19.18,19.18,0,0,0,57.53,63.93Z"/><path class="cls-2" d="M63.93,63.93a16,16,0,0,0,6.39,12.78c.07-.09.14-.19.22-.28a15.75,15.75,0,0,1,0-25l-.22-.29A16,16,0,0,0,63.93,63.93Z"/><path class="cls-2" d="M70.32,63.93a12.7,12.7,0,0,0,3.53,8.81l.28-.26a12.57,12.57,0,0,1,0-17.11l-.28-.26A12.72,12.72,0,0,0,70.32,63.93Z"/><path class="cls-2" d="M78.3,69.2l.34-.22a9.36,9.36,0,0,1,0-10.1l-.34-.23a9.55,9.55,0,0,0,0,10.55Z"/><path class="cls-2" d="M83.59,66.38l.4-.16a6.18,6.18,0,0,1,0-4.58l-.4-.17a6.52,6.52,0,0,0,0,4.91Z"/><path class="cls-2" d="M89.56,64.56l.44-.09a2.47,2.47,0,0,1,0-.54,2.5,2.5,0,0,1,0-.55l-.44-.08a3.21,3.21,0,0,0-.06.63A3.36,3.36,0,0,0,89.56,64.56Z"/><path class="cls-2" d="M159.37,63.93a31.74,31.74,0,0,0-31.52-31.74V32a32,32,0,1,1,0,63.93v-.23A31.74,31.74,0,0,0,159.37,63.93Z"/><path class="cls-2" d="M153.42,63.93a28.77,28.77,0,0,1-25.74,28.61l0-.25a28.54,28.54,0,0,0,0-56.72l0-.25A28.76,28.76,0,0,1,153.42,63.93Z"/><path class="cls-2" d="M146.58,63.93A25.36,25.36,0,0,0,127,39.24l.06-.26a25.58,25.58,0,0,1,0,49.9l-.06-.27A25.35,25.35,0,0,0,146.58,63.93Z"/><path class="cls-2" d="M140.64,63.93a22.38,22.38,0,0,1-14.71,21l-.1-.28a22.16,22.16,0,0,0,0-41.49c0-.09.07-.18.1-.28A22.39,22.39,0,0,1,140.64,63.93Z"/><path class="cls-2" d="M134.25,63.93A19.18,19.18,0,0,1,124.1,80.85a2.69,2.69,0,0,0-.16-.29,19,19,0,0,0,0-33.26c.06-.1.11-.2.16-.3A19.18,19.18,0,0,1,134.25,63.93Z"/><path class="cls-2" d="M127.85,63.93a16,16,0,0,1-6.39,12.78c-.07-.09-.14-.19-.22-.28a15.75,15.75,0,0,0,0-25l.22-.29A16,16,0,0,1,127.85,63.93Z"/><path class="cls-2" d="M121.46,63.93a12.7,12.7,0,0,1-3.53,8.81l-.28-.26a12.57,12.57,0,0,0,0-17.11,3.45,3.45,0,0,0,.28-.26A12.72,12.72,0,0,1,121.46,63.93Z"/><path class="cls-2" d="M113.49,69.2l-.35-.22a9.36,9.36,0,0,0,0-10.1l.35-.23a9.6,9.6,0,0,1,0,10.55Z"/><path class="cls-2" d="M108.19,66.38l-.4-.16a6.18,6.18,0,0,0,0-4.58l.4-.17a6.4,6.4,0,0,1,0,4.91Z"/><path class="cls-2" d="M102.22,64.56l-.44-.09a2.51,2.51,0,0,0,0-1.09l.44-.08a3.21,3.21,0,0,1,.06.63A3.36,3.36,0,0,1,102.22,64.56Z"/><path class="cls-2" d="M160.26,63.93a31.74,31.74,0,0,1,31.52-31.74V32a32,32,0,0,0,0,63.93v-.23A31.74,31.74,0,0,1,160.26,63.93Z"/><path class="cls-2" d="M166.21,63.93A28.78,28.78,0,0,0,192,92.54a2,2,0,0,1,0-.25,28.54,28.54,0,0,1,0-56.72,2.29,2.29,0,0,1,0-.25A28.77,28.77,0,0,0,166.21,63.93Z"/><path class="cls-2" d="M173.05,63.93a25.36,25.36,0,0,1,19.56-24.69l-.06-.26a25.58,25.58,0,0,0,0,49.9l.06-.27A25.35,25.35,0,0,1,173.05,63.93Z"/><path class="cls-2" d="M179,63.93a22.37,22.37,0,0,0,14.7,21c0-.09.07-.19.11-.28a22.16,22.16,0,0,1,0-41.49c0-.09-.07-.18-.11-.28A22.38,22.38,0,0,0,179,63.93Z"/><path class="cls-2" d="M185.39,63.93a19.18,19.18,0,0,0,10.15,16.92l.15-.29a19,19,0,0,1,0-33.26l-.15-.3A19.18,19.18,0,0,0,185.39,63.93Z"/><path class="cls-2" d="M191.78,63.93a16,16,0,0,0,6.39,12.78l.22-.28a15.76,15.76,0,0,1,0-25l-.22-.29A16,16,0,0,0,191.78,63.93Z"/><path class="cls-2" d="M198.17,63.93a12.74,12.74,0,0,0,3.53,8.81l.28-.26a12.57,12.57,0,0,1,0-17.11l-.28-.26A12.76,12.76,0,0,0,198.17,63.93Z"/><path class="cls-2" d="M206.15,69.2l.34-.22a9.36,9.36,0,0,1,0-10.1l-.34-.23a9.6,9.6,0,0,0,0,10.55Z"/><path class="cls-2" d="M211.45,66.38l.4-.16a6.18,6.18,0,0,1,0-4.58l-.4-.17a6.4,6.4,0,0,0,0,4.91Z"/><path class="cls-2" d="M217.41,64.56l.44-.09a3,3,0,0,1,0-1.09l-.44-.08a3.21,3.21,0,0,0-.06.63A3.36,3.36,0,0,0,217.41,64.56Z"/><path class="cls-2" d="M287.22,63.93A31.74,31.74,0,0,0,255.7,32.19a1.77,1.77,0,0,0,0-.23,32,32,0,0,1,0,63.93,1.77,1.77,0,0,0,0-.23A31.74,31.74,0,0,0,287.22,63.93Z"/><path class="cls-2" d="M281.28,63.93a28.78,28.78,0,0,1-25.75,28.61l0-.25a28.54,28.54,0,0,0,0-56.72l0-.25A28.77,28.77,0,0,1,281.28,63.93Z"/><path class="cls-2" d="M274.44,63.93a25.36,25.36,0,0,0-19.57-24.69l.06-.26a25.57,25.57,0,0,1,0,49.9l-.06-.27A25.35,25.35,0,0,0,274.44,63.93Z"/><path class="cls-2" d="M268.49,63.93a22.37,22.37,0,0,1-14.7,21c0-.09-.07-.19-.11-.28a22.16,22.16,0,0,0,0-41.49c0-.09.07-.18.11-.28A22.38,22.38,0,0,1,268.49,63.93Z"/><path class="cls-2" d="M262.1,63.93A19.18,19.18,0,0,1,252,80.85l-.15-.29a19,19,0,0,0,0-33.26L252,47A19.18,19.18,0,0,1,262.1,63.93Z"/><path class="cls-2" d="M255.71,63.93a16,16,0,0,1-6.39,12.78c-.08-.09-.15-.19-.22-.28a15.76,15.76,0,0,0,0-25l.22-.29A16,16,0,0,1,255.71,63.93Z"/><path class="cls-2" d="M249.32,63.93a12.74,12.74,0,0,1-3.53,8.81l-.29-.26a12.54,12.54,0,0,0,0-17.11l.29-.26A12.76,12.76,0,0,1,249.32,63.93Z"/><path class="cls-2" d="M241.34,69.2,241,69a9.36,9.36,0,0,0,0-10.1l.35-.23a9.6,9.6,0,0,1,0,10.55Z"/><path class="cls-2" d="M236,66.38l-.4-.16a6.18,6.18,0,0,0,0-4.58l.4-.17a6.4,6.4,0,0,1,0,4.91Z"/><path class="cls-2" d="M230.07,64.56l-.43-.09a3,3,0,0,0,0-1.09l.43-.08a2.59,2.59,0,0,1,.07.63A2.7,2.7,0,0,1,230.07,64.56Z"/><path class="cls-2" d="M288.12,63.93a31.74,31.74,0,0,1,31.52-31.74c0-.08,0-.15,0-.23a32,32,0,0,0,0,63.93c0-.08,0-.15,0-.23A31.74,31.74,0,0,1,288.12,63.93Z"/><path class="cls-2" d="M294.06,63.93a28.78,28.78,0,0,0,25.75,28.61l0-.25a28.54,28.54,0,0,1,0-56.72l0-.25A28.77,28.77,0,0,0,294.06,63.93Z"/><path class="cls-2" d="M300.9,63.93a25.37,25.37,0,0,1,19.57-24.69l-.06-.26a25.58,25.58,0,0,0,0,49.9l.06-.27A25.36,25.36,0,0,1,300.9,63.93Z"/><path class="cls-2" d="M306.85,63.93a22.38,22.38,0,0,0,14.71,21l.1-.28a22.16,22.16,0,0,1,0-41.49c0-.09-.07-.18-.1-.28A22.39,22.39,0,0,0,306.85,63.93Z"/><path class="cls-2" d="M313.24,63.93a19.18,19.18,0,0,0,10.15,16.92,2.69,2.69,0,0,1,.16-.29,19,19,0,0,1,0-33.26c-.06-.1-.11-.2-.16-.3A19.18,19.18,0,0,0,313.24,63.93Z"/><path class="cls-2" d="M319.63,63.93A16,16,0,0,0,326,76.71c.07-.09.14-.19.22-.28a15.75,15.75,0,0,1,0-25l-.22-.29A16,16,0,0,0,319.63,63.93Z"/><path class="cls-2" d="M326,63.93a12.73,12.73,0,0,0,3.52,8.81l.29-.26a12.54,12.54,0,0,1,0-17.11l-.29-.26A12.76,12.76,0,0,0,326,63.93Z"/><path class="cls-2" d="M334,69.2l.35-.22a9.36,9.36,0,0,1,0-10.1l-.35-.23a9.6,9.6,0,0,0,0,10.55Z"/><path class="cls-2" d="M339.3,66.38l.4-.16a6.18,6.18,0,0,1,0-4.58l-.4-.17a6.4,6.4,0,0,0,0,4.91Z"/><path class="cls-2" d="M345.27,64.56l.43-.09a3,3,0,0,1,0-1.09l-.43-.08a3.21,3.21,0,0,0-.06.63A3.36,3.36,0,0,0,345.27,64.56Z"/><path class="cls-2" d="M0,32v.23A31.74,31.74,0,0,1,31.52,63.93,31.74,31.74,0,0,1,0,95.66v.23a32,32,0,0,0,32-32A32,32,0,0,0,0,32Z"/><path class="cls-2" d="M25.57,63.93A28.77,28.77,0,0,0,0,35.34v.25A28.54,28.54,0,0,1,25.12,63.93,28.54,28.54,0,0,1,0,92.26v.26A28.78,28.78,0,0,0,25.57,63.93Z"/><path class="cls-2" d="M19.18,63.93A25.58,25.58,0,0,0,0,39.16v.29A25.36,25.36,0,0,1,18.73,63.93,25.35,25.35,0,0,1,0,88.4v.29A25.58,25.58,0,0,0,19.18,63.93Z"/><path class="cls-2" d="M12.79,63.93A22.37,22.37,0,0,0,0,43.71v.36A22.14,22.14,0,0,1,12.34,63.93,22.15,22.15,0,0,1,0,83.79v.36A22.38,22.38,0,0,0,12.79,63.93Z"/><path class="cls-2" d="M6.39,63.93A19.13,19.13,0,0,0,0,49.64v.51A18.89,18.89,0,0,1,6,63.93,18.91,18.91,0,0,1,0,77.71v.51A19.13,19.13,0,0,0,6.39,63.93Z"/><path class="cls-2" d="M32,127.41A31.74,31.74,0,0,0,63.7,95.89h.23A32,32,0,0,1,0,95.89H.23A31.74,31.74,0,0,0,32,127.41Z"/><path class="cls-2" d="M32,121.46A28.78,28.78,0,0,1,3.35,95.72l.25,0a28.55,28.55,0,0,0,56.73,0l.24,0A28.77,28.77,0,0,1,32,121.46Z"/><path class="cls-2" d="M32,114.62A25.36,25.36,0,0,0,56.65,95.06l.26.06a25.58,25.58,0,0,1-49.9,0l.27-.06A25.35,25.35,0,0,0,32,114.62Z"/><path class="cls-2" d="M32,108.68A22.38,22.38,0,0,1,10.94,94l.28-.11a22.16,22.16,0,0,0,41.49,0L53,94A22.39,22.39,0,0,1,32,108.68Z"/><path class="cls-2" d="M32,102.28A19.19,19.19,0,0,1,15,92.14l.29-.16A19,19,0,0,0,48.6,92l.29.16A19.19,19.19,0,0,1,32,102.28Z"/><path class="cls-2" d="M32,95.89A16,16,0,0,1,19.18,89.5l.28-.22a15.76,15.76,0,0,0,25,0l.29.22A16,16,0,0,1,32,95.89Z"/><path class="cls-2" d="M32,89.5A12.7,12.7,0,0,1,23.15,86l.26-.28a12.57,12.57,0,0,0,17.11,0l.26.28A12.72,12.72,0,0,1,32,89.5Z"/><path class="cls-2" d="M26.69,81.52l.22-.34a9.36,9.36,0,0,0,10.1,0l.23.34a9.55,9.55,0,0,1-10.55,0Z"/><path class="cls-2" d="M29.51,76.22c.06-.13.11-.26.16-.4a6.18,6.18,0,0,0,4.58,0c.06.14.11.27.17.4a6.4,6.4,0,0,1-4.91,0Z"/><path class="cls-2" d="M31.34,70.26c0-.15.05-.29.08-.44a3,3,0,0,0,1.09,0c0,.15.05.29.08.44a3.29,3.29,0,0,1-1.25,0Z"/><path class="cls-2" d="M95.89,64.37a31.74,31.74,0,0,1,31.74,31.52h.22a32,32,0,1,0-63.92,0h.22A31.74,31.74,0,0,1,95.89,64.37Z"/><path class="cls-2" d="M95.89,70.32A28.77,28.77,0,0,0,67.28,96.07l.25,0a28.54,28.54,0,0,1,56.72,0l.25,0A28.77,28.77,0,0,0,95.89,70.32Z"/><path class="cls-2" d="M95.89,77.16a25.34,25.34,0,0,1,24.68,19.56l.27-.06a25.58,25.58,0,0,0-49.9,0l.27.06A25.34,25.34,0,0,1,95.89,77.16Z"/><path class="cls-2" d="M95.89,83.11a22.39,22.39,0,0,0-21,14.7l.29.11a22.15,22.15,0,0,1,41.48,0l.29-.11A22.39,22.39,0,0,0,95.89,83.11Z"/><path class="cls-2" d="M95.89,89.5A19.17,19.17,0,0,0,79,99.65l.29.15a19,19,0,0,1,33.26,0l.29-.15A19.17,19.17,0,0,0,95.89,89.5Z"/><path class="cls-2" d="M95.89,95.89a15.94,15.94,0,0,0-12.78,6.39l.28.22a15.76,15.76,0,0,1,25,0l.29-.22A16,16,0,0,0,95.89,95.89Z"/><path class="cls-2" d="M95.89,102.28a12.74,12.74,0,0,0-8.82,3.53l.27.28a12.56,12.56,0,0,1,17.1,0l.27-.28A12.74,12.74,0,0,0,95.89,102.28Z"/><path class="cls-2" d="M90.61,110.26l.23.34a9.36,9.36,0,0,1,10.1,0l.23-.34a9.61,9.61,0,0,0-10.56,0Z"/><path class="cls-2" d="M93.44,115.56c0,.13.11.26.16.4a6.18,6.18,0,0,1,4.58,0c0-.14.11-.27.16-.4a6.37,6.37,0,0,0-4.9,0Z"/><path class="cls-2" d="M95.26,121.52l.09.44a2.94,2.94,0,0,1,1.08,0l.09-.44a3.21,3.21,0,0,0-.63-.06A3.36,3.36,0,0,0,95.26,121.52Z"/><path class="cls-2" d="M159.82,127.41a31.73,31.73,0,0,0,31.73-31.52h.23a32,32,0,0,1-63.93,0h.23A31.74,31.74,0,0,0,159.82,127.41Z"/><path class="cls-2" d="M159.82,121.46a28.77,28.77,0,0,1-28.61-25.74l.25,0a28.54,28.54,0,0,0,56.72,0l.25,0A28.78,28.78,0,0,1,159.82,121.46Z"/><path class="cls-2" d="M159.82,114.62A25.35,25.35,0,0,0,184.5,95.06l.27.06a25.58,25.58,0,0,1-49.9,0l.26-.06A25.36,25.36,0,0,0,159.82,114.62Z"/><path class="cls-2" d="M159.82,108.68a22.39,22.39,0,0,1-21-14.71l.29-.11a22.15,22.15,0,0,0,41.48,0l.28.11A22.38,22.38,0,0,1,159.82,108.68Z"/><path class="cls-2" d="M159.82,102.28A19.17,19.17,0,0,1,142.9,92.14a2.69,2.69,0,0,1,.29-.16,19,19,0,0,0,33.26,0l.29.16A19.19,19.19,0,0,1,159.82,102.28Z"/><path class="cls-2" d="M159.82,95.89A16,16,0,0,1,147,89.5l.29-.22a15.76,15.76,0,0,0,25,0l.28.22A15.94,15.94,0,0,1,159.82,95.89Z"/><path class="cls-2" d="M159.82,89.5A12.72,12.72,0,0,1,151,86l.26-.28a12.57,12.57,0,0,0,17.11,0l.26.28A12.7,12.7,0,0,1,159.82,89.5Z"/><path class="cls-2" d="M154.54,81.52l.23-.34a9.36,9.36,0,0,0,10.1,0l.22.34a9.55,9.55,0,0,1-10.55,0Z"/><path class="cls-2" d="M157.36,76.22c.06-.13.11-.26.17-.4a6.18,6.18,0,0,0,4.58,0c0,.14.1.27.16.4a6.4,6.4,0,0,1-4.91,0Z"/><path class="cls-2" d="M159.19,70.26c0-.15.06-.29.08-.44a3.31,3.31,0,0,0,.55.05,3.19,3.19,0,0,0,.54-.05l.09.44a3.36,3.36,0,0,1-.63.06A3.21,3.21,0,0,1,159.19,70.26Z"/><path class="cls-2" d="M223.74,64.37a31.74,31.74,0,0,1,31.74,31.52h.23a32,32,0,0,0-63.93,0H192A31.74,31.74,0,0,1,223.74,64.37Z"/><path class="cls-2" d="M223.74,70.32a28.78,28.78,0,0,0-28.61,25.75l.25,0a28.55,28.55,0,0,1,56.73,0l.24,0A28.77,28.77,0,0,0,223.74,70.32Z"/><path class="cls-2" d="M223.74,77.16a25.36,25.36,0,0,1,24.69,19.56l.26-.06a25.58,25.58,0,0,0-49.9,0l.27.06A25.36,25.36,0,0,1,223.74,77.16Z"/><path class="cls-2" d="M223.74,83.11a22.37,22.37,0,0,0-21,14.7l.28.11a22.16,22.16,0,0,1,41.49,0l.28-.11A22.38,22.38,0,0,0,223.74,83.11Z"/><path class="cls-2" d="M223.74,89.5a19.18,19.18,0,0,0-16.92,10.15l.29.15a19,19,0,0,1,33.27,0l.29-.15A19.18,19.18,0,0,0,223.74,89.5Z"/><path class="cls-2" d="M223.74,95.89A16,16,0,0,0,211,102.28l.28.22a15.76,15.76,0,0,1,25,0l.29-.22A16,16,0,0,0,223.74,95.89Z"/><path class="cls-2" d="M223.74,102.28a12.71,12.71,0,0,0-8.81,3.53l.26.28a12.57,12.57,0,0,1,17.11,0l.26-.28A12.72,12.72,0,0,0,223.74,102.28Z"/><path class="cls-2" d="M218.47,110.26l.22.34a9.36,9.36,0,0,1,10.1,0l.23-.34a9.6,9.6,0,0,0-10.55,0Z"/><path class="cls-2" d="M221.29,115.56c.06.13.11.26.16.4a6.06,6.06,0,0,1,2.29-.44A6,6,0,0,1,226,116c.06-.14.11-.27.17-.4a6.4,6.4,0,0,0-4.91,0Z"/><path class="cls-2" d="M223.12,121.52c0,.15,0,.29.08.44a3,3,0,0,1,1.09,0c0-.15.05-.29.08-.44a3.29,3.29,0,0,0-1.25,0Z"/><path class="cls-2" d="M287.67,127.41a31.74,31.74,0,0,0,31.74-31.52h.22a32,32,0,1,1-63.92,0h.22A31.74,31.74,0,0,0,287.67,127.41Z"/><path class="cls-2" d="M287.67,121.46a28.77,28.77,0,0,1-28.61-25.74l.25,0a28.54,28.54,0,0,0,56.72,0l.25,0A28.77,28.77,0,0,1,287.67,121.46Z"/><path class="cls-2" d="M287.67,114.62a25.34,25.34,0,0,0,24.68-19.56l.27.06a25.58,25.58,0,0,1-49.9,0l.27-.06A25.34,25.34,0,0,0,287.67,114.62Z"/><path class="cls-2" d="M287.67,108.68a22.38,22.38,0,0,1-21-14.71l.28-.11a22.15,22.15,0,0,0,41.48,0l.29.11A22.4,22.4,0,0,1,287.67,108.68Z"/><path class="cls-2" d="M287.67,102.28a19.18,19.18,0,0,1-16.92-10.14L271,92a19,19,0,0,0,33.26,0,2.69,2.69,0,0,1,.29.16A19.18,19.18,0,0,1,287.67,102.28Z"/><path class="cls-2" d="M287.67,95.89a15.94,15.94,0,0,1-12.78-6.39l.28-.22a15.76,15.76,0,0,0,25,0l.29.22A16,16,0,0,1,287.67,95.89Z"/><path class="cls-2" d="M287.67,89.5A12.74,12.74,0,0,1,278.85,86l.27-.28a12.56,12.56,0,0,0,17.1,0l.27.28A12.74,12.74,0,0,1,287.67,89.5Z"/><path class="cls-2" d="M282.39,81.52l.23-.34a9.36,9.36,0,0,0,10.1,0l.23.34a9.56,9.56,0,0,1-10.56,0Z"/><path class="cls-2" d="M285.22,76.22c0-.13.11-.26.16-.4a6.18,6.18,0,0,0,4.58,0c.05.14.11.27.16.4a6.37,6.37,0,0,1-4.9,0Z"/><path class="cls-2" d="M287,70.26l.09-.44a3.19,3.19,0,0,0,.54.05,3.31,3.31,0,0,0,.55-.05c0,.15,0,.29.08.44a3.21,3.21,0,0,1-.63.06A3.36,3.36,0,0,1,287,70.26Z"/><path class="cls-2" d="M351.6,64.37a31.75,31.75,0,0,1,31.74,31.52h.22a32,32,0,0,0-63.93,0h.23A31.74,31.74,0,0,1,351.6,64.37Z"/><path class="cls-2" d="M351.6,70.32A28.77,28.77,0,0,0,323,96.07l.25,0a28.54,28.54,0,0,1,56.72,0l.25,0A28.77,28.77,0,0,0,351.6,70.32Z"/><path class="cls-2" d="M351.6,77.16a25.34,25.34,0,0,1,24.68,19.56l.27-.06a25.58,25.58,0,0,0-49.9,0l.26.06A25.36,25.36,0,0,1,351.6,77.16Z"/><path class="cls-2" d="M351.6,83.11a22.38,22.38,0,0,0-21,14.7l.29.11a22.15,22.15,0,0,1,41.48,0l.28-.11A22.37,22.37,0,0,0,351.6,83.11Z"/><path class="cls-2" d="M351.6,89.5a19.17,19.17,0,0,0-16.92,10.15l.29.15a19,19,0,0,1,33.26,0l.29-.15A19.18,19.18,0,0,0,351.6,89.5Z"/><path class="cls-2" d="M351.6,95.89a16,16,0,0,0-12.79,6.39l.29.22a15.76,15.76,0,0,1,25,0l.28-.22A15.94,15.94,0,0,0,351.6,95.89Z"/><path class="cls-2" d="M351.6,102.28a12.72,12.72,0,0,0-8.82,3.53l.26.28a12.57,12.57,0,0,1,17.11,0l.27-.28A12.74,12.74,0,0,0,351.6,102.28Z"/><path class="cls-2" d="M346.32,110.26l.23.34a9.36,9.36,0,0,1,10.1,0l.23-.34a9.61,9.61,0,0,0-10.56,0Z"/><path class="cls-2" d="M349.15,115.56c.05.13.11.26.16.4a6.18,6.18,0,0,1,4.58,0c.05-.14.11-.27.16-.4a6.37,6.37,0,0,0-4.9,0Z"/><path class="cls-2" d="M351,121.52c0,.15.06.29.08.44a3.31,3.31,0,0,1,.55,0,3.19,3.19,0,0,1,.54,0l.09-.44a3.36,3.36,0,0,0-.63-.06A3.21,3.21,0,0,0,351,121.52Z"/><path class="cls-2" d="M95.44,127.85A31.74,31.74,0,0,0,63.92,96.12c0-.08,0-.15,0-.23a32,32,0,0,1,0,63.93c0-.08,0-.15,0-.23A31.74,31.74,0,0,0,95.44,127.85Z"/><path class="cls-2" d="M89.5,127.85a28.77,28.77,0,0,1-25.75,28.61l0-.24a28.55,28.55,0,0,0,0-56.73l0-.25A28.78,28.78,0,0,1,89.5,127.85Z"/><path class="cls-2" d="M82.66,127.85a25.35,25.35,0,0,0-19.57-24.68l.06-.27a25.57,25.57,0,0,1,0,49.9l-.06-.26A25.36,25.36,0,0,0,82.66,127.85Z"/><path class="cls-2" d="M76.71,127.85a22.38,22.38,0,0,1-14.7,21c0-.1-.08-.19-.11-.28a22.16,22.16,0,0,0,0-41.49c0-.09.07-.19.11-.28A22.37,22.37,0,0,1,76.71,127.85Z"/><path class="cls-2" d="M70.32,127.85a19.18,19.18,0,0,1-10.15,16.93l-.15-.29a19,19,0,0,0,0-33.27l.15-.29A19.18,19.18,0,0,1,70.32,127.85Z"/><path class="cls-2" d="M63.93,127.85a16,16,0,0,1-6.39,12.79l-.22-.29a15.76,15.76,0,0,0,0-25c.07-.09.14-.19.22-.28A16,16,0,0,1,63.93,127.85Z"/><path class="cls-2" d="M57.53,127.85A12.76,12.76,0,0,1,54,136.67l-.29-.26a12.54,12.54,0,0,0,0-17.11L54,119A12.75,12.75,0,0,1,57.53,127.85Z"/><path class="cls-2" d="M49.56,133.13l-.35-.23a9.36,9.36,0,0,0,0-10.1l.35-.22a9.6,9.6,0,0,1,0,10.55Z"/><path class="cls-2" d="M44.26,130.31l-.4-.17a6.18,6.18,0,0,0,0-4.58l.4-.16a6.4,6.4,0,0,1,0,4.91Z"/><path class="cls-2" d="M38.29,128.48l-.43-.08a3,3,0,0,0,0-1.09l.43-.08a2.83,2.83,0,0,1,0,1.25Z"/><path class="cls-2" d="M96.34,127.85a31.74,31.74,0,0,1,31.52-31.73c0-.08,0-.15,0-.23a32,32,0,0,0,0,63.93c0-.08,0-.15,0-.23A31.74,31.74,0,0,1,96.34,127.85Z"/><path class="cls-2" d="M102.28,127.85A28.77,28.77,0,0,0,128,156.46l0-.24a28.55,28.55,0,0,1,0-56.73l0-.25A28.78,28.78,0,0,0,102.28,127.85Z"/><path class="cls-2" d="M109.12,127.85a25.36,25.36,0,0,1,19.57-24.68l-.06-.27a25.58,25.58,0,0,0,0,49.9l.06-.26A25.37,25.37,0,0,1,109.12,127.85Z"/><path class="cls-2" d="M115.07,127.85a22.37,22.37,0,0,0,14.71,21c0-.1.07-.19.1-.28a22.16,22.16,0,0,1,0-41.49l-.1-.28A22.37,22.37,0,0,0,115.07,127.85Z"/><path class="cls-2" d="M121.46,127.85a19.18,19.18,0,0,0,10.15,16.93,2.69,2.69,0,0,1,.16-.29,19,19,0,0,1,0-33.27,2.69,2.69,0,0,1-.16-.29A19.18,19.18,0,0,0,121.46,127.85Z"/><path class="cls-2" d="M127.85,127.85a16,16,0,0,0,6.4,12.79l.21-.29a15.76,15.76,0,0,1,0-25l-.21-.28A15.93,15.93,0,0,0,127.85,127.85Z"/><path class="cls-2" d="M134.25,127.85a12.76,12.76,0,0,0,3.52,8.82l.29-.26a12.54,12.54,0,0,1,0-17.11l-.29-.26A12.75,12.75,0,0,0,134.25,127.85Z"/><path class="cls-2" d="M142.22,133.13l.35-.23a9.36,9.36,0,0,1,0-10.1l-.35-.22a9.6,9.6,0,0,0,0,10.55Z"/><path class="cls-2" d="M147.52,130.31l.4-.17a6.18,6.18,0,0,1,0-4.58l-.4-.16a6.4,6.4,0,0,0,0,4.91Z"/><path class="cls-2" d="M153.49,128.48l.43-.08a3,3,0,0,1,0-1.09l-.43-.08a2.83,2.83,0,0,0,0,1.25Z"/><path class="cls-2" d="M223.3,127.85a31.74,31.74,0,0,0-31.52-31.73v-.23a32,32,0,0,1,0,63.93v-.23A31.74,31.74,0,0,0,223.3,127.85Z"/><path class="cls-2" d="M217.35,127.85a28.77,28.77,0,0,1-25.74,28.61l0-.24a28.55,28.55,0,0,0,0-56.73l0-.25A28.78,28.78,0,0,1,217.35,127.85Z"/><path class="cls-2" d="M210.51,127.85A25.35,25.35,0,0,0,191,103.17l.06-.27a25.58,25.58,0,0,1,0,49.9l-.06-.26A25.36,25.36,0,0,0,210.51,127.85Z"/><path class="cls-2" d="M204.57,127.85a22.39,22.39,0,0,1-14.71,21,2.33,2.33,0,0,0-.11-.28,22.16,22.16,0,0,0,0-41.49c0-.09.08-.19.11-.28A22.38,22.38,0,0,1,204.57,127.85Z"/><path class="cls-2" d="M198.17,127.85A19.19,19.19,0,0,1,188,144.78l-.16-.29a19,19,0,0,0,0-33.27l.16-.29A19.19,19.19,0,0,1,198.17,127.85Z"/><path class="cls-2" d="M191.78,127.85a16,16,0,0,1-6.39,12.79l-.22-.29a15.76,15.76,0,0,0,0-25l.22-.28A16,16,0,0,1,191.78,127.85Z"/><path class="cls-2" d="M185.39,127.85a12.72,12.72,0,0,1-3.53,8.82l-.28-.26a12.57,12.57,0,0,0,0-17.11l.28-.26A12.71,12.71,0,0,1,185.39,127.85Z"/><path class="cls-2" d="M177.41,133.13l-.34-.23a9.36,9.36,0,0,0,0-10.1l.34-.22a9.55,9.55,0,0,1,0,10.55Z"/><path class="cls-2" d="M172.11,130.31l-.4-.17a6.05,6.05,0,0,0,0-4.58l.4-.16a6.4,6.4,0,0,1,0,4.91Z"/><path class="cls-2" d="M166.15,128.48l-.44-.08a3,3,0,0,0,0-1.09l.44-.08a3.29,3.29,0,0,1,0,1.25Z"/><path class="cls-2" d="M224.19,127.85a31.74,31.74,0,0,1,31.52-31.73v-.23a32,32,0,1,0,0,63.93v-.23A31.74,31.74,0,0,1,224.19,127.85Z"/><path class="cls-2" d="M230.14,127.85a28.77,28.77,0,0,0,25.74,28.61l0-.24a28.55,28.55,0,0,1,0-56.73l0-.25A28.78,28.78,0,0,0,230.14,127.85Z"/><path class="cls-2" d="M237,127.85a25.35,25.35,0,0,1,19.56-24.68l-.06-.27a25.58,25.58,0,0,0,0,49.9l.06-.26A25.36,25.36,0,0,1,237,127.85Z"/><path class="cls-2" d="M242.92,127.85a22.39,22.39,0,0,0,14.71,21,2.33,2.33,0,0,1,.11-.28,22.16,22.16,0,0,1,0-41.49c0-.09-.08-.19-.11-.28A22.38,22.38,0,0,0,242.92,127.85Z"/><path class="cls-2" d="M249.32,127.85a19.17,19.17,0,0,0,10.14,16.93l.16-.29a19,19,0,0,1,0-33.27l-.16-.29A19.17,19.17,0,0,0,249.32,127.85Z"/><path class="cls-2" d="M255.71,127.85a16,16,0,0,0,6.39,12.79l.22-.29a15.76,15.76,0,0,1,0-25l-.22-.28A16,16,0,0,0,255.71,127.85Z"/><path class="cls-2" d="M262.1,127.85a12.72,12.72,0,0,0,3.53,8.82l.28-.26a12.57,12.57,0,0,1,0-17.11l-.28-.26A12.71,12.71,0,0,0,262.1,127.85Z"/><path class="cls-2" d="M270.08,133.13l.34-.23a9.36,9.36,0,0,1,0-10.1l-.34-.22a9.55,9.55,0,0,0,0,10.55Z"/><path class="cls-2" d="M275.37,130.31l.4-.17a6.18,6.18,0,0,1,0-4.58l-.4-.16a6.52,6.52,0,0,0,0,4.91Z"/><path class="cls-2" d="M281.34,128.48l.44-.08a2.5,2.5,0,0,1,0-.55,2.47,2.47,0,0,1,0-.54l-.44-.08a3.29,3.29,0,0,0,0,1.25Z"/><path class="cls-2" d="M351.15,127.85a31.74,31.74,0,0,0-31.52-31.73v-.23a32,32,0,1,1,0,63.93v-.23A31.74,31.74,0,0,0,351.15,127.85Z"/><path class="cls-2" d="M345.21,127.85a28.77,28.77,0,0,1-25.75,28.61l0-.24a28.55,28.55,0,0,0,0-56.73l0-.25A28.78,28.78,0,0,1,345.21,127.85Z"/><path class="cls-2" d="M338.37,127.85a25.36,25.36,0,0,0-19.57-24.68l.06-.27a25.58,25.58,0,0,1,0,49.9l-.06-.26A25.37,25.37,0,0,0,338.37,127.85Z"/><path class="cls-2" d="M332.42,127.85a22.39,22.39,0,0,1-14.71,21c0-.1-.07-.19-.1-.28a22.16,22.16,0,0,0,0-41.49l.1-.28A22.38,22.38,0,0,1,332.42,127.85Z"/><path class="cls-2" d="M326,127.85a19.18,19.18,0,0,1-10.15,16.93,2.69,2.69,0,0,0-.16-.29,19,19,0,0,0,0-33.27,2.69,2.69,0,0,0,.16-.29A19.18,19.18,0,0,1,326,127.85Z"/><path class="cls-2" d="M319.63,127.85a16,16,0,0,1-6.39,12.79l-.22-.29a15.75,15.75,0,0,0,0-25c.08-.09.15-.19.22-.28A16,16,0,0,1,319.63,127.85Z"/><path class="cls-2" d="M313.24,127.85a12.72,12.72,0,0,1-3.53,8.82l-.28-.26a12.57,12.57,0,0,0,0-17.11l.28-.26A12.71,12.71,0,0,1,313.24,127.85Z"/><path class="cls-2" d="M305.27,133.13l-.35-.23a9.36,9.36,0,0,0,0-10.1l.35-.22a9.6,9.6,0,0,1,0,10.55Z"/><path class="cls-2" d="M300,130.31l-.4-.17a6.18,6.18,0,0,0,0-4.58l.4-.16a6.4,6.4,0,0,1,0,4.91Z"/><path class="cls-2" d="M294,128.48l-.43-.08a3,3,0,0,0,0-1.09l.43-.08a3.29,3.29,0,0,1,0,1.25Z"/><path class="cls-2" d="M0,127.85a16,16,0,0,0,6.39,12.79l.22-.29a15.76,15.76,0,0,1,0-25l-.22-.28A16,16,0,0,0,0,127.85Z"/><path class="cls-2" d="M6.39,127.85a12.72,12.72,0,0,0,3.53,8.82l.28-.26a12.57,12.57,0,0,1,0-17.11L9.92,119A12.71,12.71,0,0,0,6.39,127.85Z"/><path class="cls-2" d="M14.37,133.13l.34-.23a9.36,9.36,0,0,1,0-10.1l-.34-.22a9.6,9.6,0,0,0,0,10.55Z"/><path class="cls-2" d="M19.67,130.31l.4-.17a6.18,6.18,0,0,1,0-4.58l-.4-.16a6.4,6.4,0,0,0,0,4.91Z"/><path class="cls-2" d="M25.63,128.48l.44-.08a3,3,0,0,1,0-1.09l-.44-.08a3.29,3.29,0,0,0,0,1.25Z"/><path class="cls-2" d="M0,159.59H0v0Z"/><path class="cls-2" d="M0,96.12v0Z"/><path class="cls-2" d="M.17,156.46l0-.24-.2,0v.25Z"/><path class="cls-2" d="M.2,99.49l0-.25-.17,0v.26Z"/><path class="cls-2" d="M.83,103.17l-.06-.27-.77.19v.29Z"/><path class="cls-2" d="M.77,152.8l.06-.26L0,152.33v.29C.26,152.68.51,152.75.77,152.8Z"/><path class="cls-2" d="M1.92,148.88c0-.1.07-.19.11-.28-.7-.26-1.37-.56-2-.88v.35Q.95,148.52,1.92,148.88Z"/><path class="cls-2" d="M2,107.11c0-.09-.07-.19-.11-.28-.65.24-1.29.51-1.92.8V108C.66,107.67,1.33,107.37,2,107.11Z"/><path class="cls-2" d="M0,142.15a19.81,19.81,0,0,0,3.76,2.63l.15-.29A19.69,19.69,0,0,1,0,141.64Z"/><path class="cls-2" d="M3.91,111.22l-.15-.29A19.36,19.36,0,0,0,0,113.56v.51A18.93,18.93,0,0,1,3.91,111.22Z"/><path class="cls-2" d="M32,128.3A31.74,31.74,0,0,1,63.7,159.82h.23a32,32,0,1,0-63.93,0H.23A31.74,31.74,0,0,1,32,128.3Z"/><path class="cls-2" d="M32,134.25A28.77,28.77,0,0,0,3.35,160l.25,0a28.55,28.55,0,0,1,56.73,0l.24,0A28.76,28.76,0,0,0,32,134.25Z"/><path class="cls-2" d="M32,141.09a25.36,25.36,0,0,1,24.69,19.56l.26-.06a25.58,25.58,0,0,0-49.9,0l.27.06A25.35,25.35,0,0,1,32,141.09Z"/><path class="cls-2" d="M32,147a22.38,22.38,0,0,0-21,14.71l.28.1a22.16,22.16,0,0,1,41.49,0l.28-.1A22.39,22.39,0,0,0,32,147Z"/><path class="cls-2" d="M32,153.42A19.18,19.18,0,0,0,15,163.57l.29.16a19,19,0,0,1,33.27,0l.29-.16A19.18,19.18,0,0,0,32,153.42Z"/><path class="cls-2" d="M32,159.82a16,16,0,0,0-12.78,6.39l.28.22a15.75,15.75,0,0,1,25,0l.29-.22A16,16,0,0,0,32,159.82Z"/><path class="cls-2" d="M32,166.21a12.7,12.7,0,0,0-8.81,3.53l.26.28a12.57,12.57,0,0,1,17.11,0l.26-.28A12.72,12.72,0,0,0,32,166.21Z"/><path class="cls-2" d="M26.69,174.19c.07.11.15.22.22.34a9.36,9.36,0,0,1,10.1,0l.23-.34a9.55,9.55,0,0,0-10.55,0Z"/><path class="cls-2" d="M29.51,179.48l.16.4a6.18,6.18,0,0,1,4.58,0c.06-.13.11-.26.17-.4a6.52,6.52,0,0,0-4.91,0Z"/><path class="cls-2" d="M31.34,185.45c0,.15.05.29.08.44a2.47,2.47,0,0,1,.54,0,2.5,2.5,0,0,1,.55,0c0-.15.05-.29.08-.44a3.29,3.29,0,0,0-1.25,0Z"/><path class="cls-2" d="M95.89,191.33a31.74,31.74,0,0,0,31.74-31.52h.22a32,32,0,1,1-63.92,0h.22A31.74,31.74,0,0,0,95.89,191.33Z"/><path class="cls-2" d="M95.89,185.39a28.77,28.77,0,0,1-28.61-25.75l.25,0a28.54,28.54,0,0,0,56.72,0l.25,0A28.77,28.77,0,0,1,95.89,185.39Z"/><path class="cls-2" d="M95.89,178.55A25.34,25.34,0,0,0,120.57,159l.27.06a25.57,25.57,0,0,1-49.9,0l.27-.06A25.34,25.34,0,0,0,95.89,178.55Z"/><path class="cls-2" d="M95.89,172.6a22.39,22.39,0,0,1-21-14.7l.29-.11a22.15,22.15,0,0,0,41.48,0l.29.11A22.39,22.39,0,0,1,95.89,172.6Z"/><path class="cls-2" d="M95.89,166.21A19.17,19.17,0,0,1,79,156.06l.29-.15a19,19,0,0,0,33.26,0l.29.15A19.17,19.17,0,0,1,95.89,166.21Z"/><path class="cls-2" d="M95.89,159.82a15.94,15.94,0,0,1-12.78-6.39l.28-.22a15.76,15.76,0,0,0,25,0l.29.22A16,16,0,0,1,95.89,159.82Z"/><path class="cls-2" d="M95.89,153.42a12.77,12.77,0,0,1-8.82-3.52l.27-.29a12.53,12.53,0,0,0,17.1,0l.27.29A12.77,12.77,0,0,1,95.89,153.42Z"/><path class="cls-2" d="M90.61,145.45c.08-.12.16-.23.23-.35a9.36,9.36,0,0,0,10.1,0c.07.12.15.23.23.35a9.61,9.61,0,0,1-10.56,0Z"/><path class="cls-2" d="M93.44,140.15l.16-.4a6.18,6.18,0,0,0,4.58,0l.16.4a6.37,6.37,0,0,1-4.9,0Z"/><path class="cls-2" d="M95.26,134.18l.09-.43a2.94,2.94,0,0,0,1.08,0l.09.43a2.59,2.59,0,0,1-.63.07A2.7,2.7,0,0,1,95.26,134.18Z"/><path class="cls-2" d="M159.82,128.3a31.73,31.73,0,0,1,31.73,31.52h.23a32,32,0,1,0-63.93,0h.23A31.74,31.74,0,0,1,159.82,128.3Z"/><path class="cls-2" d="M159.82,134.25A28.76,28.76,0,0,0,131.21,160l.25,0a28.54,28.54,0,0,1,56.72,0l.25,0A28.77,28.77,0,0,0,159.82,134.25Z"/><path class="cls-2" d="M159.82,141.09a25.35,25.35,0,0,1,24.68,19.56l.27-.06a25.58,25.58,0,0,0-49.9,0l.26.06A25.36,25.36,0,0,1,159.82,141.09Z"/><path class="cls-2" d="M159.82,147a22.39,22.39,0,0,0-21,14.71l.29.1a22.16,22.16,0,0,1,41.48,0l.28-.1A22.38,22.38,0,0,0,159.82,147Z"/><path class="cls-2" d="M159.82,153.42a19.16,19.16,0,0,0-16.92,10.15l.29.16a19,19,0,0,1,33.26,0l.29-.16A19.18,19.18,0,0,0,159.82,153.42Z"/><path class="cls-2" d="M159.82,159.82A16,16,0,0,0,147,166.21l.29.22a15.75,15.75,0,0,1,25,0l.28-.22A15.94,15.94,0,0,0,159.82,159.82Z"/><path class="cls-2" d="M159.82,166.21a12.72,12.72,0,0,0-8.82,3.53l.26.28a12.57,12.57,0,0,1,17.11,0l.26-.28A12.7,12.7,0,0,0,159.82,166.21Z"/><path class="cls-2" d="M154.54,174.19l.23.34a9.36,9.36,0,0,1,10.1,0c.07-.12.15-.23.22-.34a9.55,9.55,0,0,0-10.55,0Z"/><path class="cls-2" d="M157.36,179.48c.06.14.11.27.17.4a6.18,6.18,0,0,1,4.58,0l.16-.4a6.52,6.52,0,0,0-4.91,0Z"/><path class="cls-2" d="M159.19,185.45c0,.15.06.29.08.44a2.5,2.5,0,0,1,.55,0,2.41,2.41,0,0,1,.54,0l.09-.44a3.36,3.36,0,0,0-.63-.06A3.21,3.21,0,0,0,159.19,185.45Z"/><path class="cls-2" d="M223.74,191.33a31.74,31.74,0,0,0,31.74-31.52h.23a32,32,0,0,1-63.93,0H192A31.74,31.74,0,0,0,223.74,191.33Z"/><path class="cls-2" d="M223.74,185.39a28.78,28.78,0,0,1-28.61-25.75l.25,0a28.55,28.55,0,0,0,56.73,0l.24,0A28.77,28.77,0,0,1,223.74,185.39Z"/><path class="cls-2" d="M223.74,178.55A25.36,25.36,0,0,0,248.43,159l.26.06a25.57,25.57,0,0,1-49.9,0l.27-.06A25.36,25.36,0,0,0,223.74,178.55Z"/><path class="cls-2" d="M223.74,172.6a22.37,22.37,0,0,1-21-14.7l.28-.11a22.16,22.16,0,0,0,41.49,0l.28.11A22.38,22.38,0,0,1,223.74,172.6Z"/><path class="cls-2" d="M223.74,166.21a19.18,19.18,0,0,1-16.92-10.15l.29-.15a19,19,0,0,0,33.27,0l.29.15A19.18,19.18,0,0,1,223.74,166.21Z"/><path class="cls-2" d="M223.74,159.82A16,16,0,0,1,211,153.43l.28-.22a15.76,15.76,0,0,0,25,0l.29.22A16,16,0,0,1,223.74,159.82Z"/><path class="cls-2" d="M223.74,153.42a12.75,12.75,0,0,1-8.81-3.52l.26-.29a12.54,12.54,0,0,0,17.11,0l.26.29A12.76,12.76,0,0,1,223.74,153.42Z"/><path class="cls-2" d="M218.47,145.45l.22-.35a9.36,9.36,0,0,0,10.1,0c.08.12.16.23.23.35a9.6,9.6,0,0,1-10.55,0Z"/><path class="cls-2" d="M221.29,140.15c.06-.13.11-.27.16-.4a6.26,6.26,0,0,0,2.29.44,6.18,6.18,0,0,0,2.29-.44c.06.13.11.27.17.4a6.4,6.4,0,0,1-4.91,0Z"/><path class="cls-2" d="M223.12,134.18c0-.14,0-.29.08-.43a3,3,0,0,0,1.09,0c0,.14.05.29.08.43a2.59,2.59,0,0,1-.63.07A2.56,2.56,0,0,1,223.12,134.18Z"/><path class="cls-2" d="M287.67,128.3a31.74,31.74,0,0,1,31.74,31.52h.22a32,32,0,1,0-63.92,0h.22A31.74,31.74,0,0,1,287.67,128.3Z"/><path class="cls-2" d="M287.67,134.25A28.76,28.76,0,0,0,259.06,160l.25,0A28.54,28.54,0,0,1,316,160l.25,0A28.76,28.76,0,0,0,287.67,134.25Z"/><path class="cls-2" d="M287.67,141.09a25.34,25.34,0,0,1,24.68,19.56l.27-.06a25.58,25.58,0,0,0-49.9,0l.27.06A25.34,25.34,0,0,1,287.67,141.09Z"/><path class="cls-2" d="M287.67,147a22.38,22.38,0,0,0-21,14.71l.28.1a22.16,22.16,0,0,1,41.48,0l.29-.1A22.4,22.4,0,0,0,287.67,147Z"/><path class="cls-2" d="M287.67,153.42a19.17,19.17,0,0,0-16.92,10.15l.29.16a19,19,0,0,1,33.26,0l.29-.16A19.17,19.17,0,0,0,287.67,153.42Z"/><path class="cls-2" d="M287.67,159.82a15.94,15.94,0,0,0-12.78,6.39l.28.22a15.75,15.75,0,0,1,25,0l.29-.22A16,16,0,0,0,287.67,159.82Z"/><path class="cls-2" d="M287.67,166.21a12.74,12.74,0,0,0-8.82,3.53l.27.28a12.56,12.56,0,0,1,17.1,0l.27-.28A12.74,12.74,0,0,0,287.67,166.21Z"/><path class="cls-2" d="M282.39,174.19a4,4,0,0,1,.23.34,9.36,9.36,0,0,1,10.1,0l.23-.34a9.56,9.56,0,0,0-10.56,0Z"/><path class="cls-2" d="M285.22,179.48c0,.14.11.27.16.4a6.18,6.18,0,0,1,4.58,0c.05-.13.11-.26.16-.4a6.49,6.49,0,0,0-4.9,0Z"/><path class="cls-2" d="M287,185.45l.09.44a2.41,2.41,0,0,1,.54,0,2.5,2.5,0,0,1,.55,0c0-.15,0-.29.08-.44a3.21,3.21,0,0,0-.63-.06A3.36,3.36,0,0,0,287,185.45Z"/><path class="cls-2" d="M351.6,191.33a31.74,31.74,0,0,0,31.74-31.52h.22a32,32,0,0,1-63.93,0h.23A31.74,31.74,0,0,0,351.6,191.33Z"/><path class="cls-2" d="M351.6,185.39A28.77,28.77,0,0,1,323,159.64l.25,0a28.54,28.54,0,0,0,56.72,0l.25,0A28.77,28.77,0,0,1,351.6,185.39Z"/><path class="cls-2" d="M351.6,178.55A25.34,25.34,0,0,0,376.28,159l.27.06a25.57,25.57,0,0,1-49.9,0l.26-.06A25.36,25.36,0,0,0,351.6,178.55Z"/><path class="cls-2" d="M351.6,172.6a22.38,22.38,0,0,1-21-14.7l.29-.11a22.15,22.15,0,0,0,41.48,0l.28.11A22.37,22.37,0,0,1,351.6,172.6Z"/><path class="cls-2" d="M351.6,166.21a19.17,19.17,0,0,1-16.92-10.15l.29-.15a19,19,0,0,0,33.26,0l.29.15A19.18,19.18,0,0,1,351.6,166.21Z"/><path class="cls-2" d="M351.6,159.82a16,16,0,0,1-12.79-6.39l.29-.22a15.76,15.76,0,0,0,25,0l.28.22A15.94,15.94,0,0,1,351.6,159.82Z"/><path class="cls-2" d="M351.6,153.42a12.76,12.76,0,0,1-8.82-3.52c.09-.1.18-.19.26-.29a12.54,12.54,0,0,0,17.11,0l.27.29A12.77,12.77,0,0,1,351.6,153.42Z"/><path class="cls-2" d="M346.32,145.45l.23-.35a9.36,9.36,0,0,0,10.1,0c.07.12.15.23.23.35a9.61,9.61,0,0,1-10.56,0Z"/><path class="cls-2" d="M349.15,140.15l.16-.4a6.18,6.18,0,0,0,4.58,0l.16.4a6.37,6.37,0,0,1-4.9,0Z"/><path class="cls-2" d="M351,134.18c0-.14.06-.29.08-.43a3.31,3.31,0,0,0,.55.05,3.19,3.19,0,0,0,.54-.05l.09.43a2.7,2.7,0,0,1-.63.07A2.59,2.59,0,0,1,351,134.18Z"/><path class="cls-2" d="M32.41,191.78A31.74,31.74,0,0,1,63.93,160v-.22a32,32,0,1,0,0,63.92v-.22A31.74,31.74,0,0,1,32.41,191.78Z"/><path class="cls-2" d="M38.36,191.78A28.76,28.76,0,0,0,64.1,220.39l0-.25a28.54,28.54,0,0,1,0-56.72l0-.25A28.76,28.76,0,0,0,38.36,191.78Z"/><path class="cls-2" d="M45.2,191.78A25.34,25.34,0,0,1,64.76,167.1l-.06-.27a25.58,25.58,0,0,0,0,49.9l.06-.27A25.34,25.34,0,0,1,45.2,191.78Z"/><path class="cls-2" d="M51.14,191.78a22.4,22.4,0,0,0,14.71,21c0-.1.07-.19.1-.29A22.16,22.16,0,0,1,66,171c0-.1-.07-.19-.1-.28A22.38,22.38,0,0,0,51.14,191.78Z"/><path class="cls-2" d="M57.53,191.78A19.17,19.17,0,0,0,67.68,208.7l.16-.29a19,19,0,0,1,0-33.26l-.16-.29A19.17,19.17,0,0,0,57.53,191.78Z"/><path class="cls-2" d="M63.93,191.78a16,16,0,0,0,6.39,12.79l.22-.29a15.75,15.75,0,0,1,0-25c-.08-.09-.15-.19-.22-.28A15.94,15.94,0,0,0,63.93,191.78Z"/><path class="cls-2" d="M70.32,191.78a12.74,12.74,0,0,0,3.53,8.82l.28-.27a12.56,12.56,0,0,1,0-17.1l-.28-.27A12.74,12.74,0,0,0,70.32,191.78Z"/><path class="cls-2" d="M78.3,197.06l.34-.23a9.36,9.36,0,0,1,0-10.1,4,4,0,0,1-.34-.23,9.56,9.56,0,0,0,0,10.56Z"/><path class="cls-2" d="M83.59,194.23l.4-.16a6.18,6.18,0,0,1,0-4.58l-.4-.16a6.49,6.49,0,0,0,0,4.9Z"/><path class="cls-2" d="M89.56,192.41l.44-.08a2.5,2.5,0,0,1,0-.55,2.36,2.36,0,0,1,0-.54l-.44-.09a3.36,3.36,0,0,0-.06.63A3.21,3.21,0,0,0,89.56,192.41Z"/><path class="cls-2" d="M159.37,191.78A31.74,31.74,0,0,0,127.85,160v-.22a32,32,0,1,1,0,63.92v-.22A31.74,31.74,0,0,0,159.37,191.78Z"/><path class="cls-2" d="M153.42,191.78a28.76,28.76,0,0,1-25.74,28.61l0-.25a28.54,28.54,0,0,0,0-56.72l0-.25A28.76,28.76,0,0,1,153.42,191.78Z"/><path class="cls-2" d="M146.58,191.78A25.34,25.34,0,0,0,127,167.1l.06-.27a25.58,25.58,0,0,1,0,49.9l-.06-.27A25.34,25.34,0,0,0,146.58,191.78Z"/><path class="cls-2" d="M140.64,191.78a22.4,22.4,0,0,1-14.71,21c0-.1-.07-.19-.1-.29a22.16,22.16,0,0,0,0-41.48c0-.1.07-.19.1-.28A22.38,22.38,0,0,1,140.64,191.78Z"/><path class="cls-2" d="M134.25,191.78A19.17,19.17,0,0,1,124.1,208.7l-.16-.29a19,19,0,0,0,0-33.26l.16-.29A19.17,19.17,0,0,1,134.25,191.78Z"/><path class="cls-2" d="M127.85,191.78a16,16,0,0,1-6.39,12.79l-.22-.29a15.75,15.75,0,0,0,0-25c.08-.09.15-.19.22-.28A15.94,15.94,0,0,1,127.85,191.78Z"/><path class="cls-2" d="M121.46,191.78a12.74,12.74,0,0,1-3.53,8.82l-.28-.27a12.56,12.56,0,0,0,0-17.1l.28-.27A12.74,12.74,0,0,1,121.46,191.78Z"/><path class="cls-2" d="M113.49,197.06l-.35-.23a9.36,9.36,0,0,0,0-10.1l.35-.23a9.61,9.61,0,0,1,0,10.56Z"/><path class="cls-2" d="M108.19,194.23l-.4-.16a6.18,6.18,0,0,0,0-4.58l.4-.16a6.37,6.37,0,0,1,0,4.9Z"/><path class="cls-2" d="M102.22,192.41l-.44-.08a2.51,2.51,0,0,0,.06-.55,2.35,2.35,0,0,0-.06-.54l.44-.09a3.36,3.36,0,0,1,.06.63A3.21,3.21,0,0,1,102.22,192.41Z"/><path class="cls-2" d="M160.26,191.78A31.75,31.75,0,0,1,191.78,160v-.22a32,32,0,0,0,0,63.92v-.22A31.74,31.74,0,0,1,160.26,191.78Z"/><path class="cls-2" d="M166.21,191.78A28.77,28.77,0,0,0,192,220.39a2.29,2.29,0,0,1,0-.25,28.54,28.54,0,0,1,0-56.72,2.11,2.11,0,0,1,0-.25A28.77,28.77,0,0,0,166.21,191.78Z"/><path class="cls-2" d="M173.05,191.78a25.34,25.34,0,0,1,19.56-24.68l-.06-.27a25.58,25.58,0,0,0,0,49.9l.06-.27A25.34,25.34,0,0,1,173.05,191.78Z"/><path class="cls-2" d="M179,191.78a22.39,22.39,0,0,0,14.7,21l.11-.29a22.15,22.15,0,0,1,0-41.48c0-.1-.07-.19-.11-.28A22.37,22.37,0,0,0,179,191.78Z"/><path class="cls-2" d="M185.39,191.78a19.17,19.17,0,0,0,10.15,16.92l.15-.29a19,19,0,0,1,0-33.26l-.15-.29A19.17,19.17,0,0,0,185.39,191.78Z"/><path class="cls-2" d="M191.78,191.78a16,16,0,0,0,6.39,12.79l.22-.29a15.76,15.76,0,0,1,0-25l-.22-.28A15.94,15.94,0,0,0,191.78,191.78Z"/><path class="cls-2" d="M198.17,191.78a12.78,12.78,0,0,0,3.53,8.82l.28-.27a12.56,12.56,0,0,1,0-17.1l-.28-.27A12.78,12.78,0,0,0,198.17,191.78Z"/><path class="cls-2" d="M206.15,197.06l.34-.23a9.36,9.36,0,0,1,0-10.1l-.34-.23a9.61,9.61,0,0,0,0,10.56Z"/><path class="cls-2" d="M211.45,194.23l.4-.16a6.18,6.18,0,0,1,0-4.58l-.4-.16a6.37,6.37,0,0,0,0,4.9Z"/><path class="cls-2" d="M217.41,192.41l.44-.08a3.31,3.31,0,0,1,0-.55,3.1,3.1,0,0,1,0-.54l-.44-.09a3.36,3.36,0,0,0-.06.63A3.21,3.21,0,0,0,217.41,192.41Z"/><path class="cls-2" d="M287.22,191.78A31.74,31.74,0,0,0,255.7,160a1.62,1.62,0,0,0,0-.22,32,32,0,0,1,0,63.92,1.62,1.62,0,0,0,0-.22A31.74,31.74,0,0,0,287.22,191.78Z"/><path class="cls-2" d="M281.28,191.78a28.77,28.77,0,0,1-25.75,28.61l0-.25a28.54,28.54,0,0,0,0-56.72l0-.25A28.77,28.77,0,0,1,281.28,191.78Z"/><path class="cls-2" d="M274.44,191.78a25.34,25.34,0,0,0-19.57-24.68l.06-.27a25.57,25.57,0,0,1,0,49.9l-.06-.27A25.34,25.34,0,0,0,274.44,191.78Z"/><path class="cls-2" d="M268.49,191.78a22.39,22.39,0,0,1-14.7,21l-.11-.29a22.15,22.15,0,0,0,0-41.48c0-.1.07-.19.11-.28A22.37,22.37,0,0,1,268.49,191.78Z"/><path class="cls-2" d="M262.1,191.78A19.17,19.17,0,0,1,252,208.7l-.15-.29a19,19,0,0,0,0-33.26l.15-.29A19.17,19.17,0,0,1,262.1,191.78Z"/><path class="cls-2" d="M255.71,191.78a16,16,0,0,1-6.39,12.79l-.22-.29a15.76,15.76,0,0,0,0-25c.07-.09.14-.19.22-.28A15.94,15.94,0,0,1,255.71,191.78Z"/><path class="cls-2" d="M249.32,191.78a12.78,12.78,0,0,1-3.53,8.82l-.29-.27a12.53,12.53,0,0,0,0-17.1l.29-.27A12.78,12.78,0,0,1,249.32,191.78Z"/><path class="cls-2" d="M241.34,197.06l-.35-.23a9.36,9.36,0,0,0,0-10.1l.35-.23a9.61,9.61,0,0,1,0,10.56Z"/><path class="cls-2" d="M236,194.23l-.4-.16a6.18,6.18,0,0,0,0-4.58l.4-.16a6.37,6.37,0,0,1,0,4.9Z"/><path class="cls-2" d="M230.07,192.41l-.43-.08a3.31,3.31,0,0,0,.05-.55,3.1,3.1,0,0,0-.05-.54l.43-.09a2.7,2.7,0,0,1,.07.63A2.59,2.59,0,0,1,230.07,192.41Z"/><path class="cls-2" d="M288.12,191.78A31.74,31.74,0,0,1,319.64,160c0-.07,0-.15,0-.22a32,32,0,1,0,0,63.92c0-.07,0-.15,0-.22A31.74,31.74,0,0,1,288.12,191.78Z"/><path class="cls-2" d="M294.06,191.78a28.77,28.77,0,0,0,25.75,28.61l0-.25a28.54,28.54,0,0,1,0-56.72l0-.25A28.77,28.77,0,0,0,294.06,191.78Z"/><path class="cls-2" d="M300.9,191.78a25.35,25.35,0,0,1,19.57-24.68l-.06-.27a25.58,25.58,0,0,0,0,49.9l.06-.27A25.35,25.35,0,0,1,300.9,191.78Z"/><path class="cls-2" d="M306.85,191.78a22.4,22.4,0,0,0,14.71,21c0-.1.07-.19.1-.29a22.16,22.16,0,0,1,0-41.48c0-.1-.07-.19-.1-.28A22.38,22.38,0,0,0,306.85,191.78Z"/><path class="cls-2" d="M313.24,191.78a19.17,19.17,0,0,0,10.15,16.92l.16-.29a19,19,0,0,1,0-33.26l-.16-.29A19.17,19.17,0,0,0,313.24,191.78Z"/><path class="cls-2" d="M319.63,191.78a16,16,0,0,0,6.4,12.79l.22-.29a15.75,15.75,0,0,1,0-25c-.08-.09-.15-.19-.22-.28A16,16,0,0,0,319.63,191.78Z"/><path class="cls-2" d="M326,191.78a12.77,12.77,0,0,0,3.52,8.82l.29-.27a12.53,12.53,0,0,1,0-17.1l-.29-.27A12.77,12.77,0,0,0,326,191.78Z"/><path class="cls-2" d="M334,197.06l.35-.23a9.36,9.36,0,0,1,0-10.1l-.35-.23a9.61,9.61,0,0,0,0,10.56Z"/><path class="cls-2" d="M339.3,194.23l.4-.16a6.18,6.18,0,0,1,0-4.58l-.4-.16a6.37,6.37,0,0,0,0,4.9Z"/><path class="cls-2" d="M345.27,192.41l.43-.08a3.31,3.31,0,0,1-.05-.55,3.1,3.1,0,0,1,.05-.54l-.43-.09a3.36,3.36,0,0,0-.06.63A3.21,3.21,0,0,0,345.27,192.41Z"/><path class="cls-2" d="M0,159.82V160a31.74,31.74,0,0,1,31.52,31.74A31.74,31.74,0,0,1,0,223.52v.22a32,32,0,0,0,32-32A32,32,0,0,0,0,159.82Z"/><path class="cls-2" d="M25.57,191.78A28.77,28.77,0,0,0,0,163.19v.25a28.54,28.54,0,0,1,25.12,28.34A28.54,28.54,0,0,1,0,220.12v.25A28.77,28.77,0,0,0,25.57,191.78Z"/><path class="cls-2" d="M19.18,191.78A25.58,25.58,0,0,0,0,167v.29a25.35,25.35,0,0,1,18.73,24.47A25.35,25.35,0,0,1,0,216.25v.29A25.57,25.57,0,0,0,19.18,191.78Z"/><path class="cls-2" d="M12.79,191.78A22.38,22.38,0,0,0,0,171.56v.36a22.15,22.15,0,0,1,12.34,19.86A22.15,22.15,0,0,1,0,211.64V212A22.37,22.37,0,0,0,12.79,191.78Z"/><path class="cls-2" d="M6.39,191.78A19.13,19.13,0,0,0,0,177.49V178a18.89,18.89,0,0,1,6,13.78A18.89,18.89,0,0,1,0,205.56v.51A19.13,19.13,0,0,0,6.39,191.78Z"/><path class="cls-2" d="M32,255.26A31.74,31.74,0,0,0,63.7,223.74h.23a32,32,0,1,1-63.93,0H.23A31.74,31.74,0,0,0,32,255.26Z"/><path class="cls-2" d="M32,249.32A28.78,28.78,0,0,1,3.35,223.57l.25,0a28.55,28.55,0,0,0,56.73,0l.24,0A28.77,28.77,0,0,1,32,249.32Z"/><path class="cls-2" d="M32,242.47a25.36,25.36,0,0,0,24.69-19.56l.26.06A25.58,25.58,0,0,1,7,223l.27-.06A25.35,25.35,0,0,0,32,242.47Z"/><path class="cls-2" d="M32,236.53a22.38,22.38,0,0,1-21-14.71l.28-.1a22.16,22.16,0,0,0,41.49,0l.28.1A22.39,22.39,0,0,1,32,236.53Z"/><path class="cls-2" d="M32,230.14A19.18,19.18,0,0,1,15,220a2.69,2.69,0,0,0,.29-.16,19,19,0,0,0,33.27,0,2.69,2.69,0,0,0,.29.16A19.18,19.18,0,0,1,32,230.14Z"/><path class="cls-2" d="M32,223.74a16,16,0,0,1-12.78-6.39l.28-.22a15.75,15.75,0,0,0,25,0l.29.22A16,16,0,0,1,32,223.74Z"/><path class="cls-2" d="M32,217.35a12.7,12.7,0,0,1-8.81-3.53l.26-.28a12.57,12.57,0,0,0,17.11,0,3.45,3.45,0,0,0,.26.28A12.72,12.72,0,0,1,32,217.35Z"/><path class="cls-2" d="M26.69,209.38l.22-.35A9.36,9.36,0,0,0,37,209l.23.35a9.6,9.6,0,0,1-10.55,0Z"/><path class="cls-2" d="M29.51,204.08c.06-.13.11-.27.16-.4a6.18,6.18,0,0,0,4.58,0c.06.13.11.27.17.4a6.4,6.4,0,0,1-4.91,0Z"/><path class="cls-2" d="M31.34,198.11c0-.14.05-.29.08-.43a3,3,0,0,0,1.09,0c0,.14.05.29.08.43a3.29,3.29,0,0,1-1.25,0Z"/><path class="cls-2" d="M95.89,192.23a31.74,31.74,0,0,1,31.74,31.52h.22a32,32,0,1,0-63.92,0h.22A31.74,31.74,0,0,1,95.89,192.23Z"/><path class="cls-2" d="M95.89,198.17a28.77,28.77,0,0,0-28.61,25.75l.25,0a28.54,28.54,0,0,1,56.72,0l.25,0A28.77,28.77,0,0,0,95.89,198.17Z"/><path class="cls-2" d="M95.89,205a25.35,25.35,0,0,1,24.68,19.57l.27-.06a25.58,25.58,0,0,0-49.9,0l.27.06A25.35,25.35,0,0,1,95.89,205Z"/><path class="cls-2" d="M95.89,211a22.4,22.4,0,0,0-21,14.71l.29.1a22.16,22.16,0,0,1,41.48,0l.29-.1A22.4,22.4,0,0,0,95.89,211Z"/><path class="cls-2" d="M95.89,217.35A19.17,19.17,0,0,0,79,227.5l.29.16a19,19,0,0,1,33.26,0l.29-.16A19.17,19.17,0,0,0,95.89,217.35Z"/><path class="cls-2" d="M95.89,223.74a15.92,15.92,0,0,0-12.78,6.4l.28.21a15.76,15.76,0,0,1,25,0l.29-.21A16,16,0,0,0,95.89,223.74Z"/><path class="cls-2" d="M95.89,230.14a12.77,12.77,0,0,0-8.82,3.52l.27.29a12.53,12.53,0,0,1,17.1,0l.27-.29A12.77,12.77,0,0,0,95.89,230.14Z"/><path class="cls-2" d="M90.61,238.11c.08.12.16.23.23.35a9.36,9.36,0,0,1,10.1,0c.07-.12.15-.23.23-.35a9.61,9.61,0,0,0-10.56,0Z"/><path class="cls-2" d="M93.44,243.41l.16.4a6.18,6.18,0,0,1,4.58,0l.16-.4a6.37,6.37,0,0,0-4.9,0Z"/><path class="cls-2" d="M95.26,249.38l.09.43a2.94,2.94,0,0,1,1.08,0l.09-.43a3.21,3.21,0,0,0-.63-.06A3.36,3.36,0,0,0,95.26,249.38Z"/><path class="cls-2" d="M159.82,255.26a31.73,31.73,0,0,0,31.73-31.52h.23a32,32,0,1,1-63.93,0h.23A31.74,31.74,0,0,0,159.82,255.26Z"/><path class="cls-2" d="M159.82,249.32a28.77,28.77,0,0,1-28.61-25.75l.25,0a28.54,28.54,0,0,0,56.72,0l.25,0A28.78,28.78,0,0,1,159.82,249.32Z"/><path class="cls-2" d="M159.82,242.47a25.35,25.35,0,0,0,24.68-19.56l.27.06a25.58,25.58,0,0,1-49.9,0l.26-.06A25.36,25.36,0,0,0,159.82,242.47Z"/><path class="cls-2" d="M159.82,236.53a22.39,22.39,0,0,1-21-14.71l.29-.1a22.16,22.16,0,0,0,41.48,0l.28.1A22.38,22.38,0,0,1,159.82,236.53Z"/><path class="cls-2" d="M159.82,230.14A19.16,19.16,0,0,1,142.9,220l.29-.16a19,19,0,0,0,33.26,0l.29.16A19.18,19.18,0,0,1,159.82,230.14Z"/><path class="cls-2" d="M159.82,223.74A16,16,0,0,1,147,217.35l.29-.22a15.75,15.75,0,0,0,25,0l.28.22A15.94,15.94,0,0,1,159.82,223.74Z"/><path class="cls-2" d="M159.82,217.35a12.72,12.72,0,0,1-8.82-3.53,3.45,3.45,0,0,0,.26-.28,12.57,12.57,0,0,0,17.11,0l.26.28A12.7,12.7,0,0,1,159.82,217.35Z"/><path class="cls-2" d="M154.54,209.38l.23-.35a9.36,9.36,0,0,0,10.1,0l.22.35a9.6,9.6,0,0,1-10.55,0Z"/><path class="cls-2" d="M157.36,204.08c.06-.13.11-.27.17-.4a6.18,6.18,0,0,0,4.58,0c0,.13.1.27.16.4a6.4,6.4,0,0,1-4.91,0Z"/><path class="cls-2" d="M159.19,198.11c0-.14.06-.29.08-.43a3.31,3.31,0,0,0,.55,0,3.19,3.19,0,0,0,.54,0l.09.43a3.36,3.36,0,0,1-.63.06A3.21,3.21,0,0,1,159.19,198.11Z"/><path class="cls-2" d="M223.74,192.23a31.74,31.74,0,0,1,31.74,31.52h.23a32,32,0,0,0-63.93,0H192A31.74,31.74,0,0,1,223.74,192.23Z"/><path class="cls-2" d="M223.74,198.17a28.78,28.78,0,0,0-28.61,25.75l.25,0a28.55,28.55,0,0,1,56.73,0l.24,0A28.77,28.77,0,0,0,223.74,198.17Z"/><path class="cls-2" d="M223.74,205a25.37,25.37,0,0,1,24.69,19.57l.26-.06a25.58,25.58,0,0,0-49.9,0l.27.06A25.37,25.37,0,0,1,223.74,205Z"/><path class="cls-2" d="M223.74,211a22.38,22.38,0,0,0-21,14.71l.28.1a22.16,22.16,0,0,1,41.49,0l.28-.1A22.39,22.39,0,0,0,223.74,211Z"/><path class="cls-2" d="M223.74,217.35a19.18,19.18,0,0,0-16.92,10.15,2.69,2.69,0,0,1,.29.16,19,19,0,0,1,33.27,0,2.69,2.69,0,0,1,.29-.16A19.18,19.18,0,0,0,223.74,217.35Z"/><path class="cls-2" d="M223.74,223.74a15.93,15.93,0,0,0-12.78,6.4l.28.21a15.76,15.76,0,0,1,25,0l.29-.21A16,16,0,0,0,223.74,223.74Z"/><path class="cls-2" d="M223.74,230.14a12.75,12.75,0,0,0-8.81,3.52l.26.29a12.54,12.54,0,0,1,17.11,0l.26-.29A12.76,12.76,0,0,0,223.74,230.14Z"/><path class="cls-2" d="M218.47,238.11l.22.35a9.36,9.36,0,0,1,10.1,0c.08-.12.16-.23.23-.35a9.6,9.6,0,0,0-10.55,0Z"/><path class="cls-2" d="M221.29,243.41c.06.13.11.27.16.4a6.26,6.26,0,0,1,2.29-.44,6.18,6.18,0,0,1,2.29.44c.06-.13.11-.27.17-.4a6.4,6.4,0,0,0-4.91,0Z"/><path class="cls-2" d="M223.12,249.38c0,.14,0,.29.08.43a3,3,0,0,1,1.09,0c0-.14.05-.29.08-.43a3.29,3.29,0,0,0-1.25,0Z"/><path class="cls-2" d="M287.67,255.26a31.74,31.74,0,0,0,31.74-31.52h.22a32,32,0,1,1-63.92,0h.22A31.74,31.74,0,0,0,287.67,255.26Z"/><path class="cls-2" d="M287.67,249.32a28.77,28.77,0,0,1-28.61-25.75l.25,0a28.54,28.54,0,0,0,56.72,0l.25,0A28.77,28.77,0,0,1,287.67,249.32Z"/><path class="cls-2" d="M287.67,242.47a25.34,25.34,0,0,0,24.68-19.56l.27.06a25.58,25.58,0,0,1-49.9,0l.27-.06A25.34,25.34,0,0,0,287.67,242.47Z"/><path class="cls-2" d="M287.67,236.53a22.38,22.38,0,0,1-21-14.71l.28-.1a22.16,22.16,0,0,0,41.48,0l.29.1A22.4,22.4,0,0,1,287.67,236.53Z"/><path class="cls-2" d="M287.67,230.14A19.17,19.17,0,0,1,270.75,220l.29-.16a19,19,0,0,0,33.26,0l.29.16A19.17,19.17,0,0,1,287.67,230.14Z"/><path class="cls-2" d="M287.67,223.74a15.94,15.94,0,0,1-12.78-6.39l.28-.22a15.75,15.75,0,0,0,25,0l.29.22A16,16,0,0,1,287.67,223.74Z"/><path class="cls-2" d="M287.67,217.35a12.74,12.74,0,0,1-8.82-3.53l.27-.28a12.56,12.56,0,0,0,17.1,0l.27.28A12.74,12.74,0,0,1,287.67,217.35Z"/><path class="cls-2" d="M282.39,209.38c.08-.12.16-.23.23-.35a9.36,9.36,0,0,0,10.1,0l.23.35a9.61,9.61,0,0,1-10.56,0Z"/><path class="cls-2" d="M285.22,204.08l.16-.4a6.18,6.18,0,0,0,4.58,0l.16.4a6.37,6.37,0,0,1-4.9,0Z"/><path class="cls-2" d="M287,198.11l.09-.43a3.19,3.19,0,0,0,.54,0,3.31,3.31,0,0,0,.55,0c0,.14,0,.29.08.43a3.21,3.21,0,0,1-.63.06A3.36,3.36,0,0,1,287,198.11Z"/><path class="cls-2" d="M351.6,192.23a31.74,31.74,0,0,1,31.74,31.52h.22a32,32,0,0,0-63.93,0h.23A31.74,31.74,0,0,1,351.6,192.23Z"/><path class="cls-2" d="M351.6,198.17A28.77,28.77,0,0,0,323,223.92l.25,0A28.54,28.54,0,0,1,380,224l.25,0A28.77,28.77,0,0,0,351.6,198.17Z"/><path class="cls-2" d="M351.6,205a25.35,25.35,0,0,1,24.68,19.57l.27-.06a25.58,25.58,0,0,0-49.9,0l.26.06A25.37,25.37,0,0,1,351.6,205Z"/><path class="cls-2" d="M351.6,211a22.39,22.39,0,0,0-21,14.71l.29.1a22.16,22.16,0,0,1,41.48,0l.28-.1A22.38,22.38,0,0,0,351.6,211Z"/><path class="cls-2" d="M351.6,217.35a19.17,19.17,0,0,0-16.92,10.15l.29.16a19,19,0,0,1,33.26,0l.29-.16A19.18,19.18,0,0,0,351.6,217.35Z"/><path class="cls-2" d="M351.6,223.74a16,16,0,0,0-12.79,6.4l.29.21a15.76,15.76,0,0,1,25,0l.28-.21A15.92,15.92,0,0,0,351.6,223.74Z"/><path class="cls-2" d="M351.6,230.14a12.76,12.76,0,0,0-8.82,3.52c.09.1.18.19.26.29a12.54,12.54,0,0,1,17.11,0l.27-.29A12.77,12.77,0,0,0,351.6,230.14Z"/><path class="cls-2" d="M346.32,238.11l.23.35a9.36,9.36,0,0,1,10.1,0c.07-.12.15-.23.23-.35a9.61,9.61,0,0,0-10.56,0Z"/><path class="cls-2" d="M349.15,243.41l.16.4a6.18,6.18,0,0,1,4.58,0l.16-.4a6.37,6.37,0,0,0-4.9,0Z"/><path class="cls-2" d="M351,249.38c0,.14.06.29.08.43a3.31,3.31,0,0,1,.55-.05,3.19,3.19,0,0,1,.54.05l.09-.43a3.36,3.36,0,0,0-.63-.06A3.21,3.21,0,0,0,351,249.38Z"/><path class="cls-2" d="M9.92,246.89a12.72,12.72,0,0,0-3.53,8.82h.45a12.56,12.56,0,0,1,3.36-8.56Z"/><path class="cls-2" d="M14.37,250.43a9.54,9.54,0,0,0-1.58,5.28h.44a9.37,9.37,0,0,1,1.48-5.05Z"/><path class="cls-2" d="M19.67,253.26a6.23,6.23,0,0,0-.49,2.45h.45a6,6,0,0,1,.44-2.29Z"/><path class="cls-2" d="M26.07,255.16l-.44-.08a3.21,3.21,0,0,0-.06.63H26A3.31,3.31,0,0,1,26.07,255.16Z"/><path class="cls-2" d="M0,224v0Z"/><path class="cls-2" d="M.2,227.35l0-.25-.17,0v.25Z"/><path class="cls-2" d="M.83,231l-.06-.26L0,231v.29Z"/><path class="cls-2" d="M2,235l-.11-.29q-1,.36-1.92.81v.36A20.38,20.38,0,0,1,2,235Z"/><path class="cls-2" d="M3.91,239.08l-.15-.29A18.94,18.94,0,0,0,0,241.42v.51A18.93,18.93,0,0,1,3.91,239.08Z"/><path class="cls-2" d="M6.61,243.21l-.22-.29A16,16,0,0,0,0,255.71H.45A15.72,15.72,0,0,1,6.61,243.21Z"/><path class="cls-2" d="M63.93,223.74c0,.08,0,.16,0,.23a31.74,31.74,0,0,1,31.52,31.74h.45A32,32,0,0,0,63.93,223.74Z"/><path class="cls-2" d="M63.75,227.1l0,.25a28.54,28.54,0,0,1,25.33,28.36h.45A28.77,28.77,0,0,0,63.75,227.1Z"/><path class="cls-2" d="M63.15,230.76l-.06.26a25.36,25.36,0,0,1,19.57,24.69h.45A25.59,25.59,0,0,0,63.15,230.76Z"/><path class="cls-2" d="M62,234.68c0,.1-.08.19-.11.29a22.15,22.15,0,0,1,14.36,20.74h.45A22.38,22.38,0,0,0,62,234.68Z"/><path class="cls-2" d="M60.17,238.79l-.15.29a19,19,0,0,1,9.85,16.63h.45A19.16,19.16,0,0,0,60.17,238.79Z"/><path class="cls-2" d="M57.54,242.92l-.22.29a15.75,15.75,0,0,1,6.16,12.5h.45A16,16,0,0,0,57.54,242.92Z"/><path class="cls-2" d="M53.72,247.15a12.53,12.53,0,0,1,3.37,8.56h.44A12.76,12.76,0,0,0,54,246.89Z"/><path class="cls-2" d="M49.21,250.66a9.29,9.29,0,0,1,1.48,5.05h.45a9.54,9.54,0,0,0-1.58-5.28Z"/><path class="cls-2" d="M43.86,253.42a6.22,6.22,0,0,1,.44,2.29h.45a6.41,6.41,0,0,0-.49-2.45Z"/><path class="cls-2" d="M37.86,255.16a3.31,3.31,0,0,1,0,.55h.45a3.2,3.2,0,0,0-.07-.63Z"/><path class="cls-2" d="M191.78,223.74V224a31.74,31.74,0,0,1,31.52,31.74h.44A32,32,0,0,0,191.78,223.74Z"/><path class="cls-2" d="M191.61,227.1l0,.25a28.53,28.53,0,0,1,25.32,28.36h.45A28.77,28.77,0,0,0,191.61,227.1Z"/><path class="cls-2" d="M191,230.76,191,231a25.36,25.36,0,0,1,19.56,24.69H211A25.58,25.58,0,0,0,191,230.76Z"/><path class="cls-2" d="M189.86,234.68c0,.1-.07.19-.11.29a22.14,22.14,0,0,1,14.37,20.74h.45A22.39,22.39,0,0,0,189.86,234.68Z"/><path class="cls-2" d="M188,238.79a2.69,2.69,0,0,0-.16.29,19,19,0,0,1,9.86,16.63h.44A19.17,19.17,0,0,0,188,238.79Z"/><path class="cls-2" d="M185.39,242.92l-.22.29a15.72,15.72,0,0,1,6.16,12.5h.45A16,16,0,0,0,185.39,242.92Z"/><path class="cls-2" d="M181.58,247.15a12.56,12.56,0,0,1,3.36,8.56h.45a12.72,12.72,0,0,0-3.53-8.82Z"/><path class="cls-2" d="M177.07,250.66a9.37,9.37,0,0,1,1.48,5.05H179a9.55,9.55,0,0,0-1.59-5.28Z"/><path class="cls-2" d="M171.71,253.42a6,6,0,0,1,.45,2.29h.44a6.23,6.23,0,0,0-.49-2.45Z"/><path class="cls-2" d="M165.71,255.16a3.31,3.31,0,0,1,0,.55h.45a3.21,3.21,0,0,0-.06-.63Z"/><path class="cls-2" d="M319.63,223.74V224a31.74,31.74,0,0,1,31.52,31.74h.45A32,32,0,0,0,319.63,223.74Z"/><path class="cls-2" d="M319.46,227.1l0,.25a28.54,28.54,0,0,1,25.33,28.36h.45A28.77,28.77,0,0,0,319.46,227.1Z"/><path class="cls-2" d="M318.86,230.76l-.06.26a25.37,25.37,0,0,1,19.57,24.69h.44A25.58,25.58,0,0,0,318.86,230.76Z"/><path class="cls-2" d="M317.71,234.68c0,.1-.07.19-.1.29A22.15,22.15,0,0,1,332,255.71h.45A22.39,22.39,0,0,0,317.71,234.68Z"/><path class="cls-2" d="M315.88,238.79l-.16.29a18.94,18.94,0,0,1,9.86,16.63H326A19.16,19.16,0,0,0,315.88,238.79Z"/><path class="cls-2" d="M313.24,242.92l-.22.29a15.73,15.73,0,0,1,6.17,12.5h.44A16,16,0,0,0,313.24,242.92Z"/><path class="cls-2" d="M309.43,247.15a12.52,12.52,0,0,1,3.36,8.56h.45a12.72,12.72,0,0,0-3.53-8.82A3.45,3.45,0,0,1,309.43,247.15Z"/><path class="cls-2" d="M304.92,250.66a9.29,9.29,0,0,1,1.48,5.05h.45a9.54,9.54,0,0,0-1.58-5.28Z"/><path class="cls-2" d="M299.57,253.42a6.22,6.22,0,0,1,.44,2.29h.45a6.41,6.41,0,0,0-.49-2.45Z"/><path class="cls-2" d="M293.57,255.16a3.31,3.31,0,0,1,.05.55h.44a3.21,3.21,0,0,0-.06-.63Z"/><path class="cls-2" d="M127.86,224c0-.07,0-.15,0-.23a32,32,0,0,0-32,32h.45A31.74,31.74,0,0,1,127.86,224Z"/><path class="cls-2" d="M128.06,227.35l0-.25a28.77,28.77,0,0,0-25.75,28.61h.45A28.54,28.54,0,0,1,128.06,227.35Z"/><path class="cls-2" d="M128.69,231l-.06-.26a25.58,25.58,0,0,0-19.95,25h.44A25.37,25.37,0,0,1,128.69,231Z"/><path class="cls-2" d="M129.88,235c0-.1-.07-.19-.1-.29a22.37,22.37,0,0,0-14.71,21h.45A22.15,22.15,0,0,1,129.88,235Z"/><path class="cls-2" d="M131.77,239.08l-.16-.29a19.16,19.16,0,0,0-10.15,16.92h.45A18.94,18.94,0,0,1,131.77,239.08Z"/><path class="cls-2" d="M134.46,243.21l-.21-.29a16,16,0,0,0-6.4,12.79h.45A15.75,15.75,0,0,1,134.46,243.21Z"/><path class="cls-2" d="M137.77,246.89a12.76,12.76,0,0,0-3.52,8.82h.44a12.53,12.53,0,0,1,3.37-8.56Z"/><path class="cls-2" d="M142.22,250.43a9.54,9.54,0,0,0-1.58,5.28h.45a9.29,9.29,0,0,1,1.48-5.05Z"/><path class="cls-2" d="M147.52,253.26a6.41,6.41,0,0,0-.49,2.45h.45a6.22,6.22,0,0,1,.44-2.29Z"/><path class="cls-2" d="M153.92,255.16l-.43-.08a3.2,3.2,0,0,0-.07.63h.45A3.31,3.31,0,0,1,153.92,255.16Z"/><path class="cls-2" d="M255.71,224v-.23a32,32,0,0,0-32,32h.45A31.74,31.74,0,0,1,255.71,224Z"/><path class="cls-2" d="M255.91,227.35l0-.25a28.77,28.77,0,0,0-25.74,28.61h.44A28.54,28.54,0,0,1,255.91,227.35Z"/><path class="cls-2" d="M256.54,231l-.06-.26a25.58,25.58,0,0,0-20,25H237A25.36,25.36,0,0,1,256.54,231Z"/><path class="cls-2" d="M257.74,235c0-.1-.08-.19-.11-.29a22.39,22.39,0,0,0-14.71,21h.45A22.14,22.14,0,0,1,257.74,235Z"/><path class="cls-2" d="M259.62,239.08l-.16-.29a19.15,19.15,0,0,0-10.14,16.92h.44A19,19,0,0,1,259.62,239.08Z"/><path class="cls-2" d="M262.32,243.21l-.22-.29a16,16,0,0,0-6.39,12.79h.45A15.72,15.72,0,0,1,262.32,243.21Z"/><path class="cls-2" d="M265.63,246.89a12.72,12.72,0,0,0-3.53,8.82h.45a12.52,12.52,0,0,1,3.36-8.56Z"/><path class="cls-2" d="M270.08,250.43a9.55,9.55,0,0,0-1.59,5.28h.45a9.37,9.37,0,0,1,1.48-5.05Z"/><path class="cls-2" d="M275.37,253.26a6.41,6.41,0,0,0-.48,2.45h.44a6.22,6.22,0,0,1,.44-2.29Z"/><path class="cls-2" d="M281.78,255.16l-.44-.08a3.21,3.21,0,0,0-.06.63h.45A2.5,2.5,0,0,1,281.78,255.16Z"/><path class="cls-2" d="M352.05,0h-.45a32,32,0,0,0,32,32v-.22A31.74,31.74,0,0,1,352.05,0Z"/><path class="cls-2" d="M358.44,0H358a28.77,28.77,0,0,0,25.57,28.59v-.25A28.54,28.54,0,0,1,358.44,0Z"/><path class="cls-2" d="M364.83,0h-.45a25.58,25.58,0,0,0,19.18,24.76v-.29A25.35,25.35,0,0,1,364.83,0Z"/><path class="cls-2" d="M371.22,0h-.44a22.36,22.36,0,0,0,12.78,20.22v-.36A22.15,22.15,0,0,1,371.22,0Z"/><path class="cls-2" d="M377.62,0h-.45a19.13,19.13,0,0,0,6.39,14.29v-.51A18.88,18.88,0,0,1,377.62,0Z"/><path class="cls-2" d="M383.56,63.93a16,16,0,0,1-6.39,12.78l-.22-.28a15.76,15.76,0,0,0,0-25l.22-.29A16,16,0,0,1,383.56,63.93Z"/><path class="cls-2" d="M377.17,63.93a12.7,12.7,0,0,1-3.53,8.81l-.28-.26a12.57,12.57,0,0,0,0-17.11l.28-.26A12.72,12.72,0,0,1,377.17,63.93Z"/><path class="cls-2" d="M369.19,69.2l-.34-.22a9.36,9.36,0,0,0,0-10.1l.34-.23a9.55,9.55,0,0,1,0,10.55Z"/><path class="cls-2" d="M363.9,66.38l-.4-.16a6.18,6.18,0,0,0,0-4.58l.4-.17a6.52,6.52,0,0,1,0,4.91Z"/><path class="cls-2" d="M357.93,64.56l-.44-.09a2.47,2.47,0,0,0,.05-.54,2.5,2.5,0,0,0-.05-.55l.44-.08a3.21,3.21,0,0,1,.06.63A3.36,3.36,0,0,1,357.93,64.56Z"/><path class="cls-2" d="M383.56,32.19h0v0Z"/><path class="cls-2" d="M383.56,95.66v0Z"/><path class="cls-2" d="M383.36,92.29l0,.25.17,0v-.26Z"/><path class="cls-2" d="M383.39,35.32l0,.25.2,0v-.25Z"/><path class="cls-2" d="M382.79,39l-.06.26.83.21v-.29Z"/><path class="cls-2" d="M382.73,88.61l.06.27.77-.19V88.4C383.29,88.47,383,88.55,382.73,88.61Z"/><path class="cls-2" d="M381.64,42.9a2.33,2.33,0,0,1-.11.28,20.44,20.44,0,0,1,2,.89v-.36A20.45,20.45,0,0,0,381.64,42.9Z"/><path class="cls-2" d="M381.53,84.67c0,.09.08.19.11.28.66-.24,1.3-.51,1.92-.8v-.36C382.9,84.11,382.23,84.41,381.53,84.67Z"/><path class="cls-2" d="M379.65,80.56l.16.29a19.6,19.6,0,0,0,3.75-2.63v-.51A18.67,18.67,0,0,1,379.65,80.56Z"/><path class="cls-2" d="M379.81,47c-.06.1-.11.2-.16.3a18.67,18.67,0,0,1,3.91,2.85v-.51A19.65,19.65,0,0,0,379.81,47Z"/><path class="cls-2" d="M352.05,127.85a31.73,31.73,0,0,1,31.51-31.73v-.23a32,32,0,0,0,0,63.93v-.23A31.74,31.74,0,0,1,352.05,127.85Z"/><path class="cls-2" d="M358.44,127.85a28.54,28.54,0,0,1,25.12-28.33v-.26a28.77,28.77,0,0,0,0,57.18v-.25A28.54,28.54,0,0,1,358.44,127.85Z"/><path class="cls-2" d="M364.83,127.85a25.35,25.35,0,0,1,18.73-24.47v-.29a25.58,25.58,0,0,0,0,49.53v-.29A25.36,25.36,0,0,1,364.83,127.85Z"/><path class="cls-2" d="M371.22,127.85A22.15,22.15,0,0,1,383.56,108v-.36a22.39,22.39,0,0,0,0,40.44v-.35A22.17,22.17,0,0,1,371.22,127.85Z"/><path class="cls-2" d="M377.62,127.85a18.9,18.9,0,0,1,5.94-13.78v-.51a19.18,19.18,0,0,0,0,28.59v-.51A18.92,18.92,0,0,1,377.62,127.85Z"/><path class="cls-2" d="M383.56,191.78a16,16,0,0,1-6.39,12.79l-.22-.29a15.76,15.76,0,0,0,0-25l.22-.28A15.94,15.94,0,0,1,383.56,191.78Z"/><path class="cls-2" d="M377.17,191.78a12.74,12.74,0,0,1-3.53,8.82l-.28-.27a12.56,12.56,0,0,0,0-17.1l.28-.27A12.74,12.74,0,0,1,377.17,191.78Z"/><path class="cls-2" d="M369.19,197.06l-.34-.23a9.36,9.36,0,0,0,0-10.1l.34-.23a9.56,9.56,0,0,1,0,10.56Z"/><path class="cls-2" d="M363.9,194.23l-.4-.16a6.18,6.18,0,0,0,0-4.58l.4-.16a6.49,6.49,0,0,1,0,4.9Z"/><path class="cls-2" d="M357.93,192.41l-.44-.08a2.5,2.5,0,0,0,.05-.55,2.36,2.36,0,0,0-.05-.54l.44-.09a3.36,3.36,0,0,1,.06.63A3.21,3.21,0,0,1,357.93,192.41Z"/><path class="cls-2" d="M383.56,160h0v0Z"/><path class="cls-2" d="M383.56,223.52v0Z"/><path class="cls-2" d="M383.36,220.14l0,.25.17,0v-.25Z"/><path class="cls-2" d="M383.39,163.17l0,.25.2,0v-.25Z"/><path class="cls-2" d="M382.79,166.83l-.06.27c.28.06.56.13.83.21V167Z"/><path class="cls-2" d="M382.73,216.46l.06.27.77-.19v-.29C383.29,216.33,383,216.4,382.73,216.46Z"/><path class="cls-2" d="M381.64,170.76c0,.09-.07.18-.11.28a20.38,20.38,0,0,1,2,.88v-.36A18,18,0,0,0,381.64,170.76Z"/><path class="cls-2" d="M381.53,212.52c0,.1.08.19.11.29a20.45,20.45,0,0,0,1.92-.81v-.36A20.38,20.38,0,0,1,381.53,212.52Z"/><path class="cls-2" d="M379.65,208.41a2.69,2.69,0,0,0,.16.29,19.17,19.17,0,0,0,3.75-2.63v-.51A18.67,18.67,0,0,1,379.65,208.41Z"/><path class="cls-2" d="M379.81,174.86l-.16.29a18.67,18.67,0,0,1,3.91,2.85v-.51A19.17,19.17,0,0,0,379.81,174.86Z"/><path class="cls-2" d="M383.56,224v-.23a32,32,0,0,0-32,32h.45A31.74,31.74,0,0,1,383.56,224Z"/><path class="cls-2" d="M358,255.71h.45a28.54,28.54,0,0,1,25.12-28.34v-.25A28.77,28.77,0,0,0,358,255.71Z"/><path class="cls-2" d="M364.38,255.71h.45a25.35,25.35,0,0,1,18.73-24.47V231A25.56,25.56,0,0,0,364.38,255.71Z"/><path class="cls-2" d="M370.78,255.71h.44a22.14,22.14,0,0,1,12.34-19.86v-.36A22.36,22.36,0,0,0,370.78,255.71Z"/><path class="cls-2" d="M377.17,255.71h.45a18.88,18.88,0,0,1,5.94-13.78v-.51A19.13,19.13,0,0,0,377.17,255.71Z"/></g></g></g></svg>